<svg width="1066" height="253" viewBox="0 0 1066 253" fill="none" xmlns="http://www.w3.org/2000/svg">
<g clip-path="url(#clip0_419_5966)">
<g style="mix-blend-mode:overlay">
<g style="mix-blend-mode:overlay" opacity="0.2">
<g style="mix-blend-mode:overlay">
<path d="M6.64733 14.9003C5.7646 15.2895 4.85765 15.6212 3.93214 15.8933C2.91171 16.2257 1.86736 16.4796 0.808209 16.6526L0.414062 14.5498C3.22327 13.805 5.80871 12.3865 7.94653 10.4171L9.88804 10.8698V36.5274L15.2016 36.8925V38.8201H1.17315V36.9363L6.60353 36.5712L6.64733 14.9003Z" fill="#282828"/>
</g>
<g style="mix-blend-mode:overlay" >
<path d="M68.0895 35.0963C66.3802 31.9674 65.5385 28.4381 65.6517 24.8742C65.6145 22.3123 66.1116 19.7708 67.1115 17.412C67.9242 15.419 69.2485 13.676 70.9507 12.3594C72.4811 11.1911 74.3538 10.5598 76.2789 10.5632C77.7741 10.4391 79.2747 10.729 80.6162 11.4013C81.9577 12.0736 83.0883 13.1022 83.8843 14.3745C85.5531 17.5138 86.3449 21.0452 86.1762 24.5967C86.2124 27.1724 85.7515 29.7309 84.8186 32.1319C84.0491 34.1826 82.7616 35.9989 81.0815 37.4036C80.114 38.1835 78.9917 38.7485 77.7892 39.0612C76.5866 39.3738 75.3313 39.427 74.1067 39.217C72.882 39.0071 71.716 38.5389 70.6861 37.8435C69.6563 37.1482 68.786 36.2416 68.1333 35.1839L68.0895 35.0963ZM80.9356 33.9281C82.1518 31.0814 82.7058 27.9956 82.5559 24.9034C82.5559 16.6867 80.3663 12.5735 75.9869 12.5638C74.9218 12.5217 73.8677 12.7924 72.9546 13.3425C72.0415 13.8927 71.3094 14.6981 70.8485 15.6596C69.6084 18.3556 69.0375 21.3113 69.1843 24.2754C69.0885 27.4133 69.6298 30.5381 70.7755 33.4608C71.1184 34.532 71.7921 35.4667 72.6997 36.1306C73.6073 36.7945 74.702 37.1533 75.8263 37.1554C76.9033 37.1921 77.9664 36.904 78.8775 36.3285C79.7887 35.7529 80.5058 34.9166 80.9356 33.9281Z" fill="#282828"/>
</g>
<g style="mix-blend-mode:overlay">
<path d="M97.8544 35.0964C96.1383 31.97 95.2962 28.4388 95.4166 24.8742C95.3794 22.3124 95.8765 19.7709 96.8764 17.4121C97.6842 15.4163 99.0094 13.6721 100.716 12.3594C102.246 11.1912 104.119 10.5599 106.044 10.5632C107.539 10.4408 109.039 10.7314 110.38 11.4036C111.721 12.0757 112.852 13.1034 113.649 14.3746C115.318 17.5139 116.11 21.0452 115.941 24.5968C115.977 27.1725 115.516 29.731 114.583 32.1319C113.814 34.1827 112.527 35.999 110.846 37.4037C109.879 38.1836 108.757 38.7486 107.554 39.0612C106.352 39.3739 105.096 39.427 103.872 39.2171C102.647 39.0071 101.481 38.5389 100.451 37.8436C99.4212 37.1482 98.5509 36.2416 97.8982 35.184L97.8544 35.0964ZM110.7 33.9281C111.917 31.0814 112.471 27.9956 112.321 24.9034C112.321 16.6868 110.131 12.5736 105.752 12.5638C104.685 12.5226 103.629 12.7935 102.714 13.3434C101.799 13.8933 101.064 14.6982 100.599 15.6597C99.3643 18.3571 98.7984 21.3126 98.9492 24.2755C98.8534 27.4134 99.3947 30.5381 100.54 33.4608C100.881 34.5332 101.554 35.4693 102.463 36.1335C103.371 36.7977 104.466 37.1556 105.591 37.1554C106.668 37.1922 107.731 36.904 108.642 36.3285C109.554 35.753 110.271 34.9166 110.7 33.9281Z" fill="#282828"/>
</g>
<g style="mix-blend-mode:overlay">
<path d="M157.37 35.0963C155.665 31.966 154.829 28.4367 154.946 24.8741C154.909 22.3123 155.406 19.7708 156.406 17.412C157.214 15.42 158.533 13.6769 160.231 12.3593C161.765 11.1881 163.644 10.5566 165.574 10.5631C167.067 10.4385 168.566 10.7283 169.905 11.4008C171.244 12.0732 172.372 13.1022 173.165 14.3745C174.84 17.5112 175.632 21.0445 175.456 24.5967C175.493 27.1724 175.032 29.7309 174.099 32.1319C173.334 34.1813 172.052 35.9976 170.376 37.4036C168.878 38.6446 166.993 39.3215 165.048 39.3166C163.501 39.4075 161.96 39.0596 160.601 38.313C159.243 37.5664 158.123 36.4514 157.37 35.0963ZM170.23 33.9281C171.447 31.0814 172.001 27.9955 171.851 24.9034C171.851 16.6867 169.661 12.5735 165.282 12.5637C164.215 12.5225 163.159 12.7935 162.244 13.3433C161.329 13.8932 160.594 14.6981 160.129 15.6596C158.889 18.3556 158.318 21.3113 158.465 24.2754C158.373 27.4143 158.919 30.5392 160.07 33.4608C160.409 34.5344 161.082 35.4717 161.99 36.1363C162.899 36.8008 163.996 37.1578 165.121 37.1553C166.198 37.1921 167.261 36.904 168.172 36.3284C169.083 35.7529 169.801 34.9166 170.23 33.9281Z" fill="#282828"/>
</g>
<g style="mix-blend-mode:overlay">
<path d="M189.937 14.9003C189.055 15.2895 188.148 15.6212 187.222 15.8933C186.201 16.2226 185.157 16.4764 184.098 16.6526L183.689 14.5498C185.107 14.1882 186.471 13.6433 187.748 12.9288C189.01 12.2393 190.182 11.3956 191.236 10.4171L193.193 10.8698V36.5274L198.506 36.8925V38.8201H184.478V36.9363L189.908 36.5712L189.937 14.9003Z" fill="#282828"/>
</g>
<g style="mix-blend-mode:overlay">
<path d="M211.338 14.9003C210.457 15.2944 209.55 15.6262 208.623 15.8933C207.602 16.2257 206.558 16.4796 205.499 16.6526L205.104 14.5498C207.914 13.805 210.499 12.3865 212.637 10.4171L214.578 10.8698V36.5274L219.892 36.8925V38.8201H205.864V36.9363L211.294 36.5712L211.338 14.9003Z" fill="#282828"/>
</g>
<g style="mix-blend-mode:overlay">
<path d="M383.475 35.0963C381.766 31.9673 380.924 28.438 381.037 24.8741C381 22.3123 381.497 19.7708 382.497 17.412C383.3 15.4172 384.62 13.6729 386.322 12.3593C387.852 11.1911 389.725 10.5598 391.65 10.5631C393.145 10.4374 394.647 10.7266 395.988 11.399C397.33 12.0715 398.461 13.101 399.255 14.3745C400.931 17.5112 401.723 21.0445 401.547 24.5967C401.584 27.1724 401.123 29.7309 400.19 32.1319C399.425 34.1813 398.143 35.9976 396.467 37.4036C394.964 38.6457 393.074 39.3224 391.125 39.3166C389.582 39.4018 388.047 39.0513 386.694 38.305C385.342 37.5587 384.226 36.4467 383.475 35.0963ZM396.336 33.928C397.552 31.0813 398.106 27.9955 397.956 24.9034C397.956 16.6867 395.767 12.5735 391.387 12.5637C390.32 12.5206 389.264 12.7908 388.348 13.3409C387.432 13.8909 386.698 14.6969 386.234 15.6596C384.994 18.3556 384.423 21.3113 384.57 24.2754C384.479 27.4143 385.025 30.5392 386.176 33.4607C386.515 34.5344 387.187 35.4717 388.096 36.1362C389.004 36.8008 390.101 37.1578 391.227 37.1553C392.304 37.1921 393.367 36.9039 394.278 36.3284C395.189 35.7529 395.906 34.9166 396.336 33.928Z" fill="#282828"/>
</g>
<g style="mix-blend-mode:overlay">
<path d="M416.043 14.9003C415.156 15.2914 414.244 15.6231 413.313 15.8933C412.297 16.2239 411.258 16.4777 410.204 16.6526L409.795 14.5498C411.211 14.1857 412.575 13.6409 413.853 12.9288C415.116 12.2393 416.287 11.3956 417.342 10.4171L419.298 10.8698V36.5274L424.685 36.9363V38.8639H410.642V36.9363L416.087 36.5712L416.043 14.9003Z" fill="#282828"/>
</g>
<g style="mix-blend-mode:overlay">
<path d="M434.654 35.0963C432.938 31.97 432.096 28.4388 432.216 24.8742C432.179 22.3123 432.676 19.7708 433.676 17.412C434.484 15.4162 435.809 13.6721 437.515 12.3594C439.046 11.1911 440.918 10.5598 442.844 10.5632C444.339 10.4391 445.839 10.729 447.181 11.4013C448.522 12.0736 449.653 13.1022 450.449 14.3745C452.118 17.5138 452.91 21.0452 452.741 24.5967C452.777 27.1724 452.316 29.7309 451.383 32.1319C450.614 34.1826 449.326 35.9989 447.646 37.4036C446.679 38.1835 445.556 38.7485 444.354 39.0612C443.151 39.3738 441.896 39.427 440.671 39.217C439.447 39.0071 438.281 38.5389 437.251 37.8435C436.221 37.1482 435.351 36.2416 434.698 35.1839L434.654 35.0963ZM447.5 33.9281C448.716 31.0814 449.271 27.9956 449.121 24.9034C449.121 16.6867 446.931 12.5735 442.552 12.5638C441.485 12.5225 440.429 12.7935 439.514 13.3433C438.599 13.8932 437.863 14.6982 437.399 15.6596C436.171 18.3593 435.606 21.3131 435.749 24.2754C435.653 27.4133 436.195 30.5381 437.34 33.4608C437.681 34.5332 438.354 35.4692 439.262 36.1334C440.17 36.7977 441.266 37.1556 442.391 37.1554C443.468 37.1921 444.531 36.904 445.442 36.3285C446.353 35.7529 447.07 34.9166 447.5 33.9281Z" fill="#282828"/>
</g>
<g style="mix-blend-mode:overlay">
<path d="M467.208 14.9003C466.325 15.2895 465.418 15.6212 464.493 15.8933C463.472 16.2241 462.428 16.4779 461.369 16.6526L460.96 14.5498C463.775 13.81 466.367 12.391 468.507 10.4171L470.449 10.8698V36.5274L475.777 36.9363V38.8639H461.748V36.9363L467.179 36.5712L467.208 14.9003Z" fill="#282828"/>
</g>
<g style="mix-blend-mode:overlay">
<g style="mix-blend-mode:color-dodge">
<g style="mix-blend-mode:color-dodge">
<path d="M6.64733 14.9003C5.7646 15.2895 4.85765 15.6212 3.93214 15.8933C2.91171 16.2257 1.86736 16.4796 0.808209 16.6526L0.414062 14.5498C3.22327 13.805 5.80871 12.3865 7.94653 10.4171L9.88804 10.8698V36.5274L15.2016 36.8925V38.8201H1.17315V36.9363L6.60353 36.5712L6.64733 14.9003Z" fill="#282828"/>
</g>
<g style="mix-blend-mode:color-dodge">
<path d="M68.0895 35.0963C66.3802 31.9674 65.5385 28.4381 65.6517 24.8742C65.6145 22.3123 66.1116 19.7708 67.1115 17.412C67.9242 15.419 69.2485 13.676 70.9507 12.3594C72.4811 11.1911 74.3538 10.5598 76.2789 10.5632C77.7741 10.4391 79.2747 10.729 80.6162 11.4013C81.9577 12.0736 83.0883 13.1022 83.8843 14.3745C85.5531 17.5138 86.3449 21.0452 86.1762 24.5967C86.2124 27.1724 85.7515 29.7309 84.8186 32.1319C84.0491 34.1826 82.7616 35.9989 81.0815 37.4036C80.114 38.1835 78.9917 38.7485 77.7892 39.0612C76.5866 39.3738 75.3313 39.427 74.1067 39.217C72.882 39.0071 71.716 38.5389 70.6861 37.8435C69.6563 37.1482 68.786 36.2416 68.1333 35.1839L68.0895 35.0963ZM80.9356 33.9281C82.1518 31.0814 82.7058 27.9956 82.5559 24.9034C82.5559 16.6867 80.3663 12.5735 75.9869 12.5638C74.9218 12.5217 73.8677 12.7924 72.9546 13.3425C72.0415 13.8927 71.3094 14.6981 70.8485 15.6596C69.6084 18.3556 69.0375 21.3113 69.1843 24.2754C69.0885 27.4133 69.6298 30.5381 70.7755 33.4608C71.1184 34.532 71.7921 35.4667 72.6997 36.1306C73.6073 36.7945 74.702 37.1533 75.8263 37.1554C76.9033 37.1921 77.9664 36.904 78.8775 36.3285C79.7887 35.7529 80.5058 34.9166 80.9356 33.9281Z" fill="#282828"/>
</g>
<g style="mix-blend-mode:color-dodge">
<path d="M97.8544 35.0964C96.1383 31.97 95.2962 28.4388 95.4166 24.8742C95.3794 22.3124 95.8765 19.7709 96.8764 17.4121C97.6842 15.4163 99.0094 13.6721 100.716 12.3594C102.246 11.1912 104.119 10.5599 106.044 10.5632C107.539 10.4408 109.039 10.7314 110.38 11.4036C111.721 12.0757 112.852 13.1034 113.649 14.3746C115.318 17.5139 116.11 21.0452 115.941 24.5968C115.977 27.1725 115.516 29.731 114.583 32.1319C113.814 34.1827 112.527 35.999 110.846 37.4037C109.879 38.1836 108.757 38.7486 107.554 39.0612C106.352 39.3739 105.096 39.427 103.872 39.2171C102.647 39.0071 101.481 38.5389 100.451 37.8436C99.4212 37.1482 98.5509 36.2416 97.8982 35.184L97.8544 35.0964ZM110.7 33.9281C111.917 31.0814 112.471 27.9956 112.321 24.9034C112.321 16.6868 110.131 12.5736 105.752 12.5638C104.685 12.5226 103.629 12.7935 102.714 13.3434C101.799 13.8933 101.064 14.6982 100.599 15.6597C99.3643 18.3571 98.7984 21.3126 98.9492 24.2755C98.8534 27.4134 99.3947 30.5381 100.54 33.4608C100.881 34.5332 101.554 35.4693 102.463 36.1335C103.371 36.7977 104.466 37.1556 105.591 37.1554C106.668 37.1922 107.731 36.904 108.642 36.3285C109.554 35.753 110.271 34.9166 110.7 33.9281Z" fill="#282828"/>
</g>
<g style="mix-blend-mode:color-dodge">
<path d="M157.37 35.0963C155.665 31.966 154.829 28.4367 154.946 24.8741C154.909 22.3123 155.406 19.7708 156.406 17.412C157.214 15.42 158.533 13.6769 160.231 12.3593C161.765 11.1881 163.644 10.5566 165.574 10.5631C167.067 10.4385 168.566 10.7283 169.905 11.4008C171.244 12.0732 172.372 13.1022 173.165 14.3745C174.84 17.5112 175.632 21.0445 175.456 24.5967C175.493 27.1724 175.032 29.7309 174.099 32.1319C173.334 34.1813 172.052 35.9976 170.376 37.4036C168.878 38.6446 166.993 39.3215 165.048 39.3166C163.501 39.4075 161.96 39.0596 160.601 38.313C159.243 37.5664 158.123 36.4514 157.37 35.0963ZM170.23 33.9281C171.447 31.0814 172.001 27.9955 171.851 24.9034C171.851 16.6867 169.661 12.5735 165.282 12.5637C164.215 12.5225 163.159 12.7935 162.244 13.3433C161.329 13.8932 160.594 14.6981 160.129 15.6596C158.889 18.3556 158.318 21.3113 158.465 24.2754C158.373 27.4143 158.919 30.5392 160.07 33.4608C160.409 34.5344 161.082 35.4717 161.99 36.1363C162.899 36.8008 163.996 37.1578 165.121 37.1553C166.198 37.1921 167.261 36.904 168.172 36.3284C169.083 35.7529 169.801 34.9166 170.23 33.9281Z" fill="#282828"/>
</g>
<g style="mix-blend-mode:color-dodge">
<path d="M189.937 14.9003C189.055 15.2895 188.148 15.6212 187.222 15.8933C186.201 16.2226 185.157 16.4764 184.098 16.6526L183.689 14.5498C185.107 14.1882 186.471 13.6433 187.748 12.9288C189.01 12.2393 190.182 11.3956 191.236 10.4171L193.193 10.8698V36.5274L198.506 36.8925V38.8201H184.478V36.9363L189.908 36.5712L189.937 14.9003Z" fill="#282828"/>
</g>
<g style="mix-blend-mode:color-dodge">
<path d="M211.338 14.9003C210.457 15.2944 209.55 15.6262 208.623 15.8933C207.602 16.2257 206.558 16.4796 205.499 16.6526L205.104 14.5498C207.914 13.805 210.499 12.3865 212.637 10.4171L214.578 10.8698V36.5274L219.892 36.8925V38.8201H205.864V36.9363L211.294 36.5712L211.338 14.9003Z" fill="#282828"/>
</g>
<g style="mix-blend-mode:color-dodge">
<path d="M383.475 35.0963C381.766 31.9673 380.924 28.438 381.037 24.8741C381 22.3123 381.497 19.7708 382.497 17.412C383.3 15.4172 384.62 13.6729 386.322 12.3593C387.852 11.1911 389.725 10.5598 391.65 10.5631C393.145 10.4374 394.647 10.7266 395.988 11.399C397.33 12.0715 398.461 13.101 399.255 14.3745C400.931 17.5112 401.723 21.0445 401.547 24.5967C401.584 27.1724 401.123 29.7309 400.19 32.1319C399.425 34.1813 398.143 35.9976 396.467 37.4036C394.964 38.6457 393.074 39.3224 391.125 39.3166C389.582 39.4018 388.047 39.0513 386.694 38.305C385.342 37.5587 384.226 36.4467 383.475 35.0963ZM396.336 33.928C397.552 31.0813 398.106 27.9955 397.956 24.9034C397.956 16.6867 395.767 12.5735 391.387 12.5637C390.32 12.5206 389.264 12.7908 388.348 13.3409C387.432 13.8909 386.698 14.6969 386.234 15.6596C384.994 18.3556 384.423 21.3113 384.57 24.2754C384.479 27.4143 385.025 30.5392 386.176 33.4607C386.515 34.5344 387.187 35.4717 388.096 36.1362C389.004 36.8008 390.101 37.1578 391.227 37.1553C392.304 37.1921 393.367 36.9039 394.278 36.3284C395.189 35.7529 395.906 34.9166 396.336 33.928Z" fill="#282828"/>
</g>
<g style="mix-blend-mode:color-dodge">
<path d="M416.043 14.9003C415.156 15.2914 414.244 15.6231 413.313 15.8933C412.297 16.2239 411.258 16.4777 410.204 16.6526L409.795 14.5498C411.211 14.1857 412.575 13.6409 413.853 12.9288C415.116 12.2393 416.287 11.3956 417.342 10.4171L419.298 10.8698V36.5274L424.685 36.9363V38.8639H410.642V36.9363L416.087 36.5712L416.043 14.9003Z" fill="#282828"/>
</g>
<g style="mix-blend-mode:color-dodge">
<path d="M434.654 35.0963C432.938 31.97 432.096 28.4388 432.216 24.8742C432.179 22.3123 432.676 19.7708 433.676 17.412C434.484 15.4162 435.809 13.6721 437.515 12.3594C439.046 11.1911 440.918 10.5598 442.844 10.5632C444.339 10.4391 445.839 10.729 447.181 11.4013C448.522 12.0736 449.653 13.1022 450.449 14.3745C452.118 17.5138 452.91 21.0452 452.741 24.5967C452.777 27.1724 452.316 29.7309 451.383 32.1319C450.614 34.1826 449.326 35.9989 447.646 37.4036C446.679 38.1835 445.556 38.7485 444.354 39.0612C443.151 39.3738 441.896 39.427 440.671 39.217C439.447 39.0071 438.281 38.5389 437.251 37.8435C436.221 37.1482 435.351 36.2416 434.698 35.1839L434.654 35.0963ZM447.5 33.9281C448.716 31.0814 449.271 27.9956 449.121 24.9034C449.121 16.6867 446.931 12.5735 442.552 12.5638C441.485 12.5225 440.429 12.7935 439.514 13.3433C438.599 13.8932 437.863 14.6982 437.399 15.6596C436.171 18.3593 435.606 21.3131 435.749 24.2754C435.653 27.4133 436.195 30.5381 437.34 33.4608C437.681 34.5332 438.354 35.4692 439.262 36.1334C440.17 36.7977 441.266 37.1556 442.391 37.1554C443.468 37.1921 444.531 36.904 445.442 36.3285C446.353 35.7529 447.07 34.9166 447.5 33.9281Z" fill="#282828"/>
</g>
<g style="mix-blend-mode:color-dodge">
<path d="M467.208 14.9003C466.325 15.2895 465.418 15.6212 464.493 15.8933C463.472 16.2241 462.428 16.4779 461.369 16.6526L460.96 14.5498C463.775 13.81 466.367 12.391 468.507 10.4171L470.449 10.8698V36.5274L475.777 36.9363V38.8639H461.748V36.9363L467.179 36.5712L467.208 14.9003Z" fill="#282828"/>
</g>
</g>
</g>
</g>
<g style="mix-blend-mode:overlay" opacity="0.1">
<g style="mix-blend-mode:overlay">
<path d="M692.846 125.548C691.963 125.933 691.056 126.26 690.13 126.526C689.11 126.863 688.066 127.121 687.006 127.3L686.612 125.183C688.027 124.833 689.387 124.293 690.656 123.576C691.92 122.889 693.092 122.045 694.145 121.065L696.086 121.503V147.175L701.4 147.526V149.468H687.444V147.526L692.875 147.175L692.846 125.548Z" fill="#282828"/>
</g>
<g style="mix-blend-mode:overlay">
<path d="M735.617 125.548C734.733 125.931 733.827 126.258 732.902 126.526C731.881 126.859 730.837 127.118 729.778 127.3L729.369 125.183C730.787 124.83 732.152 124.29 733.427 123.576C734.687 122.882 735.858 122.039 736.916 121.065L738.872 121.503V147.175L744.186 147.526V149.468H730.157V147.526L735.588 147.175L735.617 125.548Z" fill="#282828"/>
</g>
<g style="mix-blend-mode:overlay">
<path d="M856.633 145.729C854.921 142.601 854.079 139.071 854.195 135.507C854.165 132.941 854.662 130.397 855.655 128.03C856.472 126.044 857.796 124.306 859.494 122.992C861.025 121.824 862.897 121.193 864.822 121.196C866.318 121.072 867.818 121.362 869.16 122.034C870.501 122.707 871.632 123.735 872.428 125.008C874.104 128.144 874.896 131.678 874.72 135.23C874.757 137.81 874.296 140.374 873.362 142.78C872.594 144.831 871.306 146.647 869.625 148.051C868.657 148.83 867.533 149.395 866.33 149.706C865.127 150.018 863.871 150.07 862.647 149.858C861.422 149.647 860.256 149.177 859.227 148.48C858.198 147.784 857.328 146.876 856.677 145.817L856.633 145.729ZM869.479 144.576C870.693 141.728 871.247 138.643 871.099 135.551C871.099 127.334 868.91 123.221 864.53 123.211C863.466 123.171 862.412 123.443 861.5 123.993C860.587 124.543 859.854 125.347 859.392 126.307C858.15 129.003 857.579 131.959 857.728 134.923C857.632 138.056 858.173 141.176 859.319 144.094C859.659 145.154 860.314 146.085 861.197 146.762C862.08 147.439 863.149 147.83 864.261 147.883C865.373 147.935 866.474 147.646 867.417 147.055C868.36 146.464 869.1 145.599 869.537 144.576H869.479Z" fill="#282828"/>
</g>
<g style="mix-blend-mode:overlay">
<path d="M889.185 125.548C888.302 125.931 887.395 126.258 886.47 126.526C885.45 126.863 884.406 127.121 883.346 127.3L882.952 125.183C884.367 124.833 885.727 124.293 886.996 123.576C888.26 122.889 889.432 122.045 890.485 121.065L892.426 121.503V147.175L897.74 147.526V149.468H883.711V147.526L889.142 147.175L889.185 125.548Z" fill="#282828"/>
</g>
<g style="mix-blend-mode:overlay">
<path d="M937.563 145.729C935.856 142.6 935.019 139.07 935.139 135.507C935.102 132.941 935.599 130.394 936.599 128.03C937.411 126.045 938.729 124.307 940.424 122.992C941.958 121.821 943.836 121.19 945.767 121.196C947.26 121.072 948.759 121.361 950.098 122.034C951.437 122.706 952.565 123.735 953.357 125.008C955.034 128.144 955.826 131.677 955.649 135.23C955.687 137.81 955.226 140.374 954.292 142.78C953.523 144.827 952.242 146.643 950.569 148.051C949.065 149.29 947.175 149.962 945.226 149.95C943.681 150.041 942.141 149.693 940.785 148.947C939.429 148.2 938.312 147.084 937.563 145.729ZM950.423 144.576C951.637 141.728 952.191 138.643 952.044 135.551C952.044 127.334 949.854 123.221 945.475 123.211C944.408 123.17 943.352 123.441 942.437 123.991C941.522 124.541 940.786 125.346 940.322 126.307C939.08 129.003 938.509 131.959 938.657 134.923C938.566 138.057 939.112 141.177 940.263 144.094C940.601 145.169 941.274 146.108 942.182 146.775C943.09 147.442 944.187 147.802 945.314 147.803C946.391 147.84 947.454 147.552 948.365 146.976C949.276 146.401 949.993 145.564 950.423 144.576Z" fill="#282828"/>
</g>
<g style="mix-blend-mode:overlay">
<path d="M999.837 125.548C998.949 125.933 998.037 126.26 997.107 126.526C996.091 126.861 995.052 127.119 993.998 127.3L993.589 125.183C995.007 124.83 996.372 124.29 997.647 123.576C998.904 122.886 1000.07 122.042 1001.12 121.065L1003.08 121.503V147.175L1008.39 147.526V149.468H994.348V147.526L999.793 147.175L999.837 125.548Z" fill="#282828"/>
</g>
<g style="mix-blend-mode:overlay">
<g style="mix-blend-mode:color-dodge">
<g style="mix-blend-mode:color-dodge">
<path d="M692.846 125.548C691.963 125.933 691.056 126.26 690.13 126.526C689.11 126.863 688.066 127.121 687.006 127.3L686.612 125.183C688.027 124.833 689.387 124.293 690.656 123.576C691.92 122.889 693.092 122.045 694.145 121.065L696.086 121.503V147.175L701.4 147.526V149.468H687.444V147.526L692.875 147.175L692.846 125.548Z" fill="#282828"/>
</g>
<g style="mix-blend-mode:color-dodge">
<path d="M735.617 125.548C734.733 125.931 733.827 126.258 732.902 126.526C731.881 126.859 730.837 127.118 729.778 127.3L729.369 125.183C730.787 124.83 732.152 124.29 733.427 123.576C734.687 122.882 735.858 122.039 736.916 121.065L738.872 121.503V147.175L744.186 147.526V149.468H730.157V147.526L735.588 147.175L735.617 125.548Z" fill="#282828"/>
</g>
<g style="mix-blend-mode:color-dodge">
<path d="M856.633 145.729C854.921 142.601 854.079 139.071 854.195 135.507C854.165 132.941 854.662 130.397 855.655 128.03C856.472 126.044 857.796 124.306 859.494 122.992C861.025 121.824 862.897 121.193 864.822 121.196C866.318 121.072 867.818 121.362 869.16 122.034C870.501 122.707 871.632 123.735 872.428 125.008C874.104 128.144 874.896 131.678 874.72 135.23C874.757 137.81 874.296 140.374 873.362 142.78C872.594 144.831 871.306 146.647 869.625 148.051C868.657 148.83 867.533 149.395 866.33 149.706C865.127 150.018 863.871 150.07 862.647 149.858C861.422 149.647 860.256 149.177 859.227 148.48C858.198 147.784 857.328 146.876 856.677 145.817L856.633 145.729ZM869.479 144.576C870.693 141.728 871.247 138.643 871.099 135.551C871.099 127.334 868.91 123.221 864.53 123.211C863.466 123.171 862.412 123.443 861.5 123.993C860.587 124.543 859.854 125.347 859.392 126.307C858.15 129.003 857.579 131.959 857.728 134.923C857.632 138.056 858.173 141.176 859.319 144.094C859.659 145.154 860.314 146.085 861.197 146.762C862.08 147.439 863.149 147.83 864.261 147.883C865.373 147.935 866.474 147.646 867.417 147.055C868.36 146.464 869.1 145.599 869.537 144.576H869.479Z" fill="#282828"/>
</g>
<g style="mix-blend-mode:color-dodge">
<path d="M889.185 125.548C888.302 125.931 887.395 126.258 886.47 126.526C885.45 126.863 884.406 127.121 883.346 127.3L882.952 125.183C884.367 124.833 885.727 124.293 886.996 123.576C888.26 122.889 889.432 122.045 890.485 121.065L892.426 121.503V147.175L897.74 147.526V149.468H883.711V147.526L889.142 147.175L889.185 125.548Z" fill="#282828"/>
</g>
<g style="mix-blend-mode:color-dodge">
<path d="M937.563 145.729C935.856 142.6 935.019 139.07 935.139 135.507C935.102 132.941 935.599 130.394 936.599 128.03C937.411 126.045 938.729 124.307 940.424 122.992C941.958 121.821 943.836 121.19 945.767 121.196C947.26 121.072 948.759 121.361 950.098 122.034C951.437 122.706 952.565 123.735 953.357 125.008C955.034 128.144 955.826 131.677 955.649 135.23C955.687 137.81 955.226 140.374 954.292 142.78C953.523 144.827 952.242 146.643 950.569 148.051C949.065 149.29 947.175 149.962 945.226 149.95C943.681 150.041 942.141 149.693 940.785 148.947C939.429 148.2 938.312 147.084 937.563 145.729ZM950.423 144.576C951.637 141.728 952.191 138.643 952.044 135.551C952.044 127.334 949.854 123.221 945.475 123.211C944.408 123.17 943.352 123.441 942.437 123.991C941.522 124.541 940.786 125.346 940.322 126.307C939.08 129.003 938.509 131.959 938.657 134.923C938.566 138.057 939.112 141.177 940.263 144.094C940.601 145.169 941.274 146.108 942.182 146.775C943.09 147.442 944.187 147.802 945.314 147.803C946.391 147.84 947.454 147.552 948.365 146.976C949.276 146.401 949.993 145.564 950.423 144.576Z" fill="#282828"/>
</g>
<g style="mix-blend-mode:color-dodge">
<path d="M999.837 125.548C998.949 125.933 998.037 126.26 997.107 126.526C996.091 126.861 995.052 127.119 993.998 127.3L993.589 125.183C995.007 124.83 996.372 124.29 997.647 123.576C998.904 122.886 1000.07 122.042 1001.12 121.065L1003.08 121.503V147.175L1008.39 147.526V149.468H994.348V147.526L999.793 147.175L999.837 125.548Z" fill="#282828"/>
</g>
</g>
</g>
</g>
<g style="mix-blend-mode:overlay" opacity="0.1">
<g style="mix-blend-mode:overlay">
<path d="M1061.32 19.4125C1059.82 19.423 1058.37 18.9062 1057.21 17.9522C1055.9 16.8721 1054.9 15.474 1054.29 13.8925C1053.48 11.6828 1053.13 9.33378 1053.26 6.98554C1053.38 4.63729 1053.97 2.33779 1055 0.224035C1055.62 -0.748258 1056.49 -1.53407 1057.52 -2.04874C1058.54 -2.56341 1059.69 -2.78741 1060.84 -2.69658C1062.32 -2.70524 1063.77 -2.22251 1064.94 -1.32389C1066.24 -0.301377 1067.25 1.04286 1067.86 2.57515C1068.62 4.3964 1069 6.35573 1068.96 8.32877C1069.06 11.0933 1068.4 13.8329 1067.07 16.2582C1066.49 17.259 1065.65 18.0819 1064.64 18.6379C1063.62 19.1939 1062.48 19.4618 1061.32 19.4125ZM1061.22 17.8208C1062.1 17.8166 1062.95 17.5304 1063.65 17.0045C1064.35 16.4786 1064.87 15.7408 1065.12 14.9002C1066 12.6513 1066.42 10.2469 1066.34 7.83227C1066.46 5.54781 1066.02 3.26946 1065.07 1.18784C1064.7 0.485223 1064.13 -0.0959616 1063.43 -0.488694C1062.74 -0.881426 1061.94 -1.06969 1061.15 -1.03181C1057.76 -1.03181 1056.08 2.13707 1056.08 8.47481C1055.97 10.8558 1056.39 13.2323 1057.32 15.4258C1057.66 16.1689 1058.21 16.7954 1058.91 17.2267C1059.6 17.6579 1060.4 17.8747 1061.22 17.85V17.8208Z" fill="#282828"/>
</g>
<g style="mix-blend-mode:overlay">
<path d="M1015.43 19.4126C1013.93 19.4222 1012.48 18.9053 1011.33 17.9523C1010.01 16.8806 1009 15.48 1008.41 13.8927C1007.68 12.0323 1007.32 10.0483 1007.36 8.05143C1007.22 5.32107 1007.83 2.60606 1009.12 0.194965C1009.73 -0.779617 1010.6 -1.56725 1011.63 -2.08222C1012.66 -2.59719 1013.81 -2.81975 1014.96 -2.72565C1016.45 -2.73424 1017.89 -2.25169 1019.08 -1.35296C1020.37 -0.330927 1021.38 1.01346 1022 2.54608C1022.76 4.36733 1023.13 6.32666 1023.09 8.2997C1023.19 11.0622 1022.54 13.7998 1021.22 16.2292C1020.64 17.241 1019.79 18.0734 1018.77 18.6349C1017.75 19.1965 1016.59 19.4656 1015.43 19.4126ZM1015.34 17.8209C1016.22 17.8159 1017.07 17.5292 1017.76 17.0032C1018.46 16.4771 1018.98 15.7398 1019.22 14.9003C1020.12 12.6545 1020.54 10.2486 1020.46 7.83239C1020.58 5.54621 1020.14 3.26604 1019.18 1.18796C1018.82 0.44604 1018.26 -0.174957 1017.55 -0.598071C1016.85 -1.02118 1016.03 -1.22778 1015.21 -1.1923C1011.84 -1.1923 1010.15 1.97654 1010.14 8.31428C1010.03 10.6964 1010.46 13.0731 1011.4 15.2654C1011.71 16.0468 1012.26 16.7131 1012.97 17.1751C1013.67 17.6371 1014.5 17.8726 1015.34 17.8501V17.8209Z" fill="#282828"/>
</g>
<g style="mix-blend-mode:overlay">
<path d="M996.202 17.3681L1000.39 17.631V19.0913H989.618V17.631L993.72 17.3681V-2.41907L995.18 -2.76953C995.988 -2.0087 996.89 -1.35582 997.866 -0.827296C998.848 -0.276596 999.898 0.140795 1000.99 0.41393L1000.68 2.0349C999.865 1.91128 999.059 1.71583 998.275 1.45078C997.56 1.23788 996.858 0.984322 996.173 0.691392L996.202 17.3681Z" fill="#282828"/>
</g>
<g style="mix-blend-mode:overlay">
<path d="M979.707 17.3681L983.896 17.631V19.0913H973.079V17.631L977.166 17.3681V-2.41907L978.626 -2.76953C979.439 -2.01539 980.341 -1.36315 981.312 -0.827296C982.295 -0.278912 983.345 0.138354 984.436 0.41393L984.13 2.0349C983.312 1.90802 982.506 1.71264 981.721 1.45078C981.011 1.23846 980.314 0.984882 979.633 0.691392L979.707 17.3681Z" fill="#282828"/>
</g>
<g style="mix-blend-mode:overlay">
<path d="M841.13 19.4126C839.634 19.4221 838.182 18.9052 837.028 17.9523C835.714 16.8806 834.707 15.4799 834.109 13.8926C833.382 12.0323 833.025 10.0483 833.058 8.05138C832.926 5.32102 833.536 2.60601 834.824 0.194914C835.436 -0.780819 836.304 -1.56938 837.334 -2.0845C838.364 -2.59962 839.516 -2.82145 840.663 -2.7257C842.149 -2.73429 843.596 -2.25174 844.78 -1.35301C846.077 -0.330977 847.083 1.01341 847.699 2.54603C848.459 4.36728 848.832 6.3266 848.794 8.29965C848.889 11.0622 848.244 13.7998 846.925 16.2291C846.345 17.241 845.497 18.0733 844.475 18.6349C843.452 19.1964 842.295 19.4655 841.13 19.4126ZM841.043 17.8208C841.918 17.8159 842.768 17.5292 843.467 17.0031C844.166 16.4771 844.678 15.7397 844.926 14.9002C845.82 12.6544 846.242 10.2485 846.166 7.83234C846.282 5.54616 845.841 3.26599 844.882 1.18791C844.525 0.44599 843.959 -0.175007 843.253 -0.598121C842.548 -1.02123 841.733 -1.22783 840.911 -1.19235C837.544 -1.19235 835.855 1.97649 835.846 8.31422C835.733 10.6964 836.163 13.073 837.101 15.2653C837.416 16.0467 837.963 16.7131 838.667 17.1751C839.372 17.637 840.2 17.8725 841.043 17.85V17.8208Z" fill="#282828"/>
</g>
<g style="mix-blend-mode:overlay">
<path d="M821.905 17.3681L826.094 17.631V19.0913H815.277V17.631L819.379 17.3681V-2.41907L820.839 -2.76953C821.647 -2.0087 822.55 -1.35582 823.525 -0.827296C824.507 -0.276596 825.557 0.140795 826.649 0.41393L826.342 2.0349C825.524 1.91128 824.718 1.71583 823.934 1.45078C823.219 1.23788 822.517 0.984322 821.832 0.691392L821.905 17.3681Z" fill="#282828"/>
</g>
<g style="mix-blend-mode:overlay">
<path d="M801.686 19.4125C800.186 19.4205 798.73 18.904 797.57 17.9522C796.264 16.8721 795.259 15.474 794.65 13.8925C793.847 11.6828 793.496 9.33378 793.619 6.98554C793.742 4.63729 794.336 2.33779 795.366 0.224035C795.981 -0.748258 796.85 -1.53407 797.879 -2.04874C798.908 -2.56341 800.058 -2.78741 801.205 -2.69658C802.691 -2.70517 804.138 -2.22261 805.321 -1.32389C806.618 -0.301857 807.625 1.04253 808.241 2.57515C809 4.3964 809.373 6.35572 809.336 8.32877C809.433 11.0933 808.782 13.8329 807.453 16.2582C806.873 17.2623 806.028 18.0877 805.011 18.644C803.994 19.2003 802.844 19.4661 801.686 19.4125ZM801.584 17.8208C802.462 17.8189 803.315 17.5336 804.017 17.0074C804.72 16.4811 805.233 15.742 805.482 14.9002C806.369 12.6524 806.791 10.248 806.723 7.83227C806.832 5.54658 806.391 3.26805 805.438 1.18784C805.08 0.447112 804.514 -0.172796 803.808 -0.595695C803.103 -1.01859 802.289 -1.226 801.467 -1.19242C798.09 -1.19242 796.402 1.97642 796.402 8.31415C796.283 10.6968 796.712 13.0751 797.657 15.2652C797.972 16.0443 798.516 16.709 799.217 17.1707C799.919 17.6325 800.745 17.8695 801.584 17.85V17.8208Z" fill="#282828"/>
</g>
<g style="mix-blend-mode:overlay">
<path d="M782.461 17.3681L786.651 17.631V19.0913H775.834V17.631L779.921 17.3681V-2.41907L781.381 -2.76953C782.197 -2.01198 783.104 -1.35948 784.082 -0.827296C785.062 -0.274199 786.113 0.143323 787.206 0.41393L786.885 2.0349C786.067 1.90802 785.261 1.71264 784.476 1.45078C783.767 1.23592 783.07 0.982396 782.388 0.691392L782.461 17.3681Z" fill="#282828"/>
</g>
<g style="mix-blend-mode:overlay" opacity="0.1">
<g style="mix-blend-mode:color-dodge" >
<g style="mix-blend-mode:color-dodge">
<path d="M1061.32 19.4125C1059.82 19.423 1058.37 18.9062 1057.21 17.9522C1055.9 16.8721 1054.9 15.474 1054.29 13.8925C1053.48 11.6828 1053.13 9.33378 1053.26 6.98554C1053.38 4.63729 1053.97 2.33779 1055 0.224035C1055.62 -0.748258 1056.49 -1.53407 1057.52 -2.04874C1058.54 -2.56341 1059.69 -2.78741 1060.84 -2.69658C1062.32 -2.70524 1063.77 -2.22251 1064.94 -1.32389C1066.24 -0.301377 1067.25 1.04286 1067.86 2.57515C1068.62 4.3964 1069 6.35573 1068.96 8.32877C1069.06 11.0933 1068.4 13.8329 1067.07 16.2582C1066.49 17.259 1065.65 18.0819 1064.64 18.6379C1063.62 19.1939 1062.48 19.4618 1061.32 19.4125ZM1061.22 17.8208C1062.1 17.8166 1062.95 17.5304 1063.65 17.0045C1064.35 16.4786 1064.87 15.7408 1065.12 14.9002C1066 12.6513 1066.42 10.2469 1066.34 7.83227C1066.46 5.54781 1066.02 3.26946 1065.07 1.18784C1064.7 0.485223 1064.13 -0.0959616 1063.43 -0.488694C1062.74 -0.881426 1061.94 -1.06969 1061.15 -1.03181C1057.76 -1.03181 1056.08 2.13707 1056.08 8.47481C1055.97 10.8558 1056.39 13.2323 1057.32 15.4258C1057.66 16.1689 1058.21 16.7954 1058.91 17.2267C1059.6 17.6579 1060.4 17.8747 1061.22 17.85V17.8208Z" fill="#282828"/>
</g>
<g style="mix-blend-mode:color-dodge" >
<path d="M1015.43 19.4126C1013.93 19.4222 1012.48 18.9053 1011.33 17.9523C1010.01 16.8806 1009 15.48 1008.41 13.8927C1007.68 12.0323 1007.32 10.0483 1007.36 8.05143C1007.22 5.32107 1007.83 2.60606 1009.12 0.194965C1009.73 -0.779617 1010.6 -1.56725 1011.63 -2.08222C1012.66 -2.59719 1013.81 -2.81975 1014.96 -2.72565C1016.45 -2.73424 1017.89 -2.25169 1019.08 -1.35296C1020.37 -0.330927 1021.38 1.01346 1022 2.54608C1022.76 4.36733 1023.13 6.32666 1023.09 8.2997C1023.19 11.0622 1022.54 13.7998 1021.22 16.2292C1020.64 17.241 1019.79 18.0734 1018.77 18.6349C1017.75 19.1965 1016.59 19.4656 1015.43 19.4126ZM1015.34 17.8209C1016.22 17.8159 1017.07 17.5292 1017.76 17.0032C1018.46 16.4771 1018.98 15.7398 1019.22 14.9003C1020.12 12.6545 1020.54 10.2486 1020.46 7.83239C1020.58 5.54621 1020.14 3.26604 1019.18 1.18796C1018.82 0.44604 1018.26 -0.174957 1017.55 -0.598071C1016.85 -1.02118 1016.03 -1.22778 1015.21 -1.1923C1011.84 -1.1923 1010.15 1.97654 1010.14 8.31428C1010.03 10.6964 1010.46 13.0731 1011.4 15.2654C1011.71 16.0468 1012.26 16.7131 1012.97 17.1751C1013.67 17.6371 1014.5 17.8726 1015.34 17.8501V17.8209Z" fill="#282828"/>
</g>
<g style="mix-blend-mode:color-dodge">
<path d="M996.202 17.3681L1000.39 17.631V19.0913H989.618V17.631L993.72 17.3681V-2.41907L995.18 -2.76953C995.988 -2.0087 996.89 -1.35582 997.866 -0.827296C998.848 -0.276596 999.898 0.140795 1000.99 0.41393L1000.68 2.0349C999.865 1.91128 999.059 1.71583 998.275 1.45078C997.56 1.23788 996.858 0.984322 996.173 0.691392L996.202 17.3681Z" fill="#282828"/>
</g>
<g style="mix-blend-mode:color-dodge">
<path d="M979.707 17.3681L983.896 17.631V19.0913H973.079V17.631L977.166 17.3681V-2.41907L978.626 -2.76953C979.439 -2.01539 980.341 -1.36315 981.312 -0.827296C982.295 -0.278912 983.345 0.138354 984.436 0.41393L984.13 2.0349C983.312 1.90802 982.506 1.71264 981.721 1.45078C981.011 1.23846 980.314 0.984882 979.633 0.691392L979.707 17.3681Z" fill="#282828"/>
</g>
<g style="mix-blend-mode:color-dodge">
<path d="M841.13 19.4126C839.634 19.4221 838.182 18.9052 837.028 17.9523C835.714 16.8806 834.707 15.4799 834.109 13.8926C833.382 12.0323 833.025 10.0483 833.058 8.05138C832.926 5.32102 833.536 2.60601 834.824 0.194914C835.436 -0.780819 836.304 -1.56938 837.334 -2.0845C838.364 -2.59962 839.516 -2.82145 840.663 -2.7257C842.149 -2.73429 843.596 -2.25174 844.78 -1.35301C846.077 -0.330977 847.083 1.01341 847.699 2.54603C848.459 4.36728 848.832 6.3266 848.794 8.29965C848.889 11.0622 848.244 13.7998 846.925 16.2291C846.345 17.241 845.497 18.0733 844.475 18.6349C843.452 19.1964 842.295 19.4655 841.13 19.4126ZM841.043 17.8208C841.918 17.8159 842.768 17.5292 843.467 17.0031C844.166 16.4771 844.678 15.7397 844.926 14.9002C845.82 12.6544 846.242 10.2485 846.166 7.83234C846.282 5.54616 845.841 3.26599 844.882 1.18791C844.525 0.44599 843.959 -0.175007 843.253 -0.598121C842.548 -1.02123 841.733 -1.22783 840.911 -1.19235C837.544 -1.19235 835.855 1.97649 835.846 8.31422C835.733 10.6964 836.163 13.073 837.101 15.2653C837.416 16.0467 837.963 16.7131 838.667 17.1751C839.372 17.637 840.2 17.8725 841.043 17.85V17.8208Z" fill="#282828"/>
</g>
<g style="mix-blend-mode:color-dodge">
<path d="M821.905 17.3681L826.094 17.631V19.0913H815.277V17.631L819.379 17.3681V-2.41907L820.839 -2.76953C821.647 -2.0087 822.55 -1.35582 823.525 -0.827296C824.507 -0.276596 825.557 0.140795 826.649 0.41393L826.342 2.0349C825.524 1.91128 824.718 1.71583 823.934 1.45078C823.219 1.23788 822.517 0.984322 821.832 0.691392L821.905 17.3681Z" fill="#282828"/>
</g>
<g style="mix-blend-mode:color-dodge">
<path d="M801.686 19.4125C800.186 19.4205 798.73 18.904 797.57 17.9522C796.264 16.8721 795.259 15.474 794.65 13.8925C793.847 11.6828 793.496 9.33378 793.619 6.98554C793.742 4.63729 794.336 2.33779 795.366 0.224035C795.981 -0.748258 796.85 -1.53407 797.879 -2.04874C798.908 -2.56341 800.058 -2.78741 801.205 -2.69658C802.691 -2.70517 804.138 -2.22261 805.321 -1.32389C806.618 -0.301857 807.625 1.04253 808.241 2.57515C809 4.3964 809.373 6.35572 809.336 8.32877C809.433 11.0933 808.782 13.8329 807.453 16.2582C806.873 17.2623 806.028 18.0877 805.011 18.644C803.994 19.2003 802.844 19.4661 801.686 19.4125ZM801.584 17.8208C802.462 17.8189 803.315 17.5336 804.017 17.0074C804.72 16.4811 805.233 15.742 805.482 14.9002C806.369 12.6524 806.791 10.248 806.723 7.83227C806.832 5.54658 806.391 3.26805 805.438 1.18784C805.08 0.447112 804.514 -0.172796 803.808 -0.595695C803.103 -1.01859 802.289 -1.226 801.467 -1.19242C798.09 -1.19242 796.402 1.97642 796.402 8.31415C796.283 10.6968 796.712 13.0751 797.657 15.2652C797.972 16.0443 798.516 16.709 799.217 17.1707C799.919 17.6325 800.745 17.8695 801.584 17.85V17.8208Z" fill="#282828"/>
</g>
<g style="mix-blend-mode:color-dodge">
<path d="M782.461 17.3681L786.651 17.631V19.0913H775.834V17.631L779.921 17.3681V-2.41907L781.381 -2.76953C782.197 -2.01198 783.104 -1.35948 784.082 -0.827296C785.062 -0.274199 786.113 0.143323 787.206 0.41393L786.885 2.0349C786.067 1.90802 785.261 1.71264 784.476 1.45078C783.767 1.23592 783.07 0.982396 782.388 0.691392L782.461 17.3681Z" fill="#282828"/>
</g>
</g>
</g>
</g>
<g style="mix-blend-mode:overlay" opacity="0.1">
<path d="M949.138 77.0072C947.267 77.0169 945.452 76.3653 944.015 75.1672C942.402 73.8147 941.165 72.0695 940.423 70.0999C939.523 67.7727 939.082 65.2933 939.124 62.7984C938.961 59.3976 939.723 56.0162 941.328 53.0143C942.091 51.7914 943.176 50.8023 944.463 50.1557C945.751 49.509 947.192 49.2299 948.627 49.3489C950.479 49.3402 952.281 49.9462 953.751 51.0721C955.411 52.3252 956.706 53.9989 957.503 55.9203C958.456 58.1933 958.924 60.6406 958.875 63.1051C958.991 66.5451 958.184 69.9535 956.539 72.9767C955.811 74.2778 954.729 75.3465 953.42 76.0596C952.11 76.7727 950.626 77.1012 949.138 77.0072ZM949.022 75.0211C950.103 75.0208 951.157 74.6751 952.029 74.0342C952.9 73.3933 953.545 72.4908 953.868 71.458C954.969 68.6715 955.495 65.6912 955.415 62.6962C955.56 59.8515 955.008 57.0144 953.81 54.4308C953.357 53.516 952.648 52.7527 951.77 52.234C950.891 51.7154 949.88 51.4639 948.861 51.5102C944.657 51.5102 942.555 55.4628 942.555 63.3679C942.41 66.3343 942.939 69.2948 944.102 72.0275C944.534 72.9572 945.232 73.7379 946.108 74.2707C946.984 74.8036 947.998 75.0647 949.022 75.0211Z" fill="#282828"/>
</g>
<g style="mix-blend-mode:overlay" opacity="0.1">
<path d="M920.541 77.0072C918.67 77.0169 916.855 76.3653 915.418 75.1672C913.801 73.8188 912.563 72.0723 911.827 70.0999C910.835 67.3452 910.404 64.4203 910.556 61.4965C910.709 58.5728 911.444 55.7089 912.717 53.0727C913.483 51.8532 914.568 50.8669 915.855 50.2207C917.142 49.5745 918.581 49.2933 920.016 49.4073C921.867 49.3986 923.67 50.0046 925.14 51.1305C926.773 52.393 928.042 54.0659 928.818 55.9787C929.765 58.2538 930.232 60.6996 930.191 63.1634C930.309 66.6056 929.497 70.016 927.84 73.0351C927.114 74.3114 926.046 75.3595 924.756 76.0613C923.467 76.7631 922.007 77.0907 920.541 77.0072ZM920.425 75.0211C921.506 75.0208 922.56 74.6751 923.432 74.0342C924.303 73.3933 924.948 72.4908 925.271 71.458C926.366 68.6703 926.888 65.6902 926.804 62.6962C926.949 59.8529 926.403 57.0168 925.213 54.4308C924.76 53.516 924.052 52.7526 923.173 52.234C922.294 51.7154 921.283 51.4639 920.264 51.5102C916.06 51.5102 913.953 55.4628 913.943 63.3679C913.803 66.3354 914.337 69.2961 915.505 72.0275C915.936 72.9584 916.633 73.7402 917.51 74.2733C918.386 74.8064 919.4 75.0667 920.425 75.0211Z" fill="#282828"/>
</g>
<g style="mix-blend-mode:overlay" opacity="0.1">
<path d="M863.333 77.0072C861.461 77.017 859.647 76.3653 858.209 75.1672C856.596 73.818 855.364 72.0714 854.632 70.1C853.719 67.7762 853.272 65.295 853.319 62.7984C853.155 59.3977 853.917 56.0163 855.523 53.0144C856.286 51.7926 857.371 50.8044 858.659 50.1579C859.946 49.5115 861.386 49.2316 862.822 49.349C864.674 49.3358 866.477 49.9423 867.946 51.0721C869.577 52.3396 870.85 54.0106 871.639 55.9204C872.58 58.1965 873.042 60.6423 872.996 63.1051C873.119 66.5459 872.312 69.9562 870.661 72.9768C869.938 74.2662 868.868 75.3273 867.573 76.0397C866.277 76.752 864.808 77.0872 863.333 77.0072ZM863.216 75.0212C864.298 75.0209 865.351 74.6751 866.223 74.0342C867.095 73.3934 867.739 72.4908 868.062 71.4581C869.169 68.6734 869.696 65.6918 869.61 62.6962C869.754 59.8515 869.203 57.0145 868.004 54.4309C867.553 53.5149 866.844 52.7505 865.965 52.2316C865.086 51.7128 864.075 51.4621 863.055 51.5103C858.871 51.4324 856.778 55.3362 856.778 63.2219C856.638 66.1894 857.172 69.1502 858.34 71.8815C858.744 72.8338 859.425 73.6425 860.295 74.2025C861.164 74.7624 862.182 75.0477 863.216 75.0212Z" fill="#282828"/>
</g>
<g style="mix-blend-mode:overlay" opacity="0.1">
<path d="M839.378 74.4078L844.589 74.7582V76.6129H831.115V74.7582L836.21 74.4078V49.7578L838.078 49.3197C839.089 50.2642 840.218 51.074 841.436 51.7292C842.658 52.424 843.97 52.9496 845.333 53.2917L844.939 55.3069C843.918 55.1509 842.912 54.9066 841.932 54.5768C841.045 54.321 840.177 54.0038 839.334 53.6276L839.378 74.4078Z" fill="#282828"/>
</g>
<g style="mix-blend-mode:overlay" opacity="0.1">
<path d="M818.824 74.4078L824.05 74.7582V76.6129H810.562V74.7582L815.671 74.4078V49.7578L817.539 49.3197C818.545 50.2639 819.668 51.0738 820.882 51.7292C822.105 52.424 823.416 52.9496 824.78 53.2917L824.4 55.3069C823.378 55.1528 822.372 54.9084 821.393 54.5768C820.501 54.3204 819.628 54.0033 818.78 53.6276L818.824 74.4078Z" fill="#282828"/>
</g>
<g style="mix-blend-mode:overlay" opacity="0.1">
<path d="M646.06 77.0072C644.193 77.0147 642.384 76.3631 640.951 75.1672C639.334 73.8188 638.096 72.0723 637.36 70.0999C636.363 67.3463 635.928 64.4207 636.081 61.4961C636.234 58.5714 636.971 55.7072 638.25 53.0727C639.016 51.8532 640.101 50.8669 641.388 50.2207C642.675 49.5745 644.114 49.2933 645.549 49.4073C647.4 49.3986 649.203 50.0046 650.673 51.1305C652.306 52.393 653.575 54.0659 654.351 55.9787C655.298 58.2538 655.765 60.6996 655.724 63.1634C655.842 66.6056 655.03 70.016 653.373 73.0351C652.645 74.3126 651.574 75.3612 650.282 76.063C648.99 76.7647 647.528 77.0917 646.06 77.0072ZM645.943 75.0211C647.027 75.0217 648.083 74.6764 648.957 74.0357C649.831 73.3949 650.478 72.4919 650.804 71.458C651.899 68.6703 652.421 65.6902 652.337 62.6962C652.482 59.8529 651.936 57.0168 650.746 54.4308C650.293 53.516 649.585 52.7526 648.706 52.234C647.827 51.7154 646.816 51.4639 645.797 51.5102C641.593 51.5102 639.486 55.4628 639.476 63.3679C639.336 66.3354 639.87 69.2961 641.038 72.0275C641.468 72.9561 642.163 73.7362 643.036 74.2691C643.91 74.802 644.921 75.0637 645.943 75.0211Z" fill="#282828"/>
</g>
<g style="mix-blend-mode:overlay" opacity="0.1">
<path d="M622.104 74.4078L627.33 74.7582V76.6129H613.842V74.7582L618.951 74.4078V49.7578L620.819 49.3197C621.825 50.2639 622.949 51.0738 624.162 51.7292C625.385 52.424 626.696 52.9496 628.06 53.2917L627.666 55.3069C626.649 55.1506 625.648 54.9063 624.673 54.5768C623.781 54.323 622.908 54.0058 622.06 53.6276L622.104 74.4078Z" fill="#282828"/>
</g>
<g style="mix-blend-mode:overlay" opacity="0.1">
<path d="M596.938 77.0072C595.067 77.0169 593.252 76.3653 591.814 75.1672C590.202 73.8147 588.965 72.0695 588.223 70.0999C587.323 67.7727 586.882 65.2933 586.924 62.7984C586.761 59.3976 587.523 56.0162 589.128 53.0143C589.891 51.7914 590.975 50.8023 592.263 50.1557C593.55 49.509 594.991 49.2299 596.427 49.3489C598.279 49.3402 600.081 49.9462 601.551 51.0721C603.182 52.3396 604.455 54.0106 605.244 55.9203C606.186 58.1964 606.648 60.6423 606.602 63.1051C606.725 66.5459 605.918 69.9561 604.266 72.9767C603.543 74.2662 602.473 75.3273 601.178 76.0396C599.883 76.752 598.414 77.0872 596.938 77.0072ZM596.821 75.0211C597.903 75.0208 598.957 74.6751 599.828 74.0342C600.7 73.3933 601.344 72.4908 601.668 71.458C602.775 68.6734 603.301 65.6917 603.215 62.6962C603.359 59.8515 602.808 57.0144 601.609 54.4308C601.157 53.516 600.448 52.7527 599.569 52.234C598.691 51.7154 597.68 51.4639 596.661 51.5102C592.457 51.5102 590.354 55.4628 590.354 63.3679C590.207 66.3359 590.741 69.2982 591.916 72.0275C592.342 72.9502 593.03 73.7266 593.895 74.2592C594.76 74.7918 595.763 75.0569 596.778 75.0211H596.821Z" fill="#282828"/>
</g>
<g style="mix-blend-mode:overlay" opacity="0.1">
<path d="M572.924 74.4078L578.15 74.7582V76.6129H564.662V74.7582L569.771 74.4078V49.7578L571.64 49.3197C572.651 50.2642 573.779 51.074 574.997 51.7292C576.216 52.4213 577.522 52.9468 578.88 53.2917L578.501 55.3069C577.479 55.1509 576.473 54.9066 575.494 54.5768C574.602 54.3204 573.729 54.0033 572.881 53.6276L572.924 74.4078Z" fill="#282828"/>
</g>
<g style="mix-blend-mode:overlay" opacity="0.1">
<g style="mix-blend-mode:color-dodge">
<g style="mix-blend-mode:color-dodge">
<path d="M949.138 77.0072C947.267 77.0169 945.452 76.3653 944.015 75.1672C942.402 73.8147 941.165 72.0695 940.423 70.0999C939.523 67.7727 939.082 65.2933 939.124 62.7984C938.961 59.3976 939.723 56.0162 941.328 53.0143C942.091 51.7914 943.176 50.8023 944.463 50.1557C945.751 49.509 947.192 49.2299 948.627 49.3489C950.479 49.3402 952.281 49.9462 953.751 51.0721C955.411 52.3252 956.706 53.9989 957.503 55.9203C958.456 58.1933 958.924 60.6406 958.875 63.1051C958.991 66.5451 958.184 69.9535 956.539 72.9767C955.811 74.2778 954.729 75.3465 953.42 76.0596C952.11 76.7727 950.626 77.1012 949.138 77.0072ZM949.022 75.0211C950.103 75.0208 951.157 74.6751 952.029 74.0342C952.9 73.3933 953.545 72.4908 953.868 71.458C954.969 68.6715 955.495 65.6912 955.415 62.6962C955.56 59.8515 955.008 57.0144 953.81 54.4308C953.357 53.516 952.648 52.7527 951.77 52.234C950.891 51.7154 949.88 51.4639 948.861 51.5102C944.657 51.5102 942.555 55.4628 942.555 63.3679C942.41 66.3343 942.939 69.2948 944.102 72.0275C944.534 72.9572 945.232 73.7379 946.108 74.2707C946.984 74.8036 947.998 75.0647 949.022 75.0211Z" fill="#282828"/>
</g>
<g style="mix-blend-mode:color-dodge">
<path d="M920.541 77.0072C918.67 77.0169 916.855 76.3653 915.418 75.1672C913.801 73.8188 912.563 72.0723 911.827 70.0999C910.835 67.3452 910.404 64.4203 910.556 61.4965C910.709 58.5728 911.444 55.7089 912.717 53.0727C913.483 51.8532 914.568 50.8669 915.855 50.2207C917.142 49.5745 918.581 49.2933 920.016 49.4073C921.867 49.3986 923.67 50.0046 925.14 51.1305C926.773 52.393 928.042 54.0659 928.818 55.9787C929.765 58.2538 930.232 60.6996 930.191 63.1634C930.309 66.6056 929.497 70.016 927.84 73.0351C927.114 74.3114 926.046 75.3595 924.756 76.0613C923.467 76.7631 922.007 77.0907 920.541 77.0072ZM920.425 75.0211C921.506 75.0208 922.56 74.6751 923.432 74.0342C924.303 73.3933 924.948 72.4908 925.271 71.458C926.366 68.6703 926.888 65.6902 926.804 62.6962C926.949 59.8529 926.403 57.0168 925.213 54.4308C924.76 53.516 924.052 52.7526 923.173 52.234C922.294 51.7154 921.283 51.4639 920.264 51.5102C916.06 51.5102 913.953 55.4628 913.943 63.3679C913.803 66.3354 914.337 69.2961 915.505 72.0275C915.936 72.9584 916.633 73.7402 917.51 74.2733C918.386 74.8064 919.4 75.0667 920.425 75.0211Z" fill="#282828"/>
</g>
<g style="mix-blend-mode:color-dodge">
<path d="M863.333 77.0071C861.461 77.0169 859.647 76.3652 858.209 75.1671C856.596 73.8179 855.364 72.0713 854.632 70.0998C853.719 67.7761 853.272 65.2949 853.319 62.7983C853.155 59.3975 853.917 56.0162 855.523 53.0143C856.286 51.7925 857.371 50.8043 858.659 50.1578C859.946 49.5113 861.386 49.2315 862.822 49.3489C864.674 49.3357 866.477 49.9422 867.946 51.072C869.577 52.3395 870.85 54.0105 871.639 55.9203C872.58 58.1963 873.042 60.6422 872.996 63.105C873.119 66.5458 872.312 69.956 870.661 72.9766C869.938 74.2661 868.868 75.3272 867.573 76.0396C866.277 76.7519 864.808 77.0871 863.333 77.0071ZM863.216 75.0211C864.298 75.0208 865.351 74.675 866.223 74.0341C867.095 73.3932 867.739 72.4907 868.062 71.458C869.169 68.6733 869.696 65.6917 869.61 62.6961C869.754 59.8514 869.203 57.0144 868.004 54.4308C867.553 53.5147 866.844 52.7503 865.965 52.2315C865.086 51.7127 864.075 51.462 863.055 51.5101C858.871 51.4323 856.778 55.3361 856.778 63.2218C856.638 66.1893 857.172 69.15 858.34 71.8814C858.744 72.8337 859.425 73.6424 860.295 74.2024C861.164 74.7623 862.182 75.0476 863.216 75.0211Z" fill="#282828"/>
</g>
<g style="mix-blend-mode:color-dodge">
<path d="M839.378 74.4078L844.589 74.7582V76.6129H831.115V74.7582L836.21 74.4078V49.7578L838.078 49.3197C839.089 50.2642 840.218 51.074 841.436 51.7292C842.658 52.424 843.97 52.9496 845.333 53.2917L844.939 55.3069C843.918 55.1509 842.912 54.9066 841.932 54.5768C841.045 54.321 840.177 54.0038 839.334 53.6276L839.378 74.4078Z" fill="#282828"/>
</g>
<g style="mix-blend-mode:color-dodge">
<path d="M818.824 74.4078L824.05 74.7582V76.6129H810.562V74.7582L815.671 74.4078V49.7578L817.539 49.3197C818.545 50.2639 819.668 51.0738 820.882 51.7292C822.105 52.424 823.416 52.9496 824.78 53.2917L824.4 55.3069C823.378 55.1528 822.372 54.9084 821.393 54.5768C820.501 54.3204 819.628 54.0033 818.78 53.6276L818.824 74.4078Z" fill="#282828"/>
</g>
<g style="mix-blend-mode:color-dodge">
<path d="M646.059 77.0072C644.192 77.0147 642.383 76.3631 640.95 75.1672C639.333 73.8188 638.095 72.0723 637.359 70.0999C636.362 67.3463 635.927 64.4207 636.08 61.4961C636.233 58.5714 636.97 55.7072 638.249 53.0727C639.015 51.8532 640.1 50.8669 641.387 50.2207C642.674 49.5745 644.113 49.2933 645.548 49.4073C647.399 49.3986 649.202 50.0046 650.672 51.1305C652.305 52.393 653.574 54.0659 654.35 55.9787C655.297 58.2538 655.764 60.6996 655.723 63.1634C655.841 66.6056 655.029 70.016 653.372 73.0351C652.644 74.3126 651.573 75.3612 650.281 76.063C648.989 76.7647 647.527 77.0917 646.059 77.0072ZM645.942 75.0211C647.026 75.0217 648.082 74.6764 648.956 74.0357C649.83 73.3949 650.477 72.4919 650.803 71.458C651.898 68.6703 652.42 65.6902 652.336 62.6962C652.481 59.8529 651.935 57.0168 650.745 54.4308C650.292 53.516 649.584 52.7526 648.705 52.234C647.826 51.7154 646.815 51.4639 645.796 51.5102C641.592 51.5102 639.485 55.4628 639.475 63.3679C639.335 66.3354 639.869 69.2961 641.037 72.0275C641.467 72.9561 642.162 73.7362 643.035 74.2691C643.909 74.802 644.92 75.0637 645.942 75.0211Z" fill="#282828"/>
</g>
<g style="mix-blend-mode:color-dodge">
<path d="M622.104 74.4078L627.33 74.7582V76.6129H613.842V74.7582L618.951 74.4078V49.7578L620.819 49.3197C621.825 50.2639 622.949 51.0738 624.162 51.7292C625.385 52.424 626.696 52.9496 628.06 53.2917L627.666 55.3069C626.649 55.1506 625.648 54.9063 624.673 54.5768C623.781 54.323 622.908 54.0058 622.06 53.6276L622.104 74.4078Z" fill="#282828"/>
</g>
<g style="mix-blend-mode:color-dodge">
<path d="M596.938 77.0072C595.067 77.0169 593.252 76.3653 591.814 75.1672C590.202 73.8147 588.965 72.0695 588.223 70.0999C587.323 67.7727 586.882 65.2933 586.924 62.7984C586.761 59.3976 587.523 56.0162 589.128 53.0143C589.891 51.7914 590.975 50.8023 592.263 50.1557C593.55 49.509 594.991 49.2299 596.427 49.3489C598.279 49.3402 600.081 49.9462 601.551 51.0721C603.182 52.3396 604.455 54.0106 605.244 55.9203C606.186 58.1964 606.648 60.6423 606.602 63.1051C606.725 66.5459 605.918 69.9561 604.266 72.9767C603.543 74.2662 602.473 75.3273 601.178 76.0396C599.883 76.752 598.414 77.0872 596.938 77.0072ZM596.821 75.0211C597.903 75.0208 598.957 74.6751 599.828 74.0342C600.7 73.3933 601.344 72.4908 601.668 71.458C602.775 68.6734 603.301 65.6917 603.215 62.6962C603.359 59.8515 602.808 57.0144 601.609 54.4308C601.157 53.516 600.448 52.7527 599.569 52.234C598.691 51.7154 597.68 51.4639 596.661 51.5102C592.457 51.5102 590.354 55.4628 590.354 63.3679C590.207 66.3359 590.741 69.2982 591.916 72.0275C592.342 72.9502 593.03 73.7266 593.895 74.2592C594.76 74.7918 595.763 75.0569 596.778 75.0211H596.821Z" fill="#282828"/>
</g>
<g style="mix-blend-mode:color-dodge">
<path d="M572.924 74.4078L578.15 74.7582V76.6129H564.662V74.7582L569.771 74.4078V49.7578L571.64 49.3197C572.651 50.2642 573.779 51.074 574.997 51.7292C576.216 52.4213 577.522 52.9468 578.88 53.2917L578.501 55.3069C577.479 55.1509 576.473 54.9066 575.494 54.5768C574.602 54.3204 573.729 54.0033 572.881 53.6276L572.924 74.4078Z" fill="#282828"/>
</g>
</g>
</g>
</g>
</g>
<defs>
<clipPath id="clip0_419_5966">
<rect width="1066" height="253" rx="16" fill="white"/>
</clipPath>
</defs>
</svg>
