<svg width="252" height="176" viewBox="0 0 252 176" fill="none" xmlns="http://www.w3.org/2000/svg">
<path d="M175.144 176H106.28C99.5062 176 93.9639 170.458 93.9639 163.685V12.3154C93.9639 5.5423 99.5062 0 106.28 0H175.144C181.917 0 187.459 5.5423 187.459 12.3154V163.685C187.459 170.458 181.917 176 175.144 176Z" fill="#1229C6"/>
<path d="M182.826 13.4813V161.342C182.826 166.358 178.752 170.461 173.775 170.461H107.65C102.672 170.461 98.5986 166.358 98.5986 161.342V13.4813C98.5986 8.46503 102.672 4.36244 107.65 4.36244H173.775C178.752 4.36244 182.826 8.46503 182.826 13.4813Z" fill="#EEEFEF"/>
<path d="M173.775 4.36244L108.468 170.461H107.65C102.672 170.461 98.5986 166.358 98.5986 161.342V13.4813C98.5986 8.46503 102.672 4.36244 107.65 4.36244H173.775Z" fill="#F5F8F8"/>
<path d="M154.53 9.86047H126.894C124.642 9.86047 122.802 8.0193 122.802 5.76766V5.12386C122.802 2.87222 124.642 1.03106 126.894 1.03106H154.53C156.782 1.03106 158.623 2.87222 158.623 5.12386V5.76766C158.623 8.0193 156.782 9.86047 154.53 9.86047Z" fill="#1229C6"/>
<path d="M60.1762 90.4333H154.192C157.181 90.4333 159.603 88.0109 159.603 85.0243V47.3707C159.603 44.3824 157.181 41.9601 154.192 41.9601H60.1762C57.1887 41.9601 54.7666 44.3824 54.7666 47.3707V85.0243C54.7666 88.011 57.1886 90.4333 60.1762 90.4333Z" fill="white" stroke="#1229C6"/>
<path d="M96.8896 70.5494C96.9342 71.098 97.0813 71.5792 97.3309 71.9929C97.5806 72.4157 97.9506 72.744 98.441 72.9778C98.9403 73.2116 99.5689 73.3286 100.327 73.3286C100.96 73.3286 101.53 73.2116 102.039 72.9778C102.547 72.7529 102.952 72.3932 103.256 71.8985C103.568 71.4038 103.724 70.7607 103.724 69.9692V63.8982H101.784V69.9692C101.784 70.347 101.713 70.6618 101.57 70.9136C101.437 71.1745 101.254 71.3678 101.022 71.4938C100.79 71.6287 100.532 71.6961 100.246 71.6961C99.9879 71.6961 99.7561 71.6512 99.551 71.5612C99.346 71.4803 99.181 71.3543 99.0562 71.1835C98.9403 71.0126 98.869 70.8012 98.8422 70.5494H96.8896ZM96.7559 66.9202C96.7559 67.6128 96.8941 68.1929 97.1705 68.6606C97.4558 69.1283 97.8213 69.4836 98.2671 69.7264C98.7129 69.9602 99.1855 70.0772 99.6848 70.0772C100.202 70.0772 100.657 69.9557 101.049 69.7129C101.45 69.4611 101.767 69.1013 101.998 68.6336C102.23 68.1569 102.346 67.5858 102.346 66.9202C102.346 66.2456 102.23 65.6745 101.998 65.2068C101.767 64.7391 101.45 64.3838 101.049 64.141C100.657 63.8892 100.202 63.7632 99.6848 63.7632C99.1855 63.7632 98.7129 63.8802 98.2671 64.114C97.8213 64.3479 97.4558 64.6986 97.1705 65.1663C96.8941 65.634 96.7559 66.2187 96.7559 66.9202ZM98.8823 66.9202C98.8823 66.5964 98.9492 66.3221 99.0829 66.0972C99.2167 65.8724 99.395 65.7015 99.6179 65.5846C99.8408 65.4676 100.086 65.4092 100.353 65.4092C100.523 65.4092 100.692 65.4407 100.862 65.5036C101.031 65.5666 101.183 65.661 101.316 65.7869C101.459 65.9129 101.57 66.0703 101.651 66.2591C101.74 66.448 101.784 66.6684 101.784 66.9202C101.784 67.253 101.713 67.5318 101.57 67.7567C101.428 67.9815 101.245 68.1524 101.022 68.2693C100.808 68.3773 100.585 68.4312 100.353 68.4312C100.086 68.4312 99.8408 68.3728 99.6179 68.2558C99.395 68.1389 99.2167 67.968 99.0829 67.7432C98.9492 67.5093 98.8823 67.235 98.8823 66.9202Z" fill="#1229C6"/>
<path d="M108.409 70.2391C109.194 70.2391 109.858 70.0862 110.402 69.7804C110.955 69.4746 111.392 69.0159 111.713 68.4042L109.907 67.959C109.756 68.2289 109.551 68.4312 109.292 68.5661C109.042 68.7011 108.739 68.7685 108.383 68.7685C108.071 68.7685 107.807 68.7011 107.594 68.5661C107.38 68.4222 107.219 68.2154 107.112 67.9455C107.005 67.6757 106.952 67.3519 106.952 66.9742C106.96 66.5604 107.014 66.2187 107.112 65.9488C107.219 65.67 107.375 65.4631 107.58 65.3282C107.785 65.1933 108.039 65.1259 108.342 65.1259C108.583 65.1259 108.793 65.1798 108.971 65.2878C109.149 65.3957 109.288 65.5486 109.386 65.7465C109.484 65.9443 109.533 66.1782 109.533 66.448C109.533 66.511 109.515 66.5919 109.479 66.6909C109.452 66.7808 109.417 66.8572 109.372 66.9202L109.854 66.2996H106.055V67.4329H111.673C111.69 67.3699 111.699 67.2935 111.699 67.2035C111.699 67.1046 111.699 67.0056 111.699 66.9067C111.699 66.2411 111.57 65.6745 111.311 65.2068C111.053 64.7391 110.678 64.3838 110.188 64.141C109.698 63.8892 109.096 63.7632 108.383 63.7632C107.669 63.7632 107.05 63.8937 106.524 64.1545C106.006 64.4153 105.61 64.7886 105.333 65.2743C105.057 65.76 104.919 66.3356 104.919 67.0012C104.919 67.6577 105.061 68.2289 105.347 68.7145C105.632 69.2002 106.033 69.578 106.55 69.8478C107.076 70.1087 107.696 70.2391 108.409 70.2391Z" fill="#1229C6"/>
<path d="M112.224 63.8982V65.5846H116.343V63.8982H112.224ZM113.307 61.7395V70.1042H115.247V61.7395H113.307Z" fill="#1229C6"/>
<path d="M119.21 59.5809H117.191V70.1042H119.21V59.5809ZM124.239 67.0012C124.239 66.2996 124.096 65.7105 123.811 65.2338C123.534 64.7571 123.173 64.3928 122.728 64.141C122.291 63.8892 121.818 63.7632 121.31 63.7632C120.802 63.7632 120.347 63.8937 119.946 64.1545C119.545 64.4153 119.228 64.7886 118.996 65.2743C118.764 65.751 118.648 66.3266 118.648 67.0012C118.648 67.6667 118.764 68.2424 118.996 68.728C119.228 69.2137 119.545 69.587 119.946 69.8478C120.347 70.1087 120.802 70.2391 121.31 70.2391C121.818 70.2391 122.291 70.1131 122.728 69.8613C123.173 69.6095 123.534 69.2452 123.811 68.7685C124.096 68.2828 124.239 67.6937 124.239 67.0012ZM122.112 67.0012C122.112 67.3249 122.045 67.6083 121.912 67.8511C121.778 68.085 121.6 68.2693 121.377 68.4042C121.154 68.5302 120.909 68.5931 120.641 68.5931C120.409 68.5931 120.182 68.5302 119.959 68.4042C119.745 68.2783 119.567 68.0984 119.424 67.8646C119.282 67.6218 119.21 67.3339 119.21 67.0012C119.21 66.6684 119.282 66.385 119.424 66.1512C119.567 65.9084 119.745 65.724 119.959 65.5981C120.182 65.4721 120.409 65.4092 120.641 65.4092C120.909 65.4092 121.154 65.4766 121.377 65.6115C121.6 65.7375 121.778 65.9218 121.912 66.1647C122.045 66.3985 122.112 66.6774 122.112 67.0012Z" fill="#1229C6"/>
<path d="M127.023 68.1614C127.023 68.0085 127.059 67.8826 127.13 67.7836C127.201 67.6757 127.308 67.5948 127.451 67.5408C127.594 67.4868 127.785 67.4599 128.026 67.4599C128.338 67.4599 128.632 67.5048 128.909 67.5948C129.194 67.6757 129.444 67.7971 129.658 67.959V67.0551C129.551 66.9382 129.39 66.8258 129.176 66.7178C128.962 66.6099 128.704 66.52 128.401 66.448C128.106 66.3761 127.772 66.3401 127.398 66.3401C126.631 66.3401 126.038 66.5155 125.619 66.8662C125.2 67.208 124.99 67.6757 124.99 68.2693C124.99 68.6921 125.088 69.0518 125.284 69.3486C125.49 69.6454 125.757 69.8703 126.087 70.0232C126.426 70.1671 126.791 70.2391 127.184 70.2391C127.576 70.2391 127.941 70.1716 128.28 70.0367C128.619 69.8928 128.895 69.6859 129.109 69.4161C129.323 69.1373 129.43 68.8 129.43 68.4042L129.216 67.5948C129.216 67.8826 129.154 68.1254 129.029 68.3233C128.904 68.5212 128.744 68.6696 128.548 68.7685C128.352 68.8674 128.138 68.9169 127.906 68.9169C127.745 68.9169 127.598 68.8899 127.464 68.836C127.331 68.773 127.224 68.6876 127.143 68.5796C127.063 68.4627 127.023 68.3233 127.023 68.1614ZM126.127 65.8004C126.216 65.7465 126.359 65.679 126.555 65.5981C126.751 65.5081 126.979 65.4317 127.237 65.3687C127.505 65.3057 127.777 65.2743 128.053 65.2743C128.24 65.2743 128.405 65.2923 128.548 65.3282C128.699 65.3642 128.824 65.4227 128.922 65.5036C129.02 65.5846 129.092 65.6835 129.136 65.8004C129.19 65.9084 129.216 66.0388 129.216 66.1917V70.1042H131.156V65.733C131.156 65.3012 131.031 64.937 130.781 64.6402C130.532 64.3434 130.193 64.1185 129.765 63.9656C129.337 63.8037 128.851 63.7228 128.307 63.7228C127.727 63.7228 127.193 63.7992 126.702 63.9521C126.212 64.105 125.793 64.2669 125.445 64.4378L126.127 65.8004Z" fill="#1229C6"/>
<path d="M133.002 67.8511L132.16 69.2002C132.436 69.4161 132.735 69.614 133.056 69.7939C133.377 69.9647 133.724 70.0997 134.099 70.1986C134.482 70.3065 134.897 70.3605 135.343 70.3605C136.074 70.3605 136.64 70.1941 137.041 69.8613C137.451 69.5195 137.656 69.0159 137.656 68.3503C137.656 67.9635 137.572 67.6532 137.402 67.4194C137.242 67.1855 137.023 66.9922 136.747 66.8393C136.479 66.6864 136.185 66.5514 135.864 66.4345C135.561 66.3176 135.302 66.2232 135.088 66.1512C134.883 66.0703 134.723 65.9848 134.607 65.8949C134.5 65.8049 134.447 65.6925 134.447 65.5576C134.447 65.4407 134.491 65.3462 134.58 65.2743C134.678 65.2023 134.821 65.1663 135.008 65.1663C135.285 65.1663 135.588 65.2473 135.918 65.4092C136.248 65.5621 136.542 65.76 136.8 66.0028L137.523 64.6806C137.282 64.5008 137.023 64.3434 136.747 64.2085C136.479 64.0735 136.19 63.9656 135.878 63.8847C135.574 63.8037 135.244 63.7632 134.888 63.7632C134.442 63.7632 134.045 63.8307 133.698 63.9656C133.359 64.1005 133.087 64.2984 132.882 64.5592C132.686 64.8201 132.588 65.1394 132.588 65.5171C132.588 65.9129 132.672 66.2366 132.842 66.4885C133.011 66.7403 133.225 66.9427 133.484 67.0956C133.751 67.2395 134.032 67.3654 134.326 67.4733C134.656 67.5723 134.915 67.6667 135.102 67.7567C135.298 67.8466 135.436 67.941 135.516 68.04C135.597 68.1299 135.637 68.2424 135.637 68.3773C135.637 68.5212 135.588 68.6381 135.49 68.728C135.392 68.818 135.24 68.863 135.035 68.863C134.892 68.863 134.723 68.836 134.527 68.782C134.331 68.719 134.103 68.6156 133.845 68.4717C133.595 68.3188 133.314 68.1119 133.002 67.8511Z" fill="#1229C6"/>
<path d="M141.897 70.2391C142.681 70.2391 143.345 70.0862 143.889 69.7804C144.442 69.4746 144.879 69.0159 145.2 68.4042L143.394 67.959C143.243 68.2289 143.038 68.4312 142.779 68.5661C142.53 68.7011 142.226 68.7685 141.87 68.7685C141.558 68.7685 141.295 68.7011 141.081 68.5661C140.867 68.4222 140.706 68.2154 140.599 67.9455C140.492 67.6757 140.439 67.3519 140.439 66.9742C140.448 66.5604 140.501 66.2187 140.599 65.9488C140.706 65.67 140.862 65.4631 141.067 65.3282C141.272 65.1933 141.527 65.1259 141.83 65.1259C142.07 65.1259 142.28 65.1798 142.458 65.2878C142.637 65.3957 142.775 65.5486 142.873 65.7465C142.971 65.9443 143.02 66.1782 143.02 66.448C143.02 66.511 143.002 66.5919 142.966 66.6909C142.94 66.7808 142.904 66.8572 142.859 66.9202L143.341 66.2996H139.543V67.4329H145.16C145.178 67.3699 145.187 67.2935 145.187 67.2035C145.187 67.1046 145.187 67.0056 145.187 66.9067C145.187 66.2411 145.057 65.6745 144.799 65.2068C144.54 64.7391 144.166 64.3838 143.675 64.141C143.185 63.8892 142.583 63.7632 141.87 63.7632C141.157 63.7632 140.537 63.8937 140.011 64.1545C139.494 64.4153 139.097 64.7886 138.821 65.2743C138.544 65.76 138.406 66.3356 138.406 67.0012C138.406 67.6577 138.549 68.2289 138.834 68.7145C139.119 69.2002 139.52 69.578 140.038 69.8478C140.564 70.1087 141.183 70.2391 141.897 70.2391Z" fill="#1229C6"/>
<path fill-rule="evenodd" clip-rule="evenodd" d="M79.899 76.852C85.955 76.852 90.8644 71.7961 90.8644 65.5593C90.8644 59.3225 85.955 54.2666 79.899 54.2666C73.843 54.2666 68.9336 59.3225 68.9336 65.5593C68.9336 71.7961 73.843 76.852 79.899 76.852ZM79.1619 61.3362L72.5285 67.7233C72.1214 68.1153 72.1214 68.7507 72.5285 69.1427C72.9356 69.5346 73.5955 69.5346 74.0026 69.1427L78.8566 64.4689V70.0764H80.9413V64.4689L85.7954 69.1427C86.2024 69.5346 86.8624 69.5346 87.2695 69.1427C87.6765 68.7507 87.6765 68.1153 87.2695 67.7233L80.636 61.3362C80.229 60.9442 79.569 60.9442 79.1619 61.3362Z" fill="#1229C6"/>
<path d="M155.088 35.3524H118.288C115.558 35.3524 113.345 33.1386 113.345 30.4092V23.4294C113.345 20.7001 115.558 18.4863 118.288 18.4863H155.088C157.819 18.4863 160.031 20.7001 160.031 23.4294V30.4092C160.031 33.1386 157.819 35.3524 155.088 35.3524Z" fill="#3786FD" fill-opacity="0.06"/>
<path d="M153.473 159.011H111.049C107.779 159.011 105.129 156.36 105.129 153.091V144.122C105.129 140.853 107.779 138.204 111.049 138.204H153.473C156.744 138.204 159.393 140.853 159.393 144.122V153.091C159.393 156.36 156.744 159.011 153.473 159.011Z" fill="#3786FD" fill-opacity="0.06"/>
<path d="M169.965 129.58H129.884C125.966 129.58 122.791 126.405 122.791 122.489V106.805C122.791 102.888 125.966 99.7124 129.884 99.7124H169.965C173.881 99.7124 177.056 102.888 177.056 106.805V122.489C177.056 126.405 173.881 129.58 169.965 129.58Z" fill="#3786FD" fill-opacity="0.06"/>
<path d="M7.04567 117.075H52.9629C56.6232 117.075 59.6179 120.07 59.6179 123.73V143.874C59.6179 147.237 56.8671 149.987 53.5051 149.987H52.3256L54.5379 159.332L40.649 149.987H6.6493C2.99217 149.987 0 146.996 0 143.339V124.121C0 120.246 3.17049 117.075 7.04567 117.075Z" fill="#3786FD" fill-opacity="0.06"/>
<path d="M223.096 127.292L251.976 136.734L234.678 119.873L232.922 123.992L225.487 124.029L223.096 127.292Z" fill="#04122E"/>
<path d="M251.976 136.734L229.563 119.683L205.614 114.213L251.976 136.734Z" fill="white"/>
<path d="M234.678 119.873L251.976 136.734L240.445 113.113L234.678 119.873Z" fill="white"/>
<path d="M52.7966 19.7002L25.8018 23.5508L43.7157 11.3414L44.6267 15.2559L51.1916 16.4449L52.7966 19.7002Z" fill="#04122E"/>
<path d="M25.8018 23.5519L48.2658 11.9695L70.283 10.8622L25.8018 23.5519Z" fill="white"/>
<path d="M43.7158 11.3418L25.8018 23.5522L39.6696 4.46868L43.7158 11.3418Z" fill="white"/>
<path d="M111.349 13.6127L110.407 14.2887L109.46 13.6192C109.67 13.3243 110.017 13.1289 110.407 13.1289C110.795 13.1289 111.139 13.3195 111.349 13.6127Z" fill="white"/>
<path d="M110.406 11.4813C109.459 11.4813 108.621 11.9534 108.114 12.6729L108.712 13.0925C109.089 12.5598 109.708 12.214 110.406 12.214C111.099 12.214 111.716 12.5549 112.091 13.0794L112.687 12.6533C112.177 11.9419 111.344 11.4813 110.406 11.4813Z" fill="white"/>
<path d="M110.406 8.34938C108.402 8.34938 106.63 9.34602 105.556 10.87L106.155 11.2896C107.096 9.95627 108.652 9.08235 110.406 9.08235C112.146 9.08235 113.693 9.94136 114.637 11.2581L115.23 10.8302C114.154 9.32777 112.395 8.34938 110.406 8.34938Z" fill="white"/>
<path d="M110.406 10.0642C108.981 10.0642 107.717 10.7695 106.948 11.8504L107.546 12.2706C108.183 11.3808 109.227 10.7975 110.406 10.7975C111.576 10.7975 112.614 11.3709 113.253 12.2476L113.846 11.8241C113.075 10.758 111.821 10.0642 110.406 10.0642Z" fill="white"/>
<path d="M105.116 113.426C105.116 114.811 105.582 116.084 106.366 117.101C106.627 117.439 106.923 117.748 107.247 118.023C107.57 118.296 107.921 118.536 108.296 118.738C109.143 119.192 110.109 119.45 111.138 119.45C112.424 119.45 113.614 119.048 114.591 118.363C114.641 118.329 114.689 118.293 114.737 118.258C115.179 117.927 115.575 117.539 115.912 117.101C116.697 116.084 117.163 114.811 117.163 113.426C117.163 110.102 114.466 107.405 111.138 107.405C107.813 107.405 105.116 110.102 105.116 113.426Z" fill="#3786FD" fill-opacity="0.06"/>
<path d="M164.251 148.435C164.251 149.828 164.72 151.11 165.51 152.134C165.772 152.474 166.069 152.785 166.397 153.062C167.453 153.958 168.822 154.499 170.316 154.499C171.673 154.499 172.927 154.054 173.938 153.299C174.383 152.967 174.782 152.574 175.12 152.134C175.91 151.11 176.379 149.828 176.379 148.435C176.379 145.085 173.664 142.371 170.316 142.371C166.966 142.371 164.251 145.085 164.251 148.435Z" fill="#3786FD" fill-opacity="0.06"/>
<path d="M164.251 26.5571C164.251 27.9493 164.72 29.2319 165.51 30.257C165.772 30.5971 166.069 30.907 166.397 31.1851C167.453 32.0815 168.822 32.6218 170.316 32.6218C171.673 32.6218 172.927 32.1752 173.938 31.4203C174.383 31.0897 174.782 30.6972 175.12 30.257C175.91 29.2319 176.379 27.9493 176.379 26.5571C176.379 23.2084 173.664 20.4939 170.316 20.4939C166.966 20.4939 164.251 23.2084 164.251 26.5571Z" fill="#3786FD" fill-opacity="0.06"/>
</svg>
