<svg width="56" height="41" viewBox="0 0 56 41" fill="none" xmlns="http://www.w3.org/2000/svg">
<path d="M28.0006 0C23.8346 0 19.6617 1.60752 16.4831 4.83554C13.7855 7.57504 12.2317 11.0388 11.8233 14.6099C5.18943 15.2216 0 20.8778 0 27.7743C0 35.0785 5.83083 41 13.0233 41H44.9303C51.0631 41 56 35.9859 56 29.7583C56 23.5301 51.0627 18.5165 44.9303 18.5165H44.1573C44.7309 13.6532 43.1725 8.56815 39.4975 4.83613C36.3189 1.60811 32.1664 0.00059011 28.0004 0.00059011L28.0006 0ZM28.0006 13.887C28.7201 13.887 29.3029 14.4793 29.3029 15.2095V29.4271L34.2883 24.819C34.7939 24.3504 35.6565 24.4094 36.1402 24.9016C36.6416 25.4118 36.5481 26.3177 36.0384 26.7823L28.8754 33.3951C28.5888 33.6613 28.3458 33.7268 28.0006 33.7259C27.6522 33.7194 27.3115 33.5686 27.1258 33.3951L19.9627 26.7823C19.4277 26.309 19.4018 25.4169 19.861 24.9016C20.3207 24.3863 21.2073 24.3504 21.7129 24.819L26.6983 29.4271V15.2095C26.6983 14.4788 27.2811 13.887 28.0005 13.887H28.0006Z" fill="#1229C6"/>
</svg>
