<svg width="44" height="44" viewBox="0 0 44 44" fill="none" xmlns="http://www.w3.org/2000/svg">
<g clip-path="url(#clip0_408_3071)">
<path fill-rule="evenodd" clip-rule="evenodd" d="M18.5625 0C17.2861 0 16.0621 0.50703 15.1595 1.40955C14.257 2.31207 13.75 3.53615 13.75 4.8125V8.25H4.8125C3.53615 8.25 2.31207 8.75703 1.40955 9.65955C0.50703 10.5621 0 11.7861 0 13.0625L0 36.4375C0 39.094 2.156 41.25 4.8125 41.25H39.1875C40.4639 41.25 41.6879 40.743 42.5905 39.8405C43.493 38.9379 44 37.7139 44 36.4375V13.0625C44 11.7861 43.493 10.5621 42.5905 9.65955C41.6879 8.75703 40.4639 8.25 39.1875 8.25H30.25V4.8125C30.25 3.53615 29.743 2.31207 28.8405 1.40955C27.9379 0.50703 26.7139 0 25.4375 0H18.5625ZM26.125 8.25V4.8125C26.125 4.63016 26.0526 4.4553 25.9236 4.32636C25.7947 4.19743 25.6198 4.125 25.4375 4.125H18.5625C18.3802 4.125 18.2053 4.19743 18.0764 4.32636C17.9474 4.4553 17.875 4.63016 17.875 4.8125V8.25H26.125ZM13.75 12.375H4.8125C4.63016 12.375 4.4553 12.4474 4.32636 12.5764C4.19743 12.7053 4.125 12.8802 4.125 13.0625V16.5C4.125 17.9587 4.70446 19.3576 5.73591 20.3891C6.76736 21.4205 8.16631 22 9.625 22H34.375C35.8337 22 37.2326 21.4205 38.2641 20.3891C39.2955 19.3576 39.875 17.9587 39.875 16.5V13.0625C39.875 12.8802 39.8026 12.7053 39.6736 12.5764C39.5447 12.4474 39.3698 12.375 39.1875 12.375H13.75ZM9.625 26.125C7.65814 26.1284 5.73789 25.5264 4.125 24.4008V36.4375C4.125 36.817 4.433 37.125 4.8125 37.125H39.1875C39.3698 37.125 39.5447 37.0526 39.6736 36.9236C39.8026 36.7947 39.875 36.6198 39.875 36.4375V24.4008C38.2621 25.5264 36.3419 26.1284 34.375 26.125H9.625Z" fill="#282828"/>
</g>
<defs>
<clipPath id="clip0_408_3071">
<rect width="44" height="44" fill="white"/>
</clipPath>
</defs>
</svg>
