<svg width="30" height="30" viewBox="0 0 30 30" fill="none" xmlns="http://www.w3.org/2000/svg">
<path fill-rule="evenodd" clip-rule="evenodd" d="M24.5253 26.1H5.77527H5.77543C5.27806 26.1 4.80127 25.9024 4.44955 25.5508C4.09799 25.1991 3.90039 24.7223 3.90039 24.2249V9.22503C3.90039 8.72782 4.09799 8.25086 4.44955 7.89913C4.80126 7.54757 5.27806 7.34997 5.77543 7.34997H10.463V5.47491L10.4629 5.47507C10.4629 4.97769 10.6605 4.50089 11.012 4.14917C11.3637 3.7976 11.8407 3.60001 12.3379 3.60001H17.9629C18.4601 3.60001 18.937 3.7976 19.2888 4.14917C19.6403 4.50089 19.8379 4.97769 19.8379 5.47507V7.35013H24.5255L24.5253 7.34997C25.0227 7.34997 25.4995 7.54757 25.8512 7.89913C26.2028 8.25085 26.4004 8.72782 26.4004 9.22503V24.2249C26.4004 24.7223 26.2028 25.1991 25.8512 25.5508C25.4995 25.9024 25.0227 26.1 24.5253 26.1H24.5253ZM17.9629 5.47507H12.338V7.35013H17.9629V5.47507ZM24.5253 17.6625H19.8377H19.8378C19.8378 18.1597 19.6402 18.6367 19.2887 18.9884C18.937 19.3399 18.46 19.5375 17.9628 19.5375H12.3378C11.8406 19.5375 11.3637 19.3399 11.0119 18.9884C10.6604 18.6367 10.4628 18.1597 10.4628 17.6625H5.77519V15.7874H10.4628C10.4628 15.2902 10.6604 14.8132 11.0119 14.4617C11.3637 14.11 11.8406 13.9125 12.3378 13.9125H17.9628C18.46 13.9125 18.9369 14.11 19.2887 14.4617C19.6402 14.8132 19.8378 15.2902 19.8378 15.7874H24.5254V9.22503H5.77543V24.2249H24.5254V17.6626L24.5253 17.6625ZM17.9629 16.725C17.9629 16.4763 17.8642 16.2379 17.6883 16.0621C17.5125 15.8863 17.2741 15.7874 17.0255 15.7874H13.2754C12.9405 15.7874 12.631 15.9662 12.4636 16.2562C12.2961 16.5463 12.2961 16.9036 12.4636 17.1937C12.631 17.4837 12.9405 17.6625 13.2754 17.6625H17.0255C17.2741 17.6625 17.5125 17.5638 17.6883 17.3878C17.8642 17.212 17.9629 16.9736 17.9629 16.725V16.725Z" fill="#808080"/>
</svg>
