<svg width="36" height="36" viewBox="0 0 36 36" fill="none" xmlns="http://www.w3.org/2000/svg">
<path fill-rule="evenodd" clip-rule="evenodd" d="M29.4295 31.3199H6.92955H6.92973C6.33289 31.3199 5.76074 31.0828 5.33868 30.661C4.9168 30.2389 4.67969 29.6667 4.67969 29.0699V11.07C4.67969 10.4733 4.9168 9.90097 5.33868 9.4789C5.76074 9.05702 6.33289 8.8199 6.92973 8.8199H12.5549V6.56983L12.5547 6.57002C12.5547 5.97317 12.7918 5.40101 13.2137 4.97894C13.6357 4.55706 14.2081 4.31995 14.8047 4.31995H21.5547C22.1513 4.31995 22.7237 4.55706 23.1457 4.97894C23.5676 5.40101 23.8047 5.97317 23.8047 6.57002V8.82009H29.4298L29.4296 8.8199C30.0265 8.8199 30.5986 9.05702 31.0207 9.4789C31.4426 9.90096 31.6797 10.4733 31.6797 11.07V29.0699C31.6797 29.6667 31.4426 30.2389 31.0207 30.661C30.5986 31.0828 30.0265 31.3199 29.4296 31.3199H29.4295ZM21.5548 6.57002H14.8048V8.82009H21.5548V6.57002ZM29.4295 21.1949H23.8044H23.8046C23.8046 21.7916 23.5675 22.3639 23.1456 22.786C22.7236 23.2079 22.1512 23.445 21.5546 23.445H14.8046C14.208 23.445 13.6356 23.2079 13.2136 22.786C12.7917 22.3639 12.5546 21.7916 12.5546 21.1949H6.92945V18.9448H12.5546C12.5546 18.3482 12.7917 17.7758 13.2136 17.354C13.6356 16.9319 14.208 16.695 14.8046 16.695H21.5546C22.1512 16.695 22.7236 16.9319 23.1456 17.354C23.5675 17.7758 23.8046 18.3482 23.8046 18.9448H29.4297V11.07H6.92973V29.0699H29.4297V21.195L29.4295 21.1949ZM21.5548 20.07C21.5548 19.7715 21.4363 19.4854 21.2252 19.2744C21.0142 19.0635 20.7281 18.9448 20.4298 18.9448H15.9297C15.5278 18.9448 15.1564 19.1594 14.9555 19.5074C14.7545 19.8555 14.7545 20.2843 14.9555 20.6324C15.1564 20.9804 15.5278 21.1949 15.9297 21.1949H20.4298C20.7282 21.1949 21.0142 21.0765 21.2252 20.8653C21.4363 20.6544 21.5548 20.3683 21.5548 20.07V20.07Z" fill="#282828"/>
</svg>
