<svg width="40" height="40" viewBox="0 0 40 40" fill="none" xmlns="http://www.w3.org/2000/svg">
<path d="M13.6484 18.9699C13.7981 19.0315 13.9702 18.9969 14.0843 18.8819C14.0963 18.8699 15.2743 17.7079 16.8004 17.7079C18.4004 17.7079 19.4865 18.8499 19.5065 18.8699C19.5107 18.8749 19.5163 18.879 19.5223 18.8819C19.5579 18.9196 19.6007 18.9496 19.6484 18.9699C19.7981 19.0315 19.9702 18.9969 20.0843 18.8819C20.0963 18.8699 21.2843 17.7079 22.8004 17.7079C24.4004 17.7079 25.4965 18.8599 25.5064 18.8699C25.5818 18.9524 25.6886 18.9995 25.8004 18.9999C25.8498 19.0004 25.8988 18.991 25.9443 18.9719C26.0982 18.9126 26.1998 18.7649 26.2004 18.5999V8.90801C26.2004 8.81801 26.1702 8.73069 26.1143 8.65998C26.0623 8.59998 24.7884 7 22.8004 7C21.4184 7 20.3164 7.8 19.8004 8.24C19.3184 7.8 18.2504 7 16.8004 7C14.9164 7 13.5523 8.58194 13.4943 8.64805C13.434 8.72126 13.4007 8.81305 13.4004 8.90805V18.5999C13.4004 18.7621 13.4984 18.9083 13.6484 18.9699L13.6484 18.9699ZM25.4002 9.05815V17.748C24.6381 17.2123 23.7316 16.9196 22.8002 16.908C21.8674 16.9314 20.9624 17.2314 20.2002 17.7699V8.96992C20.5202 8.66189 21.5363 7.79991 22.8002 7.79991C24.1363 7.79991 25.1141 8.74597 25.4002 9.05797V9.05815ZM14.2002 9.05815C14.5102 8.74619 15.5383 7.80009 16.8002 7.80009C18.1302 7.80009 19.1041 8.66007 19.4002 8.95813V17.7581C18.6381 17.2224 17.7316 16.9297 16.8002 16.9181C15.8674 16.9415 14.9624 17.2415 14.2002 17.7801V9.05815Z" fill="black"/>
<path d="M32.2002 26.2002H26.6002C26.3793 26.2002 26.2002 26.3793 26.2002 26.6002V32.2002C26.2002 32.3063 26.2423 32.4081 26.3173 32.4831C26.3923 32.5581 26.4941 32.6002 26.6002 32.6002H32.2002C32.3063 32.6002 32.4081 32.5581 32.4831 32.4831C32.5581 32.4081 32.6002 32.3063 32.6002 32.2002V26.6002C32.6002 26.4941 32.5581 26.3923 32.4831 26.3173C32.4081 26.2423 32.3063 26.2002 32.2002 26.2002ZM31.8002 31.8002H27.0002V27.0002H31.8002V31.8002Z" fill="black"/>
<path d="M10.2 26.2002C9.35127 26.2002 8.53733 26.5373 7.93733 27.1375C7.33714 27.7375 7 28.5515 7 29.4002C7 30.2489 7.33714 31.0629 7.93733 31.6629C8.53733 32.2631 9.35127 32.6002 10.2 32.6002C11.0487 32.6002 11.8627 32.2631 12.4627 31.6629C13.0629 31.0629 13.4 30.2489 13.4 29.4002C13.4 28.5515 13.0629 27.7375 12.4627 27.1375C11.8627 26.5373 11.0487 26.2002 10.2 26.2002ZM10.2 31.8002C9.56338 31.8002 8.95305 31.5473 8.50286 31.0973C8.05285 30.6472 7.8 30.0368 7.8 29.4002C7.8 28.7636 8.05285 28.1532 8.50286 27.7031C8.95304 27.2531 9.56338 27.0002 10.2 27.0002C10.8366 27.0002 11.4469 27.2531 11.8971 27.7031C12.3471 28.1532 12.6 28.7636 12.6 29.4002C12.6 30.0368 12.3471 30.6471 11.8971 31.0973C11.447 31.5473 10.8366 31.8002 10.2 31.8002Z" fill="black"/>
<path d="M20.1456 26.4002C20.074 26.2768 19.9423 26.2009 19.7996 26.2009C19.6569 26.2009 19.5251 26.2768 19.4535 26.4002L16.2196 32.0002C16.1482 32.124 16.1482 32.2765 16.2196 32.4002C16.291 32.5238 16.4228 32.6 16.5657 32.6002H23.0333C23.1762 32.6 23.308 32.5238 23.3794 32.4002C23.4508 32.2765 23.4508 32.124 23.3794 32.0002L20.1456 26.4002ZM17.2596 31.8L19.7995 27.4L22.3395 31.8H17.2596Z" fill="black"/>
<path d="M9.91749 25.2823C10.0734 25.4374 10.3255 25.4374 10.4814 25.2823L11.4814 24.2823C11.6173 24.1235 11.6082 23.8871 11.4605 23.7392C11.3127 23.5915 11.0762 23.5824 10.9175 23.7183L10.5995 24.0342V22.2003H19.3995V24.0342L19.0814 23.7181V23.7183C18.9227 23.5824 18.6862 23.5915 18.5384 23.7392C18.3907 23.8871 18.3816 24.1235 18.5175 24.2823L19.5175 25.2823C19.6734 25.4374 19.9255 25.4374 20.0814 25.2823L21.0814 24.2823C21.2173 24.1235 21.2082 23.8871 21.0605 23.7392C20.9127 23.5915 20.6762 23.5824 20.5175 23.7183L20.1995 24.0342V22.2003H28.9995V24.0342L28.6814 23.7181V23.7183C28.5227 23.5824 28.2862 23.5915 28.1384 23.7392C27.9907 23.8871 27.9816 24.1235 28.1175 24.2823L29.1175 25.2823C29.2734 25.4374 29.5255 25.4374 29.6814 25.2823L30.6814 24.2823C30.8173 24.1235 30.8082 23.8871 30.6605 23.7392C30.5127 23.5915 30.2762 23.5824 30.1175 23.7183L29.7994 24.0342V21.8003C29.7994 21.6942 29.7573 21.5924 29.6823 21.5174C29.6073 21.4424 29.5055 21.4003 29.3994 21.4003H20.1994V20.2003C20.1994 19.9794 20.0203 19.8003 19.7994 19.8003C19.5786 19.8003 19.3994 19.9794 19.3994 20.2003V21.4003H10.1994C9.97856 21.4003 9.79945 21.5794 9.79945 21.8003V24.0342L9.48141 23.7181V23.7183C9.32266 23.5824 9.08624 23.5915 8.93837 23.7392C8.79069 23.8871 8.78159 24.1235 8.91748 24.2823L9.91749 25.2823Z" fill="black"/>
</svg>
