<svg width="44" height="44" viewBox="0 0 44 44" fill="none" xmlns="http://www.w3.org/2000/svg">
<path d="M27.5 26.8125C27.5 25.6734 28.4235 24.75 29.5625 24.75H33.6875C34.8265 24.75 35.75 25.6734 35.75 26.8125C35.75 27.9515 34.8265 28.875 33.6875 28.875H29.5625C28.4235 28.875 27.5 27.9515 27.5 26.8125Z" fill="#282828"/>
<path fill-rule="evenodd" clip-rule="evenodd" d="M4.8125 5.5C2.15463 5.5 0 7.65462 0 10.3125V33.6875C0 36.3454 2.15463 38.5 4.8125 38.5H39.1875C41.8454 38.5 44 36.3454 44 33.6875V10.3125C44 7.65462 41.8454 5.5 39.1875 5.5H4.8125ZM39.875 13.75V10.3125C39.875 9.93281 39.5673 9.625 39.1875 9.625H4.8125C4.43281 9.625 4.125 9.93281 4.125 10.3125V13.75H39.875ZM4.125 17.875H39.875V33.6875C39.875 34.0673 39.5673 34.375 39.1875 34.375H4.8125C4.43281 34.375 4.125 34.0673 4.125 33.6875V17.875Z" fill="#282828"/>
</svg>
