<svg width="44" height="44" viewBox="0 0 44 44" fill="none" xmlns="http://www.w3.org/2000/svg">
<path fill-rule="evenodd" clip-rule="evenodd" d="M6.875 9.625C6.875 9.25914 7.03486 8.75067 7.65009 8.11069C8.27511 7.46048 9.27833 6.78087 10.6773 6.16534C13.4693 4.93685 17.4708 4.125 22 4.125C26.5292 4.125 30.5308 4.93685 33.3229 6.16534C34.7218 6.78087 35.725 7.46048 36.35 8.11069C36.9652 8.75067 37.125 9.25914 37.125 9.625C37.125 9.99086 36.9652 10.4993 36.35 11.1393C35.725 11.7895 34.7218 12.4691 33.3229 13.0847C30.5308 14.3131 26.5292 15.125 22 15.125C17.4708 15.125 13.4693 14.3131 10.6773 13.0847C9.27833 12.4691 8.27511 11.7895 7.65009 11.1393C7.03486 10.4993 6.875 9.99086 6.875 9.625ZM2.75 9.625C2.75 7.90254 3.55201 6.42153 4.67626 5.25201C5.79073 4.09266 7.30455 3.1427 9.01596 2.38967C12.4445 0.881081 17.0368 0 22 0C26.9632 0 31.5554 0.881081 34.9841 2.38967C36.6954 3.1427 38.2093 4.09266 39.3236 5.25201C40.4481 6.42153 41.25 7.90254 41.25 9.625V34.375C41.25 36.0976 40.4481 37.5785 39.3236 38.7481C38.2093 39.9075 36.6954 40.8573 34.9841 41.6102C31.5554 43.1189 26.9632 44 22 44C17.0368 44 12.4445 43.1189 9.01596 41.6102C7.30455 40.8573 5.79073 39.9075 4.67626 38.7481C3.55201 37.5785 2.75 36.0976 2.75 34.375V9.625ZM6.875 22V15.7423C7.53816 16.1544 8.25767 16.5267 9.01596 16.8603C12.4445 18.3689 17.0368 19.25 22 19.25C26.9632 19.25 31.5554 18.3689 34.9841 16.8603C35.7423 16.5267 36.462 16.1544 37.125 15.7423V22C37.125 22.3659 36.9652 22.8743 36.35 23.5143C35.725 24.1645 34.7218 24.8441 33.3229 25.4597C30.5308 26.6881 26.5292 27.5 22 27.5C17.4708 27.5 13.4693 26.6881 10.6773 25.4597C9.27833 24.8441 8.27511 24.1645 7.65009 23.5143C7.03486 22.8743 6.875 22.3659 6.875 22ZM6.875 28.1174V34.375C6.875 34.7407 7.03486 35.2492 7.65009 35.8894C8.27511 36.5395 9.27833 37.219 10.6773 37.8348C13.4693 39.0632 17.4708 39.875 22 39.875C26.5292 39.875 30.5308 39.0632 33.3229 37.8348C34.7218 37.219 35.725 36.5395 36.35 35.8894C36.9652 35.2492 37.125 34.7407 37.125 34.375V28.1174C36.462 28.5293 35.7423 28.9017 34.9841 29.2352C31.5554 30.7439 26.9632 31.625 22 31.625C17.0368 31.625 12.4445 30.7439 9.01596 29.2352C8.25767 28.9017 7.53816 28.5293 6.875 28.1174Z" fill="#282828"/>
</svg>
