<svg width="40" height="40" viewBox="0 0 40 40" fill="none" xmlns="http://www.w3.org/2000/svg">
<path d="M19.3636 20.364C19.3636 19.7916 18.8925 19.3276 18.3116 19.3276C17.7306 19.3276 17.2598 19.7916 17.2598 20.364V24.5096C17.2598 25.082 17.7306 25.5461 18.3116 25.5461C18.8925 25.5461 19.3636 25.082 19.3636 24.5096V20.364Z" fill="#494949"/>
<path d="M22.5188 19.3278C23.0997 19.3278 23.5706 19.7918 23.5706 20.3642V24.5097C23.5706 25.0822 23.0997 25.5463 22.5188 25.5463C21.9378 25.5463 21.4668 25.0822 21.4668 24.5097V20.3642C21.4668 19.7918 21.9378 19.3278 22.5188 19.3278Z" fill="#494949"/>
<path fill-rule="evenodd" clip-rule="evenodd" d="M24.6225 14.1456V13.1092C24.6225 11.392 23.2099 10 21.4669 10H19.3633C17.6205 10 16.2076 11.392 16.2076 13.1092V14.1456H13.052C12.471 14.1456 12 14.6095 12 15.1819C12 15.7543 12.471 16.2185 13.052 16.2185V27.6187C13.052 29.336 14.4648 30.7279 16.2076 30.7279H24.6224C26.3653 30.7279 27.778 29.336 27.778 27.6187V16.2185C28.3589 16.2185 28.83 15.7543 28.83 15.1819C28.83 14.6095 28.3589 14.1456 27.778 14.1456H24.6225ZM15.1556 16.2185V27.6187C15.1556 28.1911 15.6267 28.6552 16.2076 28.6552H24.6224C25.2033 28.6552 25.6744 28.1911 25.6744 27.6187V16.2185H15.1556ZM18.3113 14.1456V13.1092C18.3113 12.5368 18.7823 12.0727 19.3633 12.0727H21.4669C22.0479 12.0727 22.5189 12.5368 22.5189 13.1092V14.1456H18.3113Z" fill="#494949"/>
</svg>
