<svg width="40" height="40" viewBox="0 0 40 40" fill="none" xmlns="http://www.w3.org/2000/svg">
<path d="M21 28.4C20.7791 28.4 20.6 28.5791 20.6 28.8V30.6261C20.5989 30.937 20.475 31.235 20.255 31.455C20.035 31.675 19.7369 31.7989 19.426 31.8H8.97391C8.66302 31.7989 8.365 31.675 8.14497 31.455C7.92495 31.235 7.80105 30.937 7.79997 30.6261V8.97394C7.80104 8.66305 7.92497 8.36503 8.14497 8.14501C8.36497 7.92498 8.66301 7.80108 8.97391 7.8H10.2V8.4C10.1968 8.71929 10.3221 9.02643 10.5478 9.25216C10.7735 9.4779 11.0807 9.60324 11.4 9.60002H17C17.3193 9.60324 17.6264 9.47788 17.8521 9.25216C18.0779 9.02645 18.2032 8.71932 18.2 8.4V7.8H19.4261C19.737 7.80108 20.035 7.92501 20.255 8.14501C20.475 8.36501 20.5989 8.66304 20.6 8.97394V15.8C20.6 16.0209 20.7791 16.2 21 16.2C21.2209 16.2 21.4 16.0209 21.4 15.8V8.97394C21.3995 8.45074 21.1913 7.94875 20.8213 7.57874C20.4513 7.20873 19.9493 7.00055 19.4261 7H8.97394C8.45074 7.00054 7.94875 7.20875 7.57874 7.57874C7.20873 7.94874 7.00055 8.4507 7 8.97394V30.6261C7.00054 31.1493 7.20875 31.6512 7.57874 32.0213C7.94874 32.3913 8.4507 32.5995 8.97394 32.6H19.4261C19.9493 32.5995 20.4512 32.3913 20.8213 32.0213C21.1913 31.6513 21.3995 31.1493 21.4 30.6261V28.8C21.4 28.6939 21.3579 28.5921 21.2829 28.5171C21.2079 28.4421 21.1061 28.4 21 28.4H21ZM17.4 8.4C17.4034 8.50715 17.3623 8.61072 17.2866 8.68661C17.2107 8.76232 17.1071 8.80339 17 8.8H11.4C11.2928 8.80339 11.1892 8.76232 11.1134 8.68661C11.0376 8.61071 10.9966 8.50714 11 8.4V7.8H17.4V8.4Z" fill="black"/>
<path d="M31.9882 28.6602C31.5323 28.9132 30.9934 28.9709 30.4941 28.8202C29.5786 28.5698 28.6489 28.3734 27.7102 28.2321L26.8422 28.0782C26.2709 27.95 25.7131 27.7679 25.1763 27.5341C24.6299 27.3023 24.0661 27.1138 23.4902 26.9702C22.914 26.858 22.3266 26.8143 21.7402 26.8402C21.2641 26.8402 20.8541 26.8402 20.5902 26.7402C20.4054 26.657 20.2847 26.4748 20.2802 26.2722C20.2642 25.9561 20.5002 25.6502 20.9242 25.4302C22.2361 24.7502 23.2302 24.9002 23.7061 25.0502H23.7063C24.193 25.2206 24.7136 25.2714 25.2241 25.1982C25.4741 25.4443 25.6961 25.6663 25.8581 25.8282H25.8582C25.9332 25.9032 26.035 25.9455 26.1413 25.9455C26.2473 25.9455 26.3491 25.9032 26.4241 25.8282C26.4993 25.7532 26.5414 25.6514 26.5414 25.5452C26.5414 25.4389 26.4993 25.3371 26.4241 25.2622C26.3061 25.1441 23.5302 22.3682 22.9461 21.9182C22.2222 21.3643 17.166 16.9061 16.5461 16.1985H16.5463C16.5531 15.9749 16.6348 15.7601 16.7782 15.5885C16.8122 15.5604 16.9043 15.4804 17.1422 15.5445C17.5422 15.6545 19.5082 17.1445 21.88 19.0206L21.918 19.0526C23.1819 20.0526 24.5541 21.1665 25.86 22.2526V22.2524C25.9412 22.3235 26.0478 22.3585 26.1553 22.3499C26.2628 22.3411 26.3623 22.2894 26.4312 22.2063C26.5 22.1231 26.5323 22.0158 26.5209 21.9085C26.5092 21.8011 26.4548 21.7031 26.37 21.6365C25.77 21.1404 24.076 19.7484 22.308 18.3465C22.1811 18.2442 22.1111 18.0872 22.12 17.9243C22.14 17.5763 22.4961 17.1624 22.7419 17.0183C23.1239 16.7944 23.5619 17.1083 23.578 17.1202C23.608 17.1402 26.508 19.2683 27.1441 19.7742L27.1439 19.7744C27.2144 19.831 27.3018 19.8619 27.3919 19.8624C27.5628 19.8633 27.7153 19.7558 27.7718 19.5945C27.8282 19.4335 27.776 19.2542 27.6419 19.1485C27.1119 18.7185 25.0439 17.2005 24.316 16.6604C24.4726 16.2992 24.8091 16.0481 25.2 16.0004C25.52 15.9784 26.42 16.3584 26.956 16.6365C27.7012 17.0351 28.3801 17.5472 28.968 18.1543C29.0439 18.2374 29.1514 18.2847 29.2639 18.2843C29.3641 18.2842 29.4603 18.2463 29.5339 18.1784C29.6959 18.0292 29.7066 17.777 29.558 17.6143C29.0193 17.0472 28.4048 16.5574 27.732 16.1584C27.8704 16.0209 28.0332 15.9104 28.212 15.8323C28.638 15.6504 29.13 15.6884 30.142 16.4643C30.37 16.6404 30.5859 16.8204 30.8139 17.0104C31.13 17.2723 31.4859 17.5684 31.9539 17.9203C32.1307 18.0528 32.3814 18.0171 32.5139 17.8403C32.6466 17.6636 32.6107 17.4128 32.4339 17.2803C31.982 16.9423 31.6339 16.6523 31.3259 16.3964C31.092 16.1964 30.8699 16.0144 30.6279 15.8303C29.8418 15.2303 28.9039 14.6684 27.8979 15.0964H27.898C27.5505 15.2457 27.2439 15.476 27.0039 15.7683C26.5178 15.5383 25.65 15.1683 25.1459 15.2003H25.146C24.4901 15.2562 23.9125 15.6537 23.626 16.2464C23.2082 16.0753 22.7351 16.1048 22.3419 16.3264C21.876 16.6203 21.5323 17.0728 21.3739 17.6003C19.5439 16.1703 17.8239 14.8964 17.35 14.7703C16.971 14.6458 16.5546 14.7285 16.2519 14.9883C15.7958 15.3883 15.7199 16.1123 15.7558 16.3883C15.7819 16.5883 15.7997 16.7164 18.9558 19.5264C20.4378 20.8444 22.1378 22.3264 22.4539 22.5625C22.726 22.7584 23.5999 23.6003 24.4199 24.4003C24.2592 24.373 24.1008 24.3335 23.946 24.2823C23.346 24.0962 22.1221 23.9043 20.546 24.7162C19.8321 25.0843 19.44 25.6642 19.47 26.3162V26.3164C19.4792 26.5685 19.5603 26.8128 19.7039 27.0205C19.8475 27.2282 20.0473 27.3905 20.28 27.4883C20.6919 27.6544 21.1761 27.6503 21.7361 27.6464C22.2618 27.623 22.7886 27.6599 23.3061 27.7564C23.8407 27.8923 24.3641 28.0687 24.872 28.2842C25.4563 28.5382 26.0638 28.7344 26.6861 28.8703C26.9622 28.9222 27.2581 28.9722 27.5622 29.0264H27.562C28.4674 29.1635 29.3641 29.3517 30.2481 29.5903C30.5013 29.669 30.7649 29.7089 31.03 29.7083C31.512 29.7094 31.9857 29.5839 32.404 29.3442C32.5913 29.2267 32.6477 28.9796 32.53 28.7923C32.4124 28.6051 32.1652 28.5487 31.9781 28.6664L31.9882 28.6602Z" fill="black"/>
<path d="M11 16.7282V24.272C11 24.378 11.0421 24.4798 11.1171 24.5548C11.1921 24.6298 11.2939 24.672 11.4 24.672C11.4704 24.6705 11.5391 24.6512 11.6 24.6161L18 20.8439C18.1214 20.7719 18.1959 20.6412 18.1959 20.5C18.1959 20.3587 18.1214 20.228 18 20.1561L11.6 16.3839C11.4763 16.3125 11.3237 16.3125 11.2 16.3839C11.077 16.455 11.0009 16.5859 11 16.728V16.7282ZM11.8 17.4282L17.0119 20.5001L11.8 23.5721V17.4282Z" fill="black"/>
</svg>
