<svg width="22" height="42" viewBox="0 0 22 42" fill="none" xmlns="http://www.w3.org/2000/svg">
<path d="M22 11.0503V31.1409H19.7998L19.7995 11.0503C19.7995 6.17629 15.8532 2.21096 10.9994 2.21096C6.14611 2.21096 2.2001 6.17651 2.2001 11.0503L2.20418 33.1577C2.20418 36.8232 5.15128 39.7889 8.79962 39.7889C12.4477 39.7889 15.3992 36.8229 15.3992 33.1577L15.3995 17.6839C15.3995 15.2371 13.451 13.2458 11.0149 13.2458C8.58069 13.2458 6.59981 15.2371 6.59981 17.6839V31.1409H4.39994L4.39965 17.6839C4.39965 14.0175 7.3666 11.0352 11.0143 11.0352C14.6641 11.0352 17.599 14.0175 17.599 17.6839V33.1577C17.599 38.0404 13.6592 42 8.7997 42C3.94024 42 0.00408189 38.0406 0.00408189 33.1577L0 11.0503C0.000583165 4.95756 4.9347 0 10.9997 0C17.0648 0 21.9995 4.95756 21.9995 11.0503H22Z" fill="#494949"/>
</svg>
