<svg width="20" height="17" viewBox="0 0 20 17" fill="none" xmlns="http://www.w3.org/2000/svg">
<mask id="mask0_794_2703" style="mask-type:alpha" maskUnits="userSpaceOnUse" x="0" y="0" width="20" height="17">
<path fill-rule="evenodd" clip-rule="evenodd" d="M0 0.381287H19.9948V16.6253H0V0.381287Z" fill="white"/>
</mask>
<g mask="url(#mask0_794_2703)">
<path fill-rule="evenodd" clip-rule="evenodd" d="M0.0585 8.78929C-0.0195 8.60229 -0.0195 8.39329 0.0585 8.20829C2.1465 3.30529 5.8635 0.381287 9.9895 0.381287H9.9995C11.3905 0.384287 12.7605 0.714287 13.9995 1.34529L10.7405 4.63529C10.4965 4.59129 10.2475 4.56729 9.9995 4.56429C7.8345 4.57529 6.0885 6.33829 6.0995 8.50329V8.50429C6.1015 8.75529 6.1245 9.00529 6.1675 9.25229L2.5575 12.8933C1.5205 11.6603 0.6775 10.2763 0.0585 8.78929ZM9.9895 16.6253C8.0895 16.6093 6.2435 15.9963 4.7115 14.8733L7.7995 11.7533C9.5745 12.9663 11.9965 12.5113 13.2085 10.7353C13.6585 10.0783 13.8945 9.30029 13.8875 8.50429C13.8865 7.71529 13.6515 6.94429 13.2145 6.28829L16.4245 3.04929C17.9475 4.50029 19.1435 6.25929 19.9365 8.20829C20.0145 8.39329 20.0145 8.60229 19.9365 8.78929C17.8485 13.6883 14.1315 16.6253 9.9955 16.6253H9.9895Z" fill="#808080"/>
</g>
<mask id="mask1_794_2703" style="mask-type:alpha" maskUnits="userSpaceOnUse" x="1" y="0" width="18" height="17">
<path fill-rule="evenodd" clip-rule="evenodd" d="M1.57373 0H18.4249V16.9988H1.57373V0Z" fill="white"/>
</mask>
<g mask="url(#mask1_794_2703)">
<path fill-rule="evenodd" clip-rule="evenodd" d="M8.86868 10.6828L12.1567 7.36582C12.7797 8.57882 12.3017 10.0648 11.0897 10.6878C10.7527 10.8608 10.3797 10.9538 10.0007 10.9598C9.60768 10.9588 9.22068 10.8628 8.87368 10.6778L8.86868 10.6828ZM1.78568 16.7838C1.54068 16.5348 1.50368 16.1478 1.69768 15.8568L1.72668 15.8168L12.1957 5.25482L15.2877 2.13382L16.1567 1.25682C16.1757 1.24082 16.1927 1.22082 16.2057 1.19882C16.2247 1.18182 16.2417 1.16182 16.2547 1.13982L17.1737 0.212822C17.4617 -0.073178 17.9267 -0.070178 18.2117 0.216822C18.4977 0.504822 18.4957 0.969822 18.2077 1.25582L16.4297 3.04782L13.2197 6.28682L2.81968 16.7868C2.68268 16.9238 2.49568 16.9998 2.30268 16.9988C2.10768 17.0008 1.92068 16.9228 1.78568 16.7838Z" fill="#808080"/>
</g>
</svg>
