<svg width="25" height="29" viewBox="0 0 25 29" fill="none" xmlns="http://www.w3.org/2000/svg">
<path d="M24.1033 7.88894C24.0406 7.74583 23.9502 7.6163 23.837 7.5075L16.577 0.3575C16.4665 0.246049 16.335 0.156939 16.1897 0.0952243C16.0444 0.0343111 15.888 0.001859 15.73 0H1.21C0.889136 0 0.581229 0.125554 0.354357 0.348988C0.127486 0.572422 0 0.875664 0 1.19167V27.4083C0 27.7243 0.127486 28.0276 0.354357 28.251C0.581229 28.4744 0.889136 28.6 1.21 28.6H22.99C23.3109 28.6 23.6188 28.4744 23.8456 28.251C24.0725 28.0276 24.2 27.7243 24.2 27.4083V8.34167C24.1981 8.18606 24.1652 8.03204 24.1033 7.88894ZM16.9401 4.06362L20.0739 7.14997H16.9401V4.06362ZM2.42011 26.2164V2.38303H14.5201V8.34137C14.5201 8.65737 14.6476 8.96061 14.8745 9.18405C15.1013 9.40748 15.4092 9.53303 15.7301 9.53303H21.7801V26.2164H2.42011Z" fill="#282828"/>
</svg>
