<svg width="77" height="77" viewBox="0 0 77 77" fill="none" xmlns="http://www.w3.org/2000/svg">
<circle cx="38.5" cy="38.5" r="37.5" fill="white" stroke="#C4C4C4" stroke-width="0.2"/>
<path fill-rule="evenodd" clip-rule="evenodd" d="M51.2271 28.8236V37.7452H54.9849V28.8236H51.2271ZM56.4174 27.4613C56.5695 27.6191 56.6457 27.81 56.6457 28.0338V38.5353C56.6457 38.7589 56.5695 38.9431 56.4174 39.0883C56.2512 39.2458 56.0505 39.3248 55.8153 39.3248H51.2271V43.5294C51.241 43.5426 51.241 43.549 51.2271 43.549V48.5037C51.2271 48.7273 51.1509 48.9115 50.9989 49.0566C50.8326 49.2142 50.6319 49.2932 50.3967 49.2932H27.4762C27.255 49.2932 27.0609 49.2142 26.8952 49.0564C26.7287 48.9115 26.6456 48.7273 26.6456 48.5037V39.3248H22.182C21.9607 39.3248 21.7666 39.2457 21.6009 39.0879C21.4347 38.9431 21.3516 38.7589 21.3516 38.5353V28.0338C21.3516 27.8099 21.4347 27.6191 21.6009 27.4613C21.753 27.3164 21.9468 27.2443 22.182 27.2443H32.9363C32.9502 27.2311 32.9569 27.2311 32.9569 27.2443H44.5002C44.5141 27.2311 44.5207 27.2311 44.5207 27.2443H55.8149C56.0501 27.2443 56.2512 27.3165 56.4174 27.4613ZM46.7219 32.0212C46.7219 34.14 45.9396 35.9297 44.3758 37.39C42.7979 38.8777 40.9155 39.621 38.7287 39.621C36.5139 39.621 34.6248 38.8777 33.0608 37.3903C31.5107 35.9429 30.7356 34.1535 30.7356 32.0214C30.7356 30.8764 30.9778 29.8107 31.4623 28.8237H28.3065V42.5822L28.8672 42.5626C30.265 42.5626 31.4343 43.0233 32.3756 43.9445C33.3586 44.8657 33.8499 45.9843 33.8499 47.3004L33.8287 47.7146H44.0225L43.9808 47.2211C43.9808 45.9183 44.4654 44.8059 45.4342 43.8851C46.4031 42.951 47.573 42.4837 48.9429 42.4837L49.5656 42.523V28.8238H45.9738C46.4723 29.7975 46.7219 30.8632 46.7219 32.0212ZM44.0851 28.8237H33.3723C32.7217 29.7317 32.3968 30.7977 32.3968 32.0214C32.3968 33.706 33.0123 35.1203 34.2441 36.2654C35.4898 37.4498 36.9849 38.0419 38.7288 38.0419C40.4585 38.0419 41.9467 37.4498 43.1924 36.2654C44.4382 35.1071 45.0609 33.6927 45.0609 32.0214C45.0609 30.8238 44.7353 29.7578 44.0851 28.8237ZM43.3584 31.3501C43.5936 31.3501 43.7943 31.4291 43.9605 31.5872C44.1126 31.7318 44.1888 31.916 44.1888 32.1396C44.1888 32.3635 44.1126 32.5541 43.9605 32.7121C43.7943 32.857 43.5936 32.9291 43.3584 32.9291H42.424C42.3965 33.1004 42.3133 33.3436 42.1749 33.6597C41.8844 34.173 41.5174 34.4953 41.0745 34.6266C40.8532 34.6924 40.6456 34.6729 40.4518 34.5677C40.2441 34.4625 40.106 34.3044 40.0365 34.0937C39.9814 33.8963 40.002 33.7054 40.099 33.5212C40.1961 33.3237 40.3481 33.1924 40.5555 33.1263L40.68 32.9487C40.7907 32.7383 40.8463 32.5276 40.8463 32.3172V32.1793C40.8324 31.9421 40.7562 31.7381 40.6181 31.5671C40.5071 31.4093 40.3895 31.3302 40.2647 31.3302C40.1126 31.4354 39.9464 31.7775 39.7668 32.3566L39.7043 32.5541C39.2478 34.1202 38.493 34.9031 37.4413 34.9031C36.6384 34.9031 36.0087 34.5743 35.552 33.9161C35.3443 33.6002 35.2062 33.2714 35.1367 32.9291H34.1194C33.8842 32.9291 33.6905 32.857 33.5384 32.7121C33.3722 32.5541 33.289 32.3635 33.289 32.1396C33.289 31.9292 33.3722 31.7447 33.5384 31.5872C33.7044 31.4291 33.8981 31.3501 34.1194 31.3501H35.0744C35.1161 31.1003 35.185 30.8761 35.282 30.679L35.3032 30.62C35.6629 29.9751 36.1611 29.6526 36.7977 29.6526C37.0329 29.6526 37.2267 29.7316 37.3793 29.8894C37.545 30.0472 37.6281 30.2315 37.6281 30.4421C37.6281 30.6525 37.5519 30.837 37.3999 30.9951C37.2475 31.1397 37.0604 31.2187 36.8391 31.2319L36.7977 31.3305C36.7285 31.4619 36.694 31.6593 36.694 31.9226V32.2186C36.7215 32.5609 36.8047 32.8371 36.9431 33.0475C37.0679 33.2318 37.2336 33.324 37.4413 33.324C37.4969 33.324 37.5728 33.2519 37.6695 33.107C37.8219 32.9096 37.9534 32.6201 38.064 32.2385L38.1266 32.0017L38.2097 31.8042C38.6526 30.4355 39.3236 29.7512 40.2233 29.7512C40.9569 29.7512 41.5382 30.0539 41.9672 30.6592C42.1332 30.8566 42.258 31.0868 42.3406 31.3501L43.3584 31.3501ZM39.061 40.6869C39.2962 40.6869 39.49 40.759 39.642 40.9039C39.8083 41.062 39.8914 41.2525 39.8914 41.4764V42.8779C39.8914 43.1015 39.8083 43.2923 39.642 43.4504C39.49 43.595 39.2962 43.6674 39.061 43.6674C38.8255 43.6674 38.6251 43.595 38.4589 43.4504C38.3065 43.2923 38.2306 43.1015 38.2306 42.8779V41.4764C38.2306 41.2525 38.3065 41.062 38.4589 40.9039C38.6251 40.759 38.8252 40.6869 39.061 40.6869ZM26.645 37.7455V28.8239H23.0118V37.7455H26.645ZM31.192 45.0689C30.5554 44.4503 29.78 44.1414 28.8668 44.1414L28.3061 44.1609V47.7139H32.147L32.1887 47.2995C32.1887 46.4312 31.8561 45.6877 31.192 45.0689ZM46.6177 45.0099C45.9669 45.6284 45.6419 46.3651 45.6419 47.2207L45.6836 47.7142H49.5659V44.1218C49.3857 44.0821 49.1784 44.0623 48.9432 44.0623C48.043 44.0623 47.2682 44.3782 46.6177 45.0099Z" fill="#5BC660"/>
</svg>
