<svg width="77" height="77" viewBox="0 0 77 77" fill="none" xmlns="http://www.w3.org/2000/svg">
<circle cx="38.5" cy="38.5" r="37.5" fill="white" stroke="#C4C4C4" stroke-width="0.2"/>
<path d="M41.8105 52.7622C41.6654 52.3956 41.5201 52.0287 41.3751 51.662C41.0266 50.7821 40.6785 49.9024 40.33 49.0225C39.9094 47.9605 39.4892 46.8984 39.0688 45.8367C38.7072 44.9235 38.3458 44.0101 37.9842 43.0971C37.8127 42.6638 37.6437 42.2297 37.4695 41.7977C37.3741 41.5609 37.2732 41.3657 37.0639 41.204C36.9414 41.1097 36.8114 41.0555 36.6693 40.9984C36.623 40.9799 36.5766 40.9617 36.5299 40.9433C36.3058 40.8547 36.0817 40.7656 35.8574 40.677C35.0303 40.3496 34.2034 40.0221 33.3763 39.6948C32.3201 39.2765 31.2639 38.8586 30.2075 38.4402C29.2528 38.0624 28.2984 37.6844 27.3438 37.3066C26.8218 37.1001 26.2999 36.8935 25.7781 36.6867C25.754 36.6772 25.7296 36.6676 25.7057 36.658V38.8101C25.9353 38.7174 26.1651 38.6249 26.3946 38.532C27.0195 38.2799 27.6444 38.0276 28.2692 37.7755C29.1893 37.404 30.1091 37.0329 31.0293 36.6614C32.1514 36.2087 33.2731 35.7558 34.3948 35.303C35.6286 34.805 36.8622 34.3069 38.096 33.8091C39.3412 33.3063 40.5867 32.8039 41.8324 32.3011C42.989 31.8342 44.1457 31.3671 45.3025 30.9006C46.2838 30.5046 47.2651 30.1083 48.2468 29.7123C48.9499 29.4285 49.6531 29.1448 50.3561 28.861C50.6906 28.7262 51.0279 28.5966 51.3597 28.4559C51.3738 28.4497 51.3884 28.4445 51.4025 28.4386C50.945 27.981 50.4875 27.5236 50.03 27.066C49.9373 27.2956 49.8448 27.5254 49.7519 27.7549C49.4998 28.3798 49.2475 29.0047 48.9954 29.6295C48.624 30.5496 48.2528 31.4694 47.8814 32.3896C47.4286 33.5117 46.9757 34.6334 46.5229 35.7551C46.0249 36.9889 45.5268 38.2225 45.029 39.4563C44.5262 40.7015 44.0238 41.947 43.521 43.1927C43.0542 44.3494 42.5871 45.506 42.1205 46.6628C41.7245 47.6441 41.3282 48.6254 40.9322 49.6071C40.6484 50.3102 40.3647 51.0134 40.0809 51.7164C39.9461 52.0509 39.8033 52.383 39.6758 52.72C39.6703 52.7344 39.6644 52.7487 39.6585 52.7628C39.5574 53.0133 39.6407 53.4003 39.771 53.6227C39.9065 53.8541 40.1718 54.0748 40.438 54.1354C40.7235 54.2005 41.0444 54.1864 41.2979 54.0229C41.5575 53.8555 41.6957 53.6405 41.8105 53.3559C41.9032 53.1263 41.9956 52.8965 42.0886 52.667C42.3407 52.0421 42.593 51.4172 42.8451 50.7923C43.2165 49.8723 43.5877 48.9525 43.9591 48.0322C44.4119 46.9102 44.8648 45.7884 45.3176 44.6668C45.8156 43.433 46.3136 42.1994 46.8115 40.9656C47.3143 39.7204 47.8166 38.4749 48.3195 37.2292C48.7863 36.0725 49.2534 34.9159 49.72 33.7591C50.116 32.7778 50.5123 31.7965 50.9083 30.8147C51.192 30.1117 51.4758 29.4085 51.7596 28.7055C51.8944 28.371 52.0372 28.0389 52.1647 27.7019C52.1702 27.6875 52.1761 27.6732 52.182 27.6591C52.3262 27.3018 52.1517 26.8301 51.8951 26.5735C51.6384 26.3168 51.1668 26.1422 50.8095 26.2865C50.5799 26.3792 50.3502 26.4717 50.1206 26.5646C49.4957 26.8167 48.8708 27.069 48.246 27.3211C47.326 27.6926 46.4061 28.0638 45.4859 28.4352C44.3639 28.8879 43.2421 29.3408 42.1205 29.7936C40.8866 30.2916 39.653 30.7897 38.4192 31.2875C37.174 31.7903 35.9285 32.2927 34.6828 32.7955C33.5262 33.2624 32.3695 33.7295 31.2127 34.196C30.2314 34.592 29.2501 34.9883 28.2684 35.3843C27.5654 35.6681 26.8621 35.9518 26.1591 36.2356C25.8246 36.3709 25.4896 36.505 25.1555 36.6407C25.1412 36.6464 25.1268 36.6521 25.1127 36.658C24.879 36.7523 24.6916 36.8528 24.5331 37.0579C24.3878 37.246 24.2826 37.4897 24.2938 37.7341C24.3027 37.932 24.3534 38.1221 24.4461 38.2975C24.5878 38.5653 24.846 38.7047 25.1131 38.8101C25.4768 38.9543 25.8403 39.098 26.2042 39.2421C27.0777 39.588 27.9513 39.9337 28.8247 40.2797C29.8816 40.6982 30.9387 41.1165 31.9956 41.5351C32.9097 41.897 33.8238 42.2589 34.7377 42.6207C35.1822 42.7967 35.624 42.9826 36.0722 43.149C36.0786 43.1513 36.0849 43.1541 36.0913 43.1568C35.8315 42.897 35.5716 42.6371 35.3118 42.3773C35.456 42.741 35.5997 43.1048 35.7438 43.4683C36.0897 44.3419 36.4354 45.2155 36.7814 46.0888C37.1999 47.1457 37.6182 48.2028 38.0368 49.2597C38.3987 50.1739 38.7605 51.0879 39.1224 52.0018C39.2984 52.4466 39.4731 52.8922 39.6507 53.3363C39.6532 53.3427 39.6557 53.3491 39.6585 53.3555C39.7692 53.6351 39.9024 53.8649 40.1711 54.0225C40.4102 54.1625 40.7627 54.2217 41.031 54.135C41.3011 54.0475 41.5616 53.8801 41.698 53.6223C41.8296 53.3732 41.9189 53.0357 41.8105 52.7622L41.8105 52.7622Z" fill="#F99BBA"/>
<path d="M37.177 42.8705L38.8142 41.2333C39.6843 40.3632 40.5541 39.4935 41.424 38.6235C41.6239 38.4236 41.8239 38.2236 42.0236 38.0239C42.4367 37.6108 42.4677 36.8536 42.0236 36.4458C41.5782 36.0368 40.8868 36.0049 40.4454 36.4458C39.8996 36.9916 39.3541 37.5371 38.8083 38.0829C37.9381 38.9531 37.0684 39.8228 36.1985 40.6927C35.9985 40.8927 35.7986 41.0926 35.5989 41.2923C35.1858 41.7054 35.1548 42.4626 35.5989 42.8705C36.0443 43.2792 36.7362 43.3114 37.177 42.8705Z" fill="#F99BBA"/>
</svg>
