<svg width="30" height="30" viewBox="0 0 30 30" fill="none" xmlns="http://www.w3.org/2000/svg">
<path d="M25.5893 7H3.41071C3.18391 7 3 7.17404 3 7.38869V22.9362C3 23.0393 3.04327 23.1382 3.12028 23.2111C3.19729 23.284 3.3018 23.3249 3.41071 23.3249H25.5893C25.6982 23.3249 25.8027 23.284 25.8797 23.2111C25.9567 23.1382 26 23.0393 26 22.9362V7.38869C26 7.28562 25.9567 7.18671 25.8797 7.11383C25.8027 7.04095 25.6982 7 25.5893 7ZM25.1786 7.77738V10.1095H3.82143V7.77738H25.1786ZM3.82143 22.5475V10.8869H25.1786V22.5475H3.82143Z" fill="#282828"/>
<path d="M23.5357 9.33213H23.9464C24.1732 9.33213 24.3571 9.15808 24.3571 8.94344C24.3571 8.72879 24.1732 8.55475 23.9464 8.55475H23.5357C23.3089 8.55475 23.125 8.72879 23.125 8.94344C23.125 9.15808 23.3089 9.33213 23.5357 9.33213Z" fill="#282828"/>
<path d="M21.482 9.33213H21.8927C22.1195 9.33213 22.3034 9.15808 22.3034 8.94344C22.3034 8.72879 22.1195 8.55475 21.8927 8.55475H21.482C21.2552 8.55475 21.0713 8.72879 21.0713 8.94344C21.0713 9.15808 21.2552 9.33213 21.482 9.33213Z" fill="#282828"/>
<path d="M19.4293 9.33213H19.84C20.0668 9.33213 20.2507 9.15808 20.2507 8.94344C20.2507 8.72879 20.0668 8.55475 19.84 8.55475H19.4293C19.2025 8.55475 19.0186 8.72879 19.0186 8.94344C19.0186 9.15808 19.2025 9.33213 19.4293 9.33213Z" fill="#282828"/>
<path d="M17.3747 11.6642H5.05329C4.82648 11.6642 4.64258 11.8383 4.64258 12.0529V21.3815C4.64258 21.4845 4.68585 21.5834 4.76286 21.6563C4.83987 21.7292 4.94438 21.7701 5.05329 21.7701H17.3747C17.4836 21.7701 17.5881 21.7292 17.6652 21.6563C17.7422 21.5834 17.7854 21.4845 17.7854 21.3815V12.0529C17.7854 11.9499 17.7422 11.851 17.6652 11.7781C17.5881 11.7052 17.4836 11.6642 17.3747 11.6642ZM16.964 12.4416V18.6606H7.10686V18.272C7.10686 18.0573 6.92296 17.8833 6.69615 17.8833C6.46934 17.8833 6.28544 18.0573 6.28544 18.272V18.6606H5.46401V12.4416H16.964ZM5.46401 20.9928V19.438H6.28544V19.8267C6.28544 20.0414 6.46934 20.2154 6.69615 20.2154C6.92296 20.2154 7.10686 20.0414 7.10686 19.8267V19.438H16.964V20.9928H5.46401Z" fill="#282828"/>
<path d="M8.9457 17.8252C9.06689 17.8962 9.21798 17.9026 9.34541 17.8424L13.4526 15.8989C13.5917 15.833 13.6797 15.6985 13.6797 15.5512C13.6797 15.4039 13.5917 15.2694 13.4526 15.2035L9.34541 13.26C9.21816 13.1998 9.06689 13.2062 8.9457 13.277C8.82468 13.3478 8.75098 13.4731 8.75098 13.6077V17.4946C8.75098 17.6293 8.82468 17.7544 8.9457 17.8252V17.8252ZM9.57242 14.2368L12.3506 15.5512L9.57242 16.8656V14.2368Z" fill="#282828"/>
<path d="M23.9467 11.6642H19.0181C18.7913 11.6642 18.6074 11.8383 18.6074 12.0529C18.6074 12.2676 18.7913 12.4416 19.0181 12.4416H23.9467C24.1735 12.4416 24.3574 12.2676 24.3574 12.0529C24.3574 11.8383 24.1735 11.6642 23.9467 11.6642Z" fill="#282828"/>
<path d="M23.9471 13.219H22.3043C22.0775 13.219 21.8936 13.393 21.8936 13.6077C21.8936 13.8223 22.0775 13.9964 22.3043 13.9964H23.9471C24.1739 13.9964 24.3578 13.8223 24.3578 13.6077C24.3578 13.393 24.1739 13.219 23.9471 13.219Z" fill="#282828"/>
<path d="M19.0181 13.9964H20.661C20.8878 13.9964 21.0717 13.8223 21.0717 13.6077C21.0717 13.393 20.8878 13.219 20.661 13.219H19.0181C18.7913 13.219 18.6074 13.393 18.6074 13.6077C18.6074 13.8223 18.7913 13.9964 19.0181 13.9964Z" fill="#282828"/>
<path d="M23.9467 15.5511H19.0181C18.7913 15.5511 18.6074 15.7252 18.6074 15.9398C18.6074 16.1545 18.7913 16.3285 19.0181 16.3285H23.9467C24.1735 16.3285 24.3574 16.1545 24.3574 15.9398C24.3574 15.7252 24.1735 15.5511 23.9467 15.5511Z" fill="#282828"/>
<path d="M23.9471 17.1059H22.3043C22.0775 17.1059 21.8936 17.2799 21.8936 17.4946C21.8936 17.7092 22.0775 17.8833 22.3043 17.8833H23.9471C24.1739 17.8833 24.3578 17.7092 24.3578 17.4946C24.3578 17.2799 24.1739 17.1059 23.9471 17.1059Z" fill="#282828"/>
<path d="M19.0181 17.8833H20.661C20.8878 17.8833 21.0717 17.7092 21.0717 17.4946C21.0717 17.2799 20.8878 17.1059 20.661 17.1059H19.0181C18.7913 17.1059 18.6074 17.2799 18.6074 17.4946C18.6074 17.7092 18.7913 17.8833 19.0181 17.8833Z" fill="#282828"/>
<path d="M23.9467 19.438H19.0181C18.7913 19.438 18.6074 19.6121 18.6074 19.8267C18.6074 20.0414 18.7913 20.2154 19.0181 20.2154H23.9467C24.1735 20.2154 24.3574 20.0414 24.3574 19.8267C24.3574 19.6121 24.1735 19.438 23.9467 19.438Z" fill="#282828"/>
<path d="M23.9471 20.9928H22.3043C22.0775 20.9928 21.8936 21.1668 21.8936 21.3815C21.8936 21.5961 22.0775 21.7702 22.3043 21.7702H23.9471C24.1739 21.7702 24.3578 21.5961 24.3578 21.3815C24.3578 21.1668 24.1739 20.9928 23.9471 20.9928Z" fill="#282828"/>
<path d="M20.661 20.9928H19.0181C18.7913 20.9928 18.6074 21.1668 18.6074 21.3815C18.6074 21.5961 18.7913 21.7702 19.0181 21.7702H20.661C20.8878 21.7702 21.0717 21.5961 21.0717 21.3815C21.0717 21.1668 20.8878 20.9928 20.661 20.9928Z" fill="#282828"/>
</svg>
