<svg width="32" height="32" viewBox="0 0 32 32" fill="none" xmlns="http://www.w3.org/2000/svg">
<path fill-rule="evenodd" clip-rule="evenodd" d="M8.07788 3.84001C6.80643 3.84001 5.75977 4.901 5.75977 6.19654V25.4848C5.75977 26.7803 6.80648 27.84 8.07788 27.84H23.9214C25.1929 27.84 26.2396 26.7803 26.2396 25.4848V9.11991H26.2397C26.2411 8.9328 26.1695 8.75259 26.0405 8.61925L21.5478 4.04402C21.4171 3.91226 21.2403 3.83899 21.0564 3.83998L8.07788 3.84001ZM8.07788 5.25333H11.8448L11.845 8.47312C11.845 9.50063 12.6774 10.3499 13.6865 10.3499H18.3133C19.3223 10.3499 20.1563 9.50083 20.1563 8.47312L20.1561 5.25333H20.7696L24.8534 9.41219V25.4846C24.8534 26.0214 24.4496 26.4333 23.9218 26.4333H23.1337V18.5733C23.1337 17.3457 22.1443 16.3381 20.9388 16.3381H11.0608C9.85533 16.3381 8.8659 17.3457 8.8659 18.5733V26.4333H8.07778C7.54999 26.4333 7.14618 26.0213 7.14618 25.4846V6.19639C7.14618 5.65967 7.55 5.25318 8.07778 5.25318L8.07788 5.25333ZM13.2315 5.25333H18.7683V8.47312C18.7683 8.74176 18.5772 8.93773 18.3134 8.93773H13.6867C13.4229 8.93773 13.2318 8.74176 13.2318 8.47312L13.2315 5.25333ZM11.0609 17.7505H20.9389C21.4 17.7505 21.7473 18.1042 21.7473 18.5737V26.4337H10.2528V18.5737C10.2528 18.1042 10.6002 17.7505 11.0612 17.7505H11.0609Z" fill="#C4C4C4"/>
</svg>
