<svg width="20" height="16" viewBox="0 0 20 16" fill="none" xmlns="http://www.w3.org/2000/svg">
<path fill-rule="evenodd" clip-rule="evenodd" d="M10.0013 4.121C7.86125 4.131 6.13525 5.873 6.14525 8.013C6.15525 10.152 7.89725 11.879 10.0373 11.868C12.1683 11.858 13.8903 10.13 13.8933 8C13.8813 5.857 12.1442 4.125 10.0013 4.121ZM10.0013 16H9.99125C5.86225 16 2.14925 13.113 0.05925 8.28C-0.01975 8.099 -0.01975 7.892 0.05925 7.71C2.14625 2.882 5.85925 0 9.99125 0H10.0013C12.0893 0.018 14.1093 0.739 15.7382 2.046C17.5912 3.552 19.0352 5.499 19.9382 7.71C20.0162 7.892 20.0162 8.099 19.9382 8.28C17.8522 13.113 14.1363 16 10.0013 16Z" fill="#808080"/>
<path fill-rule="evenodd" clip-rule="evenodd" d="M12.4325 7.99702C12.4325 9.34102 11.3425 10.431 9.99845 10.431C8.65445 10.431 7.56445 9.34102 7.56445 7.99702C7.56545 7.83802 7.58145 7.67902 7.61345 7.52202H7.66445C8.73845 7.52302 9.62145 6.67602 9.66445 5.60102C9.77645 5.58302 9.88945 5.57302 10.0035 5.57202C11.3425 5.57302 12.4295 6.65702 12.4325 7.99702Z" fill="#808080"/>
</svg>
