<svg width="36" height="33" viewBox="0 0 36 33" fill="none" xmlns="http://www.w3.org/2000/svg">
<path d="M30.1033 11.8889C30.0406 11.7458 29.9502 11.6163 29.837 11.5075L22.577 4.3575C22.4665 4.24605 22.335 4.15694 22.1897 4.09522C22.0444 4.03431 21.888 4.00186 21.73 4H7.21C6.88914 4 6.58123 4.12555 6.35436 4.34899C6.12749 4.57242 6 4.87566 6 5.19167V31.4083C6 31.7243 6.12749 32.0276 6.35436 32.251C6.58123 32.4744 6.88914 32.6 7.21 32.6H28.99C29.3109 32.6 29.6188 32.4744 29.8456 32.251C30.0725 32.0276 30.2 31.7243 30.2 31.4083V12.3417C30.1981 12.1861 30.1652 12.032 30.1033 11.8889ZM22.9401 8.06362L26.0739 11.15H22.9401V8.06362ZM8.42011 30.2164V6.38303H20.5201V12.3414C20.5201 12.6574 20.6476 12.9606 20.8745 13.184C21.1013 13.4075 21.4092 13.533 21.7301 13.533H27.7801V30.2164H8.42011Z" fill="#282828"/>
</svg>
