<svg width="77" height="77" viewBox="0 0 77 77" fill="none" xmlns="http://www.w3.org/2000/svg">
<circle cx="38.5" cy="38.5" r="37.5" fill="white" stroke="#C4C4C4" stroke-width="0.2"/>
<path d="M51.1872 30.3991C50.5685 31.0159 49.9497 31.6327 49.3313 32.2495C48.5145 33.0635 47.6982 33.8778 46.8816 34.6918C46.4964 35.0758 46.1114 35.4597 45.7262 35.8437C44.7881 36.7789 43.85 37.7142 42.9119 38.6498C42.4007 39.1594 41.8896 39.6694 41.3782 40.1789C40.7757 40.7796 40.1734 41.3802 39.5707 41.9809C38.6607 42.8883 37.7508 43.7955 36.8405 44.703C36.5077 45.0349 36.1744 45.3673 35.8413 45.6993C34.9904 46.5476 34.1395 47.396 33.2885 48.2446C32.5417 48.9897 31.7943 49.7343 31.0474 50.4793C31.0052 50.5213 30.9632 50.5633 30.9208 50.6055C31.1872 50.495 31.4536 50.385 31.72 50.2745H27.0884H26.4364C26.8133 50.6514 27.1897 51.0279 27.5666 51.4048V46.8141V46.1567C27.4561 46.4231 27.3461 46.6895 27.2356 46.9559C27.5643 46.6272 27.8921 46.2978 28.2206 45.9687C29.0152 45.172 29.8103 44.3752 30.6052 43.5787C31.5819 42.5995 32.5587 41.6208 33.5351 40.6417C34.4025 39.7723 35.27 38.9029 36.1373 38.0333C36.6037 37.5659 37.0696 37.0986 37.5358 36.6315C37.7649 36.4023 37.9934 36.1727 38.2223 35.9435C38.9599 35.204 39.6978 34.4644 40.4353 33.7252C41.405 32.7532 42.3752 31.7809 43.3449 30.8089C44.2265 29.9254 45.1079 29.0417 45.9895 28.1583C46.4612 27.6854 46.9327 27.2127 47.4046 26.7399C47.4738 26.6704 47.5442 26.6042 47.6212 26.5429C47.5451 26.6017 47.4688 26.6608 47.3926 26.7196C47.5059 26.6356 47.6244 26.5664 47.7541 26.5104C47.6639 26.5484 47.5742 26.5862 47.4842 26.6243C47.6108 26.5743 47.7384 26.5397 47.8731 26.5194C47.773 26.533 47.6729 26.5461 47.5728 26.5597C47.7036 26.5438 47.8318 26.5429 47.9626 26.5565C47.8625 26.5429 47.7624 26.5297 47.6623 26.5161C47.7931 26.5341 47.9176 26.5662 48.0408 26.6132C47.9506 26.5752 47.8609 26.5373 47.7709 26.4993C47.8955 26.5519 48.0099 26.6172 48.119 26.6972C48.0429 26.6384 47.9665 26.5793 47.8904 26.5205C48.0489 26.6455 48.1882 26.7975 48.3312 26.9396C48.5909 27.1977 48.8509 27.4561 49.1104 27.714C49.6951 28.2952 50.2803 28.8765 50.8653 29.458C51.03 29.6218 51.209 29.7803 51.3546 29.9618C51.2957 29.8857 51.2367 29.8093 51.1779 29.7332C51.2521 29.8317 51.3137 29.9348 51.3652 30.0467C51.3271 29.9565 51.2893 29.8668 51.2512 29.7768C51.3036 29.9011 51.3398 30.028 51.3608 30.1613C51.3472 30.0612 51.334 29.9611 51.3204 29.861C51.3375 29.9943 51.3384 30.1258 51.3239 30.2591C51.3375 30.159 51.3506 30.0589 51.3642 29.9588C51.3432 30.1097 51.3036 30.2527 51.2448 30.3929C51.2828 30.3027 51.3206 30.213 51.3587 30.123C51.2999 30.2522 51.2279 30.371 51.1414 30.4833C51.2002 30.4072 51.2593 30.3309 51.3181 30.2547C51.2759 30.3041 51.233 30.3523 51.1873 30.3991C50.7749 30.8236 50.7329 31.5809 51.1873 31.9976C51.6332 32.4071 52.3452 32.4507 52.7858 31.9976C53.607 31.1529 53.819 29.9235 53.2977 28.8643C53.1307 28.525 52.8656 28.259 52.6015 27.9966C51.9776 27.3765 51.3536 26.7565 50.7299 26.1365C50.452 25.8601 50.1736 25.5836 49.8954 25.3072C49.6239 25.0373 49.3526 24.7557 49.0022 24.5869C48.4147 24.3036 47.8141 24.2268 47.1742 24.355C46.681 24.4542 46.2153 24.74 45.8591 25.0879C45.8042 25.1414 45.7507 25.1967 45.6963 25.2509C44.7701 26.1794 43.8436 27.1078 42.9174 28.0362C41.5433 29.4135 40.1693 30.7908 38.7952 32.1682C37.9046 33.0608 37.0142 33.9533 36.1236 34.846C35.69 35.2806 35.2565 35.7154 34.8229 36.1499C33.5861 37.3898 32.3492 38.6294 31.1124 39.8692C29.814 41.1706 28.5154 42.4722 27.2171 43.7737C26.8103 44.1815 26.4031 44.5897 25.9962 44.9976C25.9 45.0942 25.8038 45.1907 25.7074 45.2873C25.4611 45.5344 25.3132 45.8446 25.3063 46.1996C25.2763 47.7769 25.3063 49.3576 25.3063 50.9351V51.4048C25.3063 52.0158 25.8244 52.5351 26.4366 52.5351H30.071C30.6029 52.5351 31.1351 52.5399 31.6672 52.5351C32.0168 52.5318 32.3308 52.392 32.5748 52.1485C32.6959 52.0276 32.817 51.907 32.9383 51.7861C33.9817 50.7456 35.0252 49.7055 36.0685 48.665C36.6652 48.0701 37.262 47.475 37.8584 46.8801C38.7407 46.0003 39.6233 45.1208 40.5056 44.2408C41.3258 43.4228 42.146 42.6052 42.9665 41.7872C43.6247 41.1314 44.2825 40.4751 44.9406 39.8191C45.9585 38.8044 46.9765 37.7895 47.9942 36.7748C48.5122 36.2583 49.0301 35.7421 49.5481 35.2257C50.5606 34.2165 51.5727 33.2071 52.5851 32.198C52.652 32.1315 52.7189 32.0646 52.7855 31.998C53.2047 31.58 53.2351 30.8121 52.7855 30.3995C52.3341 29.9845 51.635 29.9534 51.1873 30.3993L51.1872 30.3991Z" fill="#FEC62E"/>
<path d="M49.2458 33.8981C48.65 33.3023 48.0542 32.7065 47.4584 32.1107C46.5074 31.1597 45.5563 30.2086 44.6053 29.2576C44.385 29.0373 44.1652 28.8175 43.9449 28.5972C43.5264 28.1787 42.7595 28.1474 42.3464 28.5972C41.9321 29.0484 41.8998 29.7487 42.3464 30.1957C42.9422 30.7915 43.538 31.3873 44.1338 31.9831C45.0848 32.9341 46.0359 33.8852 46.9869 34.8362C47.2072 35.0565 47.427 35.2763 47.6473 35.4966C48.0658 35.9151 48.8327 35.9464 49.2458 35.4966C49.6601 35.0455 49.6924 34.3451 49.2458 33.8981Z" fill="#FEC62E"/>
</svg>
