<svg width="133" height="128" viewBox="0 0 133 128" fill="none" xmlns="http://www.w3.org/2000/svg">
<g clip-path="url(#clip0_352_1588)">
<path d="M132.448 56.6589C131.271 48.1866 128.003 43.9504 123.367 37.1388C121.397 34.2505 116.159 35.9353 117.361 39.6661C133.89 88.2859 79.8103 125.064 37.5991 103.618C12.2772 90.7409 10.4033 60.7747 23.785 37.909C29.5381 27.8671 38.2831 19.8801 48.7945 15.0674C61.1912 9.45923 72.4106 11.6014 85.2157 10.446C86.5851 10.3257 87.7864 8.47238 86.489 7.38927C64.6267 -10.8793 27.5087 7.82254 13.4544 27.2705C-5.76529 54.0113 -5.76526 94.0624 22.4156 114.329C47.3531 132.308 84.8794 132.814 109.457 113.847C117.864 107.075 124.393 98.253 128.419 88.2263C132.445 78.1996 133.832 67.3049 132.448 56.5867V56.6589Z" fill="#5BC660"/>
<path d="M124.374 2.81608C108.158 8.52048 95.9772 22.0715 84.9259 34.8041C76.7633 44.1767 69.7019 54.4574 63.8804 65.4441C57.6909 57.946 50.884 50.9816 43.5316 44.6243C38.7267 40.9176 30.1258 44.1188 32.4322 51.0989C37.2371 65.5404 49.2494 77.7194 59.9403 88.0691C65.3459 93.3162 72.8896 90.3558 75.3881 83.9774C81.6859 68.9305 90.6379 55.1433 101.815 43.2764C111.641 32.4212 123.437 23.3712 129.876 9.98873C131.582 6.49869 128.723 1.27565 124.374 2.81608Z" fill="#5BC660"/>
</g>
<defs>
<clipPath id="clip0_352_1588">
<rect width="133" height="128" fill="white"/>
</clipPath>
</defs>
</svg>
