<svg width="40" height="40" viewBox="0 0 40 40" fill="none" xmlns="http://www.w3.org/2000/svg">
<path d="M24.568 28.5159C24.3296 28.5159 24.1362 28.7048 24.1362 28.9378V33.1563H6.8635V13.7511H12.4771C12.5916 13.7511 12.7015 13.7066 12.7825 13.6275C12.8635 13.5484 12.909 13.4411 12.909 13.3292V7.84512H24.1362V10.3762C24.1362 10.6092 24.3296 10.7981 24.568 10.7981C24.8065 10.7981 24.9999 10.6092 24.9999 10.3762V7.42327C24.9999 7.31141 24.9544 7.20406 24.8734 7.12496C24.7924 7.04586 24.6826 7.00142 24.568 7.00142H12.5571C12.4171 6.99125 12.2789 7.03607 12.1729 7.1259L6.12742 13.0318C6.04627 13.1106 6.00058 13.2175 6 13.3292V33.5781C6 33.69 6.0455 33.7974 6.12646 33.8765C6.20743 33.9556 6.31731 34 6.43182 34H24.5682C24.6827 34 24.7926 33.9556 24.8735 33.8765C24.9545 33.7974 25 33.69 25 33.5781V28.9378C25 28.8259 24.9545 28.7186 24.8735 28.6395C24.7926 28.5604 24.6827 28.5159 24.5682 28.5159H24.568ZM12.0453 8.44199V12.9072H7.47461L12.0453 8.44199Z" fill="#282828"/>
<path d="M31.7675 11H20.264C19.9372 11 19.6235 11.1355 19.3924 11.3765C19.1614 11.6176 19.0315 11.9448 19.0315 12.2857V12.7872C19.032 14.1884 18.3311 15.4885 17.1827 16.2157C17.0358 16.3181 16.9679 16.5071 17.0145 16.6851C17.0611 16.863 17.2117 16.9899 17.3881 17H31.7675C32.0943 17 32.408 16.8645 32.639 16.6235C32.8701 16.3824 33 16.0552 33 15.7143V12.2857C33 11.9448 32.8701 11.6176 32.639 11.3765C32.408 11.1355 32.0943 11 31.7675 11L31.7675 11ZM32.1783 15.7143C32.1783 15.828 32.135 15.937 32.058 16.0174C31.981 16.0977 31.8764 16.1429 31.7675 16.1429H18.5549C19.3852 15.24 19.8501 14.0383 19.8531 12.7872V12.2857C19.8531 12.0491 20.037 11.8571 20.2639 11.8571H31.7674C31.8763 11.8571 31.9809 11.9023 32.0579 11.9827C32.1349 12.063 32.1782 12.1721 32.1782 12.2857L32.1783 15.7143Z" fill="#282828"/>
<path d="M24.5 14H21.5C21.2239 14 21 14.2239 21 14.5C21 14.7761 21.2239 15 21.5 15H24.5C24.7761 15 25 14.7761 25 14.5C25 14.2239 24.7761 14 24.5 14Z" fill="#282828"/>
<path d="M29.5833 14H25.4167C25.1866 14 25 14.2239 25 14.5C25 14.7761 25.1866 15 25.4167 15H29.5833C29.8134 15 30 14.7761 30 14.5C30 14.2239 29.8134 14 29.5833 14Z" fill="#282828"/>
<path d="M31.7675 19H20.264C19.9372 19 19.6235 19.1264 19.3924 19.3514C19.1614 19.5764 19.0315 19.8818 19.0315 20.2V23.068C19.032 24.3759 18.3311 25.5893 17.1827 26.268C17.0358 26.3636 16.9679 26.54 17.0145 26.7061C17.0611 26.8721 17.2117 26.9905 17.3881 27H31.7675C32.0943 27 32.408 26.8736 32.639 26.6486C32.8701 26.4236 33 26.1182 33 25.8V20.2C33 19.8818 32.8701 19.5764 32.639 19.3514C32.408 19.1265 32.0943 19 31.7675 19L31.7675 19ZM32.1783 25.8C32.1783 25.9061 32.135 26.0079 32.058 26.0829C31.981 26.1579 31.8764 26.2 31.7675 26.2H18.5549C19.3852 25.3573 19.8501 24.2357 19.8531 23.068V20.2C19.8531 19.9791 20.037 19.8 20.2639 19.8H31.7674C31.8763 19.8 31.9809 19.8421 32.0579 19.9171C32.1349 19.9921 32.1782 20.0939 32.1782 20.2L32.1783 25.8Z" fill="#282828"/>
<path d="M21.5 22H23.5C23.7761 22 24 21.7761 24 21.5C24 21.2239 23.7761 21 23.5 21H21.5C21.2239 21 21 21.2239 21 21.5C21 21.7761 21.2239 22 21.5 22Z" fill="#282828"/>
<path d="M29.6429 21H25.3571C25.1599 21 25 21.2239 25 21.5C25 21.7761 25.1599 22 25.3571 22H29.6429C29.8401 22 30 21.7761 30 21.5C30 21.2239 29.8401 21 29.6429 21Z" fill="#282828"/>
<path d="M24.6 24H21.4C21.1791 24 21 24.2239 21 24.5C21 24.7761 21.1791 25 21.4 25H24.6C24.8209 25 25 24.7761 25 24.5C25 24.2239 24.8209 24 24.6 24Z" fill="#282828"/>
<path d="M29.6 24H26.4C26.1791 24 26 24.2239 26 24.5C26 24.7761 26.1791 25 26.4 25H29.6C29.8209 25 30 24.7761 30 24.5C30 24.2239 29.8209 24 29.6 24Z" fill="#282828"/>
<path d="M10.5 15C10.1022 15 9.72069 15.158 9.43929 15.4393C9.15804 15.7207 9 16.1022 9 16.5C9 16.8978 9.15804 17.2793 9.43929 17.5607C9.7207 17.842 10.1022 18 10.5 18C10.8978 18 11.2793 17.842 11.5607 17.5607C11.842 17.2793 12 16.8978 12 16.5C12 16.1022 11.842 15.7207 11.5607 15.4393C11.2793 15.158 10.8978 15 10.5 15ZM10.5 17.25C10.3011 17.25 10.1103 17.171 9.96964 17.0304C9.82902 16.8897 9.75 16.6989 9.75 16.5C9.75 16.3011 9.82902 16.1103 9.96964 15.9696C10.1103 15.829 10.3011 15.75 10.5 15.75C10.6989 15.75 10.8897 15.829 11.0304 15.9696C11.171 16.1103 11.25 16.3011 11.25 16.5C11.25 16.6989 11.171 16.8897 11.0304 17.0304C10.8897 17.171 10.6989 17.25 10.5 17.25Z" fill="#282828"/>
<path d="M10.5 25C10.1022 25 9.72069 25.2107 9.43929 25.5857C9.15804 25.9609 9 26.4697 9 27C9 27.5303 9.15804 28.0391 9.43929 28.4143C9.7207 28.7893 10.1022 29 10.5 29C10.8978 29 11.2793 28.7893 11.5607 28.4143C11.842 28.0391 12 27.5303 12 27C12 26.4697 11.842 25.9609 11.5607 25.5857C11.2793 25.2107 10.8978 25 10.5 25ZM10.5 28C10.3011 28 10.1103 27.8946 9.96964 27.7071C9.82902 27.5196 9.75 27.2652 9.75 27C9.75 26.7348 9.82902 26.4804 9.96964 26.2929C10.1103 26.1054 10.3011 26 10.5 26C10.6989 26 10.8897 26.1054 11.0304 26.2929C11.171 26.4804 11.25 26.7348 11.25 27C11.25 27.2652 11.171 27.5196 11.0304 27.7071C10.8897 27.8946 10.6989 28 10.5 28Z" fill="#282828"/>
<path d="M13.3333 16H14.6667C14.8507 16 15 15.7761 15 15.5C15 15.2239 14.8507 15 14.6667 15H13.3333C13.1493 15 13 15.2239 13 15.5C13 15.7761 13.1493 16 13.3333 16Z" fill="#282828"/>
<path d="M17 20.5C17 20.3674 16.9579 20.2402 16.8829 20.1464C16.8079 20.0527 16.7061 20 16.6 20H13.4C13.1791 20 13 20.2239 13 20.5C13 20.7761 13.1791 21 13.4 21H16.6C16.7061 21 16.8079 20.9473 16.8829 20.8536C16.9579 20.7598 17 20.6326 17 20.5Z" fill="#282828"/>
<path d="M13.3333 26H14.6667C14.8507 26 15 25.7761 15 25.5C15 25.2239 14.8507 25 14.6667 25H13.3333C13.1493 25 13 25.2239 13 25.5C13 25.7761 13.1493 26 13.3333 26Z" fill="#282828"/>
<path d="M13.3333 29H14.6667C14.8507 29 15 28.7761 15 28.5C15 28.2239 14.8507 28 14.6667 28H13.3333C13.1493 28 13 28.2239 13 28.5C13 28.7761 13.1493 29 13.3333 29Z" fill="#282828"/>
<path d="M13.4091 31H21.5909C21.8168 31 22 30.7761 22 30.5C22 30.2239 21.8168 30 21.5909 30H13.4091C13.1832 30 13 30.2239 13 30.5C13 30.7761 13.1832 31 13.4091 31Z" fill="#282828"/>
</svg>
