<svg width="40" height="40" viewBox="0 0 40 40" fill="none" xmlns="http://www.w3.org/2000/svg">
<path d="M32.2 11.8H7.4C7.17911 11.8 7 11.6209 7 11.4C7 11.1791 7.17911 11 7.4 11H32.2C32.4209 11 32.6 11.1791 32.6 11.4C32.6 11.6209 32.4209 11.8 32.2 11.8Z" fill="black"/>
<path d="M30.5998 9.4C30.5998 9.62089 30.4207 9.8 30.1998 9.8C29.9789 9.8 29.7998 9.62089 29.7998 9.4C29.7998 9.17911 29.9789 9 30.1998 9C30.4207 9 30.5998 9.17911 30.5998 9.4Z" fill="black"/>
<path d="M29.0002 9.4C29.0002 9.62089 28.8211 9.8 28.6002 9.8C28.3793 9.8 28.2002 9.62089 28.2002 9.4C28.2002 9.17911 28.3793 9 28.6002 9C28.8211 9 29.0002 9.17911 29.0002 9.4Z" fill="black"/>
<path d="M27.3996 9.4C27.3996 9.62089 27.2205 9.8 26.9996 9.8C26.7787 9.8 26.5996 9.62089 26.5996 9.4C26.5996 9.17911 26.7787 9 26.9996 9C27.2205 9 27.3996 9.17911 27.3996 9.4Z" fill="black"/>
<path d="M31.201 32.6H8.40097C8.02972 32.6 7.67365 32.4525 7.41098 32.19C7.14848 31.9273 7.00098 31.5712 7.00098 31.2V8.39999C7.00098 8.02874 7.14848 7.67268 7.41098 7.41C7.67366 7.1475 8.02972 7 8.40097 7H31.201C31.5722 7 31.9283 7.1475 32.191 7.41C32.4535 7.67268 32.601 8.02875 32.601 8.39999V31.2C32.601 31.5712 32.4535 31.9273 32.191 32.19C31.9283 32.4525 31.5722 32.6 31.201 32.6ZM8.40097 7.79998C8.06954 7.79998 7.80097 8.06855 7.80097 8.39998V31.2C7.80097 31.5314 8.06954 31.8 8.40097 31.8H31.201C31.5324 31.8 31.801 31.5314 31.801 31.2V8.39998C31.801 8.06855 31.5324 7.79998 31.201 7.79998H8.40097Z" fill="black"/>
<path d="M29.8004 30.1999H9.80039C9.5795 30.1999 9.40039 30.0208 9.40039 29.7999C9.40039 29.579 9.5795 29.3999 9.80039 29.3999H29.8004C30.0213 29.3999 30.2004 29.579 30.2004 29.7999C30.2004 30.0208 30.0213 30.1999 29.8004 30.1999Z" fill="black"/>
<path d="M16.8004 30.2C16.5795 30.2 16.4004 30.0209 16.4004 29.8V27.4C16.4004 27.1791 16.5795 27 16.8004 27C17.0213 27 17.2004 27.1791 17.2004 27.4V29.8C17.2004 29.9061 17.1582 30.0079 17.0832 30.0829C17.0082 30.1579 16.9065 30.2 16.8004 30.2Z" fill="black"/>
<path d="M22.7994 30.2001C22.5785 30.2001 22.3994 30.021 22.3994 29.8001V25.0001C22.3994 24.7792 22.5785 24.6001 22.7994 24.6001C23.0203 24.6001 23.1994 24.7792 23.1994 25.0001V29.8001C23.1994 29.9062 23.1573 30.008 23.0823 30.083C23.0073 30.158 22.9055 30.2001 22.7994 30.2001Z" fill="black"/>
<path d="M28.6002 30.2C28.3793 30.2 28.2002 30.0209 28.2002 29.8V24.2C28.2002 23.9792 28.3793 23.8 28.6002 23.8C28.8211 23.8 29.0002 23.9792 29.0002 24.2V29.8C29.0002 29.9061 28.9581 30.0079 28.8831 30.0829C28.8081 30.1579 28.7063 30.2 28.6002 30.2Z" fill="black"/>
<path d="M16.8002 27.8001C16.3759 27.8001 15.9689 27.6315 15.6688 27.3315C15.3688 27.0313 15.2002 26.6244 15.2002 26.2001C15.2002 25.7758 15.3688 25.3688 15.6688 25.0687C15.9689 24.7687 16.3759 24.6001 16.8002 24.6001C17.2245 24.6001 17.6315 24.7687 17.9316 25.0687C18.2316 25.3688 18.4002 25.7758 18.4002 26.2001C18.4002 26.6244 18.2316 27.0314 17.9316 27.3315C17.6314 27.6315 17.2245 27.8001 16.8002 27.8001ZM16.8002 25.4001C16.5881 25.4001 16.3845 25.4844 16.2345 25.6344C16.0845 25.7844 16.0002 25.988 16.0002 26.2001C16.0002 26.4122 16.0845 26.6158 16.2345 26.7658C16.3845 26.9158 16.5881 27.0001 16.8002 27.0001C17.0123 27.0001 17.2159 26.9158 17.3659 26.7658C17.5159 26.6158 17.6002 26.4122 17.6002 26.2001C17.6002 25.988 17.5159 25.7844 17.3659 25.6344C17.2159 25.4844 17.0123 25.4001 16.8002 25.4001Z" fill="black"/>
<path d="M17.9996 26.2C17.8081 26.1986 17.6444 26.0616 17.6094 25.8734C17.5742 25.6852 17.6774 25.4984 17.8556 25.4281L21.4556 24.0281C21.556 23.9802 21.6719 23.9765 21.7753 24.0177C21.8785 24.0588 21.9601 24.1411 22.0003 24.2448C22.0405 24.3486 22.0356 24.4645 21.9869 24.5645C21.9381 24.6645 21.8499 24.7397 21.7435 24.772L18.1435 26.172C18.098 26.1911 18.049 26.2006 17.9996 26.2L17.9996 26.2Z" fill="black"/>
<path d="M24.2002 24.0003C23.9793 24.014 23.789 23.8462 23.7752 23.6253C23.7615 23.4044 23.9293 23.214 24.1502 23.2003L27.3502 22.8003C27.5711 22.7726 27.7725 22.9294 27.8002 23.1503C27.8279 23.3712 27.6711 23.5726 27.4502 23.6003L24.2502 24.0003C24.2336 24.0023 24.2168 24.0023 24.2002 24.0003Z" fill="black"/>
<path d="M22.8002 25.4C22.3759 25.4 21.9689 25.2314 21.6688 24.9314C21.3688 24.6312 21.2002 24.2242 21.2002 23.8C21.2002 23.3757 21.3688 22.9687 21.6688 22.6685C21.9689 22.3685 22.3759 22.2 22.8002 22.2C23.2245 22.2 23.6315 22.3685 23.9316 22.6685C24.2316 22.9687 24.4002 23.3757 24.4002 23.8C24.4002 24.2242 24.2316 24.6312 23.9316 24.9314C23.6314 25.2314 23.2245 25.4 22.8002 25.4ZM22.8002 23C22.5881 23 22.3845 23.0842 22.2345 23.2342C22.0845 23.3842 22.0002 23.5878 22.0002 23.8C22.0002 24.0121 22.0845 24.2157 22.2345 24.3657C22.3845 24.5157 22.5881 24.6 22.8002 24.6C23.0123 24.6 23.2159 24.5157 23.3659 24.3657C23.5159 24.2157 23.6002 24.0121 23.6002 23.8C23.6002 23.5878 23.5159 23.3842 23.3659 23.2342C23.2159 23.0842 23.0123 23 22.8002 23Z" fill="black"/>
<path d="M28.6 24.5999C28.1757 24.5999 27.7687 24.4313 27.4686 24.1313C27.1686 23.8312 27 23.4242 27 22.9999C27 22.5756 27.1686 22.1686 27.4686 21.8685C27.7687 21.5685 28.1757 21.3999 28.6 21.3999C29.0243 21.3999 29.4313 21.5685 29.7314 21.8685C30.0314 22.1687 30.2 22.5756 30.2 22.9999C30.2 23.4242 30.0314 23.8312 29.7314 24.1313C29.4313 24.4313 29.0243 24.5999 28.6 24.5999ZM28.6 22.1999C28.3879 22.1999 28.1843 22.2842 28.0343 22.4342C27.8843 22.5842 27.8 22.7878 27.8 22.9999C27.8 23.212 27.8843 23.4156 28.0343 23.5656C28.1843 23.7156 28.3879 23.7999 28.6 23.7999C28.8121 23.7999 29.0157 23.7156 29.1657 23.5656C29.3157 23.4156 29.4 23.212 29.4 22.9999C29.4 22.7878 29.3157 22.5842 29.1657 22.4342C29.0157 22.2842 28.8121 22.1999 28.6 22.1999Z" fill="black"/>
<path d="M10.9996 30.2C10.7787 30.2 10.5996 30.0209 10.5996 29.8V27.4C10.5996 27.1791 10.7787 27 10.9996 27C11.2205 27 11.3996 27.1791 11.3996 27.4V29.8C11.3996 29.9061 11.3575 30.0079 11.2825 30.0829C11.2075 30.1579 11.1057 30.2 10.9996 30.2Z" fill="black"/>
<path d="M11.0004 27.8001C10.5761 27.8001 10.1691 27.6315 9.86896 27.3315C9.56896 27.0313 9.40039 26.6244 9.40039 26.2001C9.40039 25.7758 9.56896 25.3688 9.86896 25.0687C10.1691 24.7687 10.5761 24.6001 11.0004 24.6001C11.4247 24.6001 11.8317 24.7687 12.1318 25.0687C12.4318 25.3688 12.6004 25.7758 12.6004 26.2001C12.6004 26.6244 12.4318 27.0314 12.1318 27.3315C11.8316 27.6315 11.4247 27.8001 11.0004 27.8001ZM11.0004 25.4001C10.7882 25.4001 10.5847 25.4844 10.4347 25.6344C10.2847 25.7844 10.2004 25.988 10.2004 26.2001C10.2004 26.4122 10.2847 26.6158 10.4347 26.7658C10.5847 26.9158 10.7882 27.0001 11.0004 27.0001C11.2125 27.0001 11.4161 26.9158 11.5661 26.7658C11.7161 26.6158 11.8004 26.4122 11.8004 26.2001C11.8004 25.988 11.7161 25.7844 11.5661 25.6344C11.4161 25.4844 11.2125 25.4001 11.0004 25.4001Z" fill="black"/>
<path d="M15.5998 26.6H12.1998C11.9789 26.6 11.7998 26.4209 11.7998 26.2C11.7998 25.9792 11.9789 25.8 12.1998 25.8H15.5998C15.8207 25.8 15.9998 25.9792 15.9998 26.2C15.9998 26.4209 15.8207 26.6 15.5998 26.6Z" fill="black"/>
<path d="M13.1004 20.8001C12.1191 20.8001 11.178 20.4103 10.4841 19.7164C9.7902 19.0224 9.40039 18.0813 9.40039 17.1001C9.40039 16.1189 9.79021 15.1778 10.4841 14.4839C11.1781 13.79 12.1192 13.4001 13.1004 13.4001C14.0816 13.4001 15.0227 13.79 15.7166 14.4839C16.4105 15.1778 16.8003 16.1189 16.8003 17.1001C16.7993 18.081 16.4091 19.0215 15.7155 19.7153C15.0218 20.4089 14.0813 20.7991 13.1004 20.8001ZM13.1004 14.1999C12.3313 14.1999 11.5936 14.5054 11.0499 15.0493C10.5059 15.5931 10.2004 16.3308 10.2004 17.0998C10.2004 17.8689 10.5059 18.6066 11.0499 19.1504C11.5936 19.6943 12.3313 19.9998 13.1004 19.9998C13.8695 19.9998 14.6072 19.6943 15.1509 19.1504C15.6948 18.6066 16.0003 17.8689 16.0003 17.0998C15.9998 16.3309 15.6941 15.5936 15.1503 15.0498C14.6066 14.5061 13.8693 14.2004 13.1003 14.1998L13.1004 14.1999Z" fill="black"/>
<path d="M13.0998 18.02C12.6993 18.02 12.3154 17.8609 12.0322 17.5776C11.749 17.2944 11.5898 16.9105 11.5898 16.51C11.5898 16.1095 11.749 15.7255 12.0322 15.4423C12.3154 15.1591 12.6993 15 13.0998 15C13.5003 15 13.8843 15.1591 14.1675 15.4423C14.4507 15.7255 14.6098 16.1095 14.6098 16.51C14.6093 16.9103 14.45 17.2941 14.1669 17.5771C13.8839 17.8602 13.5002 18.0195 13.0998 18.02L13.0998 18.02ZM13.0998 15.8C12.9114 15.8 12.7309 15.8748 12.5979 16.008C12.4647 16.1411 12.3898 16.3216 12.3898 16.51C12.3898 16.6983 12.4647 16.8789 12.5979 17.0119C12.7309 17.1451 12.9115 17.2199 13.0998 17.2199C13.2882 17.2199 13.4688 17.1451 13.6018 17.0119C13.735 16.8789 13.8098 16.6983 13.8098 16.51C13.8098 16.3216 13.735 16.141 13.6018 16.008C13.4687 15.8748 13.2882 15.8 13.0998 15.8Z" fill="black"/>
<path d="M15.1041 20.0241C14.8832 20.0241 14.7041 19.8452 14.7041 19.6241C14.7041 19.0525 14.3993 18.5242 13.9041 18.2385C13.4091 17.9526 12.7993 17.9526 12.3041 18.2385C11.8091 18.5242 11.5041 19.0525 11.5041 19.6241C11.5041 19.8452 11.3252 20.0241 11.1041 20.0241C10.8832 20.0241 10.7041 19.8452 10.7041 19.6241C10.7041 18.7668 11.1616 17.9744 11.9041 17.5457C12.6468 17.1169 13.5616 17.1169 14.3041 17.5457C15.0468 17.9744 15.5041 18.7668 15.5041 19.6241C15.5041 19.7302 15.462 19.8319 15.387 19.9069C15.312 19.9819 15.2102 20.0241 15.1041 20.0241Z" fill="black"/>
<path d="M25.8002 15H18.6002C18.3793 15 18.2002 14.8208 18.2002 14.6C18.2002 14.3791 18.3793 14.2 18.6002 14.2H25.8002C26.0211 14.2 26.2002 14.3791 26.2002 14.6C26.2002 14.8208 26.0211 15 25.8002 15Z" fill="black"/>
<path d="M29.8002 16.6H18.6002C18.3793 16.6 18.2002 16.4209 18.2002 16.2C18.2002 15.9792 18.3793 15.8 18.6002 15.8H29.8002C30.0211 15.8 30.2002 15.9792 30.2002 16.2C30.2002 16.4209 30.0211 16.6 29.8002 16.6Z" fill="black"/>
<path d="M25.8002 19.8H18.6002C18.3793 19.8 18.2002 19.6209 18.2002 19.4C18.2002 19.1791 18.3793 19 18.6002 19H25.8002C26.0211 19 26.2002 19.1791 26.2002 19.4C26.2002 19.6209 26.0211 19.8 25.8002 19.8Z" fill="black"/>
</svg>
