<svg width="121" height="120" viewBox="0 0 121 120" fill="none" xmlns="http://www.w3.org/2000/svg">
<circle cx="60.5" cy="60" r="59.5" stroke="#CFCFCF" stroke-dasharray="10 10"/>
<path d="M60.7959 46.6995C58.1573 46.6995 55.5144 47.7424 53.5012 49.8368C51.7927 51.6142 50.8085 53.8615 50.5499 56.1785C46.3483 56.5753 43.0615 60.245 43.0615 64.7195C43.0615 69.4586 46.7545 73.3004 51.3099 73.3004H71.5184C75.4027 73.3004 78.5295 70.0473 78.5295 66.0068C78.5295 61.9659 75.4024 58.713 71.5184 58.713H71.0288C71.3922 55.5577 70.4051 52.2585 68.0775 49.8372C66.0643 47.7428 63.4345 46.6995 60.7959 46.6995ZM60.7959 55.7094C61.2516 55.7094 61.6207 56.0937 61.6207 56.5674V65.7919L64.7783 62.8022C65.0985 62.4981 65.6448 62.5364 65.9512 62.8557C66.2688 63.1867 66.2095 63.7745 65.8867 64.0759L61.35 68.3664C61.1684 68.539 61.0145 68.5815 60.7959 68.5809C60.5752 68.5768 60.3595 68.4789 60.2418 68.3664L55.7051 64.0759C55.3662 63.7688 55.3498 63.1901 55.6406 62.8557C55.9317 62.5214 56.4933 62.4981 56.8135 62.8022L59.9711 65.7919V56.5674C59.9711 56.0934 60.3402 55.7094 60.7959 55.7094Z" fill="#1229C6"/>
</svg>
