<svg width="203" height="203" viewBox="0 0 203 203" fill="none" xmlns="http://www.w3.org/2000/svg">
<circle cx="101.5" cy="101.5" r="101" stroke="#CFCFCF" stroke-dasharray="10 10"/>
<path d="M102.001 79C97.5371 79 93.0661 80.7643 89.6604 84.3073C86.7702 87.3141 85.1053 91.1157 84.6678 95.0353C77.5601 95.7066 72 101.915 72 109.484C72 117.501 78.2473 124 85.9535 124H120.14C126.71 124 132 118.497 132 111.661C132 104.826 126.71 99.323 120.14 99.323H119.311C119.926 93.9852 118.256 88.4041 114.319 84.3079C110.913 80.765 106.464 79 102.001 79ZM102.001 94.2418C102.772 94.2418 103.396 94.8919 103.396 95.6933V111.298L108.737 106.24C109.279 105.726 110.203 105.791 110.722 106.331C111.259 106.891 111.159 107.885 110.613 108.395L102.938 115.653C102.631 115.945 102.37 116.017 102.001 116.016C101.627 116.009 101.262 115.844 101.063 115.653L93.3886 108.395C92.8154 107.876 92.7876 106.897 93.2796 106.331C93.7721 105.766 94.7221 105.726 95.2638 106.24L100.605 111.298V95.6933C100.605 94.8914 101.23 94.2418 102.001 94.2418Z" fill="#1229C6"/>
</svg>
