<svg width="41" height="42" viewBox="0 0 41 42" fill="none" xmlns="http://www.w3.org/2000/svg">
<path fill-rule="evenodd" clip-rule="evenodd" d="M20.3913 42C31.6531 42 40.7826 32.598 40.7826 21C40.7826 9.40202 31.6531 0 20.3913 0C9.1295 0 0 9.40202 0 21C0 32.598 9.1295 42 20.3913 42ZM19.0207 13.1466L6.68512 25.0242C5.92815 25.7531 5.92815 26.9348 6.68512 27.6637C7.44209 28.3925 8.66939 28.3925 9.42636 27.6637L18.453 18.9722V29.4H22.3297V18.9722L31.3563 27.6637C32.1132 28.3925 33.3405 28.3925 34.0975 27.6637C34.8545 26.9348 34.8545 25.7531 34.0975 25.0242L21.7619 13.1466C21.0049 12.4178 19.7777 12.4178 19.0207 13.1466Z" fill="#1229C6"/>
</svg>
