<svg width="233" height="69" viewBox="0 0 233 69" fill="none" xmlns="http://www.w3.org/2000/svg">
<path d="M85.4086 49.5093C85.5448 51.1855 85.9942 52.6555 86.7569 53.9195C87.5196 55.211 88.65 56.2139 90.1482 56.9284C91.6736 57.6428 93.5939 58 95.9092 58C97.8432 58 99.5865 57.6428 101.139 56.9284C102.692 56.2414 103.931 55.1423 104.857 53.631C105.811 52.1197 106.287 50.1551 106.287 47.737V29.1894H100.363V47.737C100.363 48.8911 100.145 49.8528 99.7091 50.6222C99.3005 51.419 98.7421 52.0098 98.0339 52.3945C97.3256 52.8067 96.5357 53.0128 95.6641 53.0128C94.8741 53.0128 94.1659 52.8754 93.5394 52.6006C92.9129 52.3533 92.409 51.9686 92.0277 51.4465C91.6736 50.9244 91.4556 50.2787 91.3739 49.5093H85.4086ZM85 38.422C85 40.5378 85.4222 42.3101 86.2666 43.739C87.1383 45.1678 88.2551 46.2532 89.617 46.9951C90.979 47.7095 92.4226 48.0667 93.948 48.0667C95.5279 48.0667 96.9171 47.6958 98.1156 46.9539C99.3413 46.1845 100.308 45.0854 101.017 43.6565C101.725 42.2002 102.079 40.4553 102.079 38.422C102.079 36.3611 101.725 34.6163 101.017 33.1874C100.308 31.7586 99.3413 30.6732 98.1156 29.9313C96.9171 29.1619 95.5279 28.7772 93.948 28.7772C92.4226 28.7772 90.979 29.1344 89.617 29.8489C88.2551 30.5633 87.1383 31.6349 86.2666 33.0638C85.4222 34.4926 85 36.2787 85 38.422ZM91.4965 38.422C91.4965 37.4328 91.7008 36.5947 92.1094 35.9078C92.518 35.2208 93.0627 34.6987 93.7437 34.3415C94.4247 33.9843 95.1738 33.8057 95.9909 33.8057C96.5085 33.8057 97.026 33.9019 97.5436 34.0942C98.0611 34.2866 98.5242 34.5751 98.9327 34.9598C99.3686 35.3445 99.7091 35.8253 99.9542 36.4024C100.227 36.9794 100.363 37.6526 100.363 38.422C100.363 39.4387 100.145 40.2905 99.7091 40.9774C99.2732 41.6644 98.7148 42.1865 98.0339 42.5437C97.3801 42.8734 96.6991 43.0383 95.9909 43.0383C95.1738 43.0383 94.4247 42.8597 93.7437 42.5025C93.0627 42.1452 92.518 41.6232 92.1094 40.9362C91.7008 40.2218 91.4965 39.3837 91.4965 38.422Z" fill="white"/>
<path d="M120.602 48.5613C122.999 48.5613 125.028 48.0942 126.69 47.16C128.379 46.2257 129.714 44.8243 130.694 42.9558L125.178 41.5957C124.715 42.42 124.089 43.0383 123.299 43.4504C122.536 43.8626 121.61 44.0687 120.52 44.0687C119.567 44.0687 118.763 43.8626 118.11 43.4504C117.456 43.0108 116.966 42.3788 116.639 41.5545C116.312 40.7301 116.149 39.7409 116.149 38.5869C116.176 37.3229 116.339 36.2787 116.639 35.4544C116.966 34.6026 117.442 33.9706 118.069 33.5584C118.695 33.1462 119.472 32.9401 120.398 32.9401C121.133 32.9401 121.773 33.105 122.318 33.4347C122.863 33.7645 123.285 34.2316 123.585 34.8361C123.884 35.4406 124.034 36.1551 124.034 36.9794C124.034 37.1717 123.98 37.419 123.871 37.7213C123.789 37.9961 123.68 38.2296 123.544 38.422L125.015 36.526H113.411V39.9882H130.572C130.626 39.7959 130.653 39.5623 130.653 39.2875C130.653 38.9853 130.653 38.683 130.653 38.3808C130.653 36.3474 130.258 34.6163 129.468 33.1874C128.678 31.7586 127.534 30.6732 126.036 29.9313C124.538 29.1619 122.7 28.7772 120.52 28.7772C118.341 28.7772 116.448 29.1757 114.841 29.9725C113.261 30.7694 112.049 31.9097 111.205 33.3935C110.36 34.8773 109.938 36.6359 109.938 38.6693C109.938 40.6752 110.374 42.42 111.246 43.9038C112.117 45.3876 113.343 46.5417 114.923 47.366C116.53 48.1629 118.423 48.5613 120.602 48.5613Z" fill="white"/>
<path d="M132.257 29.1894V34.3415H144.841V29.1894H132.257ZM135.566 22.5947V48.1492H141.491V22.5947H135.566Z" fill="white"/>
<path d="M153.599 16H147.43V48.1492H153.599V16ZM168.962 38.6693C168.962 36.526 168.526 34.7262 167.655 33.2699C166.81 31.8135 165.707 30.7007 164.345 29.9313C163.011 29.1619 161.567 28.7772 160.014 28.7772C158.462 28.7772 157.072 29.1757 155.847 29.9725C154.621 30.7694 153.654 31.9097 152.946 33.3935C152.238 34.8499 151.883 36.6084 151.883 38.6693C151.883 40.7027 152.238 42.4612 152.946 43.945C153.654 45.4289 154.621 46.5692 155.847 47.366C157.072 48.1629 158.462 48.5613 160.014 48.5613C161.567 48.5613 163.011 48.1766 164.345 47.4073C165.707 46.6379 166.81 45.525 167.655 44.0687C168.526 42.5849 168.962 40.7851 168.962 38.6693ZM162.466 38.6693C162.466 39.6585 162.261 40.524 161.853 41.2659C161.444 41.9804 160.9 42.5437 160.219 42.9558C159.538 43.3405 158.789 43.5329 157.971 43.5329C157.263 43.5329 156.569 43.3405 155.888 42.9558C155.234 42.5711 154.689 42.0216 154.253 41.3072C153.817 40.5653 153.599 39.686 153.599 38.6693C153.599 37.6526 153.817 36.787 154.253 36.0726C154.689 35.3307 155.234 34.7674 155.888 34.3827C156.569 33.998 157.263 33.8057 157.971 33.8057C158.789 33.8057 159.538 34.0118 160.219 34.4239C160.9 34.8086 161.444 35.3719 161.853 36.1138C162.261 36.8283 162.466 37.6801 162.466 38.6693Z" fill="white"/>
<path d="M177.469 42.2139C177.469 41.7468 177.577 41.3621 177.795 41.0599C178.013 40.7301 178.34 40.4828 178.776 40.318C179.212 40.1531 179.797 40.0707 180.533 40.0707C181.486 40.0707 182.385 40.208 183.23 40.4828C184.101 40.7301 184.864 41.1011 185.518 41.5957V38.8342C185.191 38.4769 184.7 38.1335 184.047 37.8037C183.393 37.474 182.603 37.1992 181.677 36.9794C180.778 36.7596 179.757 36.6497 178.613 36.6497C176.27 36.6497 174.459 37.1855 173.178 38.2571C171.898 39.3013 171.258 40.7301 171.258 42.5437C171.258 43.8351 171.558 44.9343 172.157 45.841C172.783 46.7478 173.601 47.4347 174.608 47.9019C175.644 48.3415 176.76 48.5613 177.959 48.5613C179.157 48.5613 180.274 48.3553 181.309 47.9431C182.344 47.5034 183.189 46.8714 183.842 46.0471C184.496 45.1953 184.823 44.1649 184.823 42.9558L184.169 40.4828C184.169 41.3621 183.979 42.104 183.597 42.7085C183.216 43.3131 182.726 43.7664 182.126 44.0687C181.527 44.371 180.873 44.5221 180.165 44.5221C179.675 44.5221 179.225 44.4396 178.817 44.2748C178.408 44.0824 178.081 43.8214 177.836 43.4917C177.591 43.1344 177.469 42.7085 177.469 42.2139ZM174.731 35.001C175.003 34.8361 175.439 34.63 176.038 34.3827C176.638 34.1079 177.332 33.8744 178.122 33.682C178.939 33.4897 179.77 33.3935 180.615 33.3935C181.187 33.3935 181.691 33.4485 182.126 33.5584C182.589 33.6683 182.971 33.8469 183.27 34.0942C183.57 34.3415 183.788 34.6438 183.924 35.001C184.088 35.3307 184.169 35.7291 184.169 36.1963V48.1492H190.094V34.7949C190.094 33.476 189.712 32.3631 188.95 31.4563C188.187 30.5496 187.152 29.8626 185.845 29.3955C184.537 28.9009 183.052 28.6536 181.391 28.6536C179.62 28.6536 177.986 28.8871 176.488 29.3543C174.99 29.8214 173.71 30.316 172.647 30.8381L174.731 35.001Z" fill="white"/>
<path d="M195.735 41.2659L193.161 45.3876C194.005 46.0471 194.918 46.6516 195.898 47.2012C196.879 47.7233 197.941 48.1354 199.085 48.4377C200.256 48.7674 201.523 48.9323 202.885 48.9323C205.119 48.9323 206.848 48.424 208.074 47.4073C209.327 46.3631 209.954 44.8243 209.954 42.791C209.954 41.6094 209.695 40.6614 209.177 39.947C208.687 39.2326 208.02 38.6418 207.175 38.1747C206.358 37.7076 205.459 37.2954 204.479 36.9382C203.552 36.581 202.762 36.2924 202.109 36.0726C201.482 35.8253 200.992 35.5643 200.638 35.2895C200.311 35.0147 200.148 34.6712 200.148 34.2591C200.148 33.9019 200.284 33.6133 200.556 33.3935C200.856 33.1737 201.292 33.0638 201.864 33.0638C202.708 33.0638 203.634 33.3111 204.642 33.8057C205.65 34.2728 206.549 34.8773 207.339 35.6192L209.545 31.58C208.81 31.0304 208.02 30.5496 207.175 30.1374C206.358 29.7252 205.473 29.3955 204.519 29.1482C203.593 28.9009 202.585 28.7772 201.496 28.7772C200.134 28.7772 198.922 28.9833 197.859 29.3955C196.824 29.8077 195.994 30.4122 195.367 31.209C194.768 32.0059 194.468 32.9814 194.468 34.1354C194.468 35.3445 194.727 36.3337 195.245 37.103C195.762 37.8724 196.416 38.4907 197.206 38.9578C198.023 39.3974 198.881 39.7821 199.78 40.1119C200.788 40.4141 201.578 40.7027 202.15 40.9774C202.749 41.2522 203.171 41.5407 203.416 41.843C203.661 42.1178 203.784 42.4612 203.784 42.8734C203.784 43.3131 203.634 43.6703 203.335 43.945C203.035 44.2198 202.572 44.3572 201.945 44.3572C201.509 44.3572 200.992 44.2748 200.393 44.1099C199.793 43.9176 199.099 43.6016 198.309 43.1619C197.546 42.6948 196.688 42.0628 195.735 41.2659Z" fill="white"/>
<path d="M222.908 48.5613C225.305 48.5613 227.334 48.0942 228.996 47.16C230.685 46.2257 232.019 44.8243 233 42.9558L227.484 41.5957C227.021 42.42 226.395 43.0383 225.605 43.4504C224.842 43.8626 223.916 44.0687 222.826 44.0687C221.873 44.0687 221.069 43.8626 220.416 43.4504C219.762 43.0108 219.272 42.3788 218.945 41.5545C218.618 40.7301 218.454 39.7409 218.454 38.5869C218.482 37.3229 218.645 36.2787 218.945 35.4544C219.272 34.6026 219.748 33.9706 220.375 33.5584C221.001 33.1462 221.778 32.9401 222.704 32.9401C223.439 32.9401 224.079 33.105 224.624 33.4347C225.169 33.7645 225.591 34.2316 225.891 34.8361C226.19 35.4406 226.34 36.1551 226.34 36.9794C226.34 37.1717 226.286 37.419 226.177 37.7213C226.095 37.9961 225.986 38.2296 225.85 38.422L227.321 36.526H215.717V39.9882H232.877C232.932 39.7959 232.959 39.5623 232.959 39.2875C232.959 38.9853 232.959 38.683 232.959 38.3808C232.959 36.3474 232.564 34.6163 231.774 33.1874C230.984 31.7586 229.84 30.6732 228.342 29.9313C226.844 29.1619 225.005 28.7772 222.826 28.7772C220.647 28.7772 218.754 29.1757 217.147 29.9725C215.567 30.7694 214.355 31.9097 213.51 33.3935C212.666 34.8773 212.244 36.6359 212.244 38.6693C212.244 40.6752 212.68 42.42 213.551 43.9038C214.423 45.3876 215.649 46.5417 217.229 47.366C218.836 48.1629 220.729 48.5613 222.908 48.5613Z" fill="white"/>
<path fill-rule="evenodd" clip-rule="evenodd" d="M33.5 69C52.0015 69 67 53.5538 67 34.5C67 15.4462 52.0015 0 33.5 0C14.9985 0 0 15.4462 0 34.5C0 53.5538 14.9985 69 33.5 69ZM31.2483 21.5981L10.9827 41.1112C9.7391 42.3086 9.7391 44.25 10.9827 45.4474C12.2263 46.6449 14.2426 46.6449 15.4862 45.4474L30.3156 31.1686V48.3H36.6844V31.1686L51.5138 45.4474C52.7574 46.6449 54.7737 46.6449 56.0173 45.4474C57.2609 44.25 57.2609 42.3086 56.0173 41.1112L35.7517 21.5981C34.5081 20.4006 32.4919 20.4006 31.2483 21.5981Z" fill="white"/>
</svg>
