<svg width="173" height="51" viewBox="0 0 173 51" fill="none" xmlns="http://www.w3.org/2000/svg">
<path d="M63.1282 36.7678C63.2288 38.0067 63.561 39.0932 64.1248 40.0275C64.6885 40.982 65.524 41.7233 66.6313 42.2514C67.7588 42.7794 69.1782 43.0435 70.8895 43.0435C72.319 43.0435 73.6075 42.7794 74.7551 42.2514C75.9027 41.7437 76.8187 40.9313 77.5033 39.8142C78.2079 38.6972 78.5602 37.245 78.5602 35.4578V21.7487H74.1813V35.4578C74.1813 36.3108 74.0202 37.0216 73.6981 37.5903C73.3961 38.1793 72.9834 38.6159 72.4599 38.9003C71.9364 39.2049 71.3526 39.3573 70.7083 39.3573C70.1244 39.3573 69.601 39.2557 69.1379 39.0526C68.6749 38.8698 68.3024 38.5855 68.0205 38.1996C67.7588 37.8137 67.5977 37.3364 67.5373 36.7678H63.1282ZM62.8262 28.5728C62.8262 30.1366 63.1382 31.4466 63.7624 32.5027C64.4066 33.5588 65.2321 34.3611 66.2387 34.9094C67.2454 35.4375 68.3125 35.7015 69.4399 35.7015C70.6076 35.7015 71.6344 35.4273 72.5203 34.879C73.4263 34.3103 74.141 33.4979 74.6645 32.4418C75.1879 31.3654 75.4497 30.0757 75.4497 28.5728C75.4497 27.0495 75.1879 25.7599 74.6645 24.7038C74.141 23.6477 73.4263 22.8454 72.5203 22.2971C71.6344 21.7284 70.6076 21.444 69.4399 21.444C68.3125 21.444 67.2454 21.7081 66.2387 22.2361C65.2321 22.7642 64.4066 23.5563 63.7624 24.6124C63.1382 25.6685 62.8262 26.9886 62.8262 28.5728ZM67.6279 28.5728C67.6279 27.8416 67.7789 27.2222 68.0809 26.7144C68.3829 26.2067 68.7856 25.8208 69.2889 25.5568C69.7922 25.2927 70.3459 25.1607 70.9499 25.1607C71.3324 25.1607 71.715 25.2318 72.0975 25.374C72.48 25.5162 72.8223 25.7294 73.1243 26.0137C73.4464 26.2981 73.6981 26.6535 73.8793 27.08C74.0806 27.5065 74.1813 28.0041 74.1813 28.5728C74.1813 29.3242 74.0202 29.9538 73.6981 30.4616C73.376 30.9693 72.9632 31.3552 72.4599 31.6192C71.9767 31.863 71.4734 31.9848 70.9499 31.9848C70.3459 31.9848 69.7922 31.8528 69.2889 31.5888C68.7856 31.3247 68.3829 30.9389 68.0809 30.4311C67.7789 29.9031 67.6279 29.2836 67.6279 28.5728Z" fill="#282828"/>
<path d="M89.1408 36.0671C90.9125 36.0671 92.4124 35.7218 93.6405 35.0313C94.8888 34.3407 95.8753 33.3049 96.6001 31.9239L92.5232 30.9185C92.1809 31.5278 91.7178 31.9848 91.134 32.2895C90.5702 32.5941 89.8857 32.7464 89.0804 32.7464C88.3757 32.7464 87.7818 32.5941 87.2986 32.2895C86.8154 31.9645 86.453 31.4974 86.2114 30.8881C85.9698 30.2788 85.849 29.5476 85.849 28.6946C85.8691 27.7604 85.9899 26.9886 86.2114 26.3793C86.453 25.7497 86.8053 25.2826 87.2684 24.9779C87.7315 24.6733 88.3053 24.521 88.9898 24.521C89.5334 24.521 90.0065 24.6428 90.4092 24.8865C90.8118 25.1303 91.1239 25.4755 91.3454 25.9223C91.5668 26.3692 91.6776 26.8972 91.6776 27.5065C91.6776 27.6487 91.6373 27.8315 91.5568 28.0549C91.4964 28.258 91.4158 28.4306 91.3152 28.5728L92.4024 27.1714H83.8256V29.7304H96.5095C96.5498 29.5883 96.5699 29.4156 96.5699 29.2125C96.5699 28.9891 96.5699 28.7657 96.5699 28.5423C96.5699 27.0394 96.278 25.7599 95.6941 24.7038C95.1103 23.6477 94.2647 22.8454 93.1573 22.2971C92.05 21.7284 90.691 21.444 89.0804 21.444C87.4697 21.444 86.0705 21.7385 84.8826 22.3275C83.7149 22.9165 82.819 23.7594 82.1948 24.8561C81.5707 25.9528 81.2586 27.2526 81.2586 28.7556C81.2586 30.2382 81.5808 31.5278 82.225 32.6246C82.8693 33.7213 83.7753 34.5743 84.943 35.1836C86.1309 35.7726 87.5301 36.0671 89.1408 36.0671Z" fill="#282828"/>
<path d="M97.755 21.7487V25.5568H107.057V21.7487H97.755ZM100.201 16.8743V35.7624H104.58V16.8743H100.201Z" fill="#282828"/>
<path d="M113.53 12H108.97V35.7624H113.53V12ZM124.885 28.7556C124.885 27.1714 124.563 25.8411 123.919 24.7647C123.295 23.6883 122.479 22.8657 121.473 22.2971C120.486 21.7284 119.419 21.444 118.272 21.444C117.124 21.444 116.097 21.7385 115.191 22.3275C114.285 22.9165 113.57 23.7594 113.047 24.8561C112.523 25.9325 112.262 27.2323 112.262 28.7556C112.262 30.2585 112.523 31.5583 113.047 32.655C113.57 33.7518 114.285 34.5946 115.191 35.1836C116.097 35.7726 117.124 36.0671 118.272 36.0671C119.419 36.0671 120.486 35.7827 121.473 35.2141C122.479 34.6454 123.295 33.8228 123.919 32.7464C124.563 31.6497 124.885 30.3194 124.885 28.7556ZM120.083 28.7556C120.083 29.4867 119.932 30.1265 119.63 30.6748C119.328 31.2029 118.926 31.6192 118.423 31.9239C117.919 32.2082 117.366 32.3504 116.762 32.3504C116.238 32.3504 115.725 32.2082 115.221 31.9239C114.738 31.6395 114.335 31.2333 114.013 30.7053C113.691 30.1569 113.53 29.507 113.53 28.7556C113.53 28.0041 113.691 27.3643 114.013 26.8363C114.335 26.2879 114.738 25.8716 115.221 25.5872C115.725 25.3029 116.238 25.1607 116.762 25.1607C117.366 25.1607 117.919 25.3131 118.423 25.6177C118.926 25.902 119.328 26.3184 119.63 26.8667C119.932 27.3948 120.083 28.0244 120.083 28.7556Z" fill="#282828"/>
<path d="M131.172 31.3755C131.172 31.0303 131.253 30.7459 131.414 30.5225C131.575 30.2788 131.817 30.096 132.139 29.9741C132.461 29.8523 132.894 29.7914 133.437 29.7914C134.142 29.7914 134.807 29.8929 135.431 30.096C136.075 30.2788 136.639 30.553 137.122 30.9185V28.8774C136.88 28.6134 136.518 28.3595 136.035 28.1158C135.551 27.8721 134.968 27.669 134.283 27.5065C133.619 27.344 132.864 27.2628 132.018 27.2628C130.287 27.2628 128.948 27.6588 128.001 28.4509C127.055 29.2227 126.582 30.2788 126.582 31.6192C126.582 32.5738 126.804 33.3862 127.246 34.0564C127.71 34.7266 128.314 35.2344 129.058 35.5796C129.824 35.9046 130.649 36.0671 131.535 36.0671C132.421 36.0671 133.246 35.9147 134.011 35.6101C134.776 35.2851 135.4 34.818 135.884 34.2087C136.367 33.5791 136.608 32.8175 136.608 31.9239L136.125 30.096C136.125 30.7459 135.984 31.2943 135.702 31.7411C135.421 32.1879 135.058 32.523 134.615 32.7464C134.172 32.9698 133.689 33.0815 133.166 33.0815C132.803 33.0815 132.471 33.0206 132.169 32.8987C131.867 32.7566 131.625 32.5636 131.444 32.3199C131.263 32.0559 131.172 31.7411 131.172 31.3755ZM129.149 26.0442C129.35 25.9223 129.673 25.77 130.115 25.5872C130.558 25.3841 131.072 25.2115 131.656 25.0693C132.26 24.9272 132.874 24.8561 133.498 24.8561C133.921 24.8561 134.293 24.8967 134.615 24.9779C134.957 25.0592 135.239 25.1912 135.461 25.374C135.682 25.5568 135.843 25.7802 135.944 26.0442C136.065 26.2879 136.125 26.5824 136.125 26.9277V35.7624H140.504V25.8919C140.504 24.917 140.222 24.0945 139.659 23.4242C139.095 22.754 138.33 22.2463 137.363 21.901C136.397 21.5354 135.3 21.3526 134.072 21.3526C132.763 21.3526 131.555 21.5253 130.448 21.8705C129.34 22.2158 128.394 22.5814 127.609 22.9673L129.149 26.0442Z" fill="#282828"/>
<path d="M144.674 30.6748L142.771 33.7213C143.395 34.2087 144.07 34.6555 144.794 35.0617C145.519 35.4476 146.304 35.7523 147.15 35.9757C148.016 36.2194 148.952 36.3413 149.959 36.3413C151.61 36.3413 152.888 35.9655 153.794 35.2141C154.72 34.4423 155.183 33.3049 155.183 31.802C155.183 30.9287 154.992 30.228 154.609 29.7C154.247 29.1719 153.754 28.7352 153.13 28.39C152.526 28.0447 151.861 27.7401 151.136 27.476C150.452 27.212 149.868 26.9988 149.385 26.8363C148.922 26.6535 148.559 26.4606 148.298 26.2575C148.056 26.0544 147.935 25.8005 147.935 25.4958C147.935 25.2318 148.036 25.0186 148.237 24.8561C148.459 24.6936 148.781 24.6124 149.204 24.6124C149.828 24.6124 150.512 24.7952 151.257 25.1607C152.002 25.506 152.667 25.9528 153.25 26.5012L154.881 23.5156C154.338 23.1094 153.754 22.754 153.13 22.4494C152.526 22.1447 151.871 21.901 151.167 21.7182C150.482 21.5354 149.737 21.444 148.932 21.444C147.925 21.444 147.029 21.5964 146.244 21.901C145.479 22.2057 144.865 22.6525 144.402 23.2415C143.959 23.8304 143.737 24.5514 143.737 25.4044C143.737 26.2981 143.929 27.0292 144.311 27.5979C144.694 28.1666 145.177 28.6235 145.761 28.9688C146.365 29.2938 146.999 29.5781 147.663 29.8218C148.408 30.0452 148.992 30.2585 149.415 30.4616C149.858 30.6647 150.17 30.8779 150.351 31.1013C150.532 31.3044 150.623 31.5583 150.623 31.863C150.623 32.1879 150.512 32.4519 150.291 32.655C150.069 32.8581 149.727 32.9597 149.264 32.9597C148.942 32.9597 148.559 32.8988 148.116 32.7769C147.673 32.6347 147.16 32.4012 146.576 32.0762C146.013 31.7309 145.378 31.2638 144.674 30.6748Z" fill="#282828"/>
<path d="M164.758 36.0671C166.53 36.0671 168.03 35.7218 169.258 35.0313C170.506 34.3407 171.493 33.3049 172.217 31.9239L168.141 30.9185C167.798 31.5278 167.335 31.9848 166.751 32.2895C166.188 32.5941 165.503 32.7464 164.698 32.7464C163.993 32.7464 163.399 32.5941 162.916 32.2895C162.433 31.9645 162.07 31.4974 161.829 30.8881C161.587 30.2788 161.466 29.5476 161.466 28.6946C161.486 27.7604 161.607 26.9886 161.829 26.3793C162.07 25.7497 162.423 25.2826 162.886 24.9779C163.349 24.6733 163.923 24.521 164.607 24.521C165.151 24.521 165.624 24.6428 166.027 24.8865C166.429 25.1303 166.741 25.4755 166.963 25.9223C167.184 26.3692 167.295 26.8972 167.295 27.5065C167.295 27.6487 167.255 27.8315 167.174 28.0549C167.114 28.258 167.033 28.4306 166.933 28.5728L168.02 27.1714H159.443V29.7304H172.127C172.167 29.5883 172.187 29.4156 172.187 29.2125C172.187 28.9891 172.187 28.7657 172.187 28.5423C172.187 27.0394 171.895 25.7599 171.311 24.7038C170.728 23.6477 169.882 22.8454 168.775 22.2971C167.667 21.7284 166.308 21.444 164.698 21.444C163.087 21.444 161.688 21.7385 160.5 22.3275C159.332 22.9165 158.436 23.7594 157.812 24.8561C157.188 25.9528 156.876 27.2526 156.876 28.7556C156.876 30.2382 157.198 31.5278 157.842 32.6246C158.487 33.7213 159.393 34.5743 160.56 35.1836C161.748 35.7726 163.147 36.0671 164.758 36.0671Z" fill="#282828"/>
<path fill-rule="evenodd" clip-rule="evenodd" d="M24.7609 51C38.4359 51 49.5217 39.5833 49.5217 25.5C49.5217 11.4167 38.4359 0 24.7609 0C11.0858 0 0 11.4167 0 25.5C0 39.5833 11.0858 51 24.7609 51ZM23.0965 15.9638L8.11765 30.3865C7.19847 31.2716 7.19847 32.7065 8.11765 33.5916C9.03683 34.4766 10.5271 34.4766 11.4463 33.5916L22.4072 23.0377V35.7H27.1146V23.0377L38.0755 33.5916C38.9946 34.4766 40.4849 34.4766 41.4041 33.5916C42.3233 32.7065 42.3233 31.2716 41.4041 30.3865L26.4252 15.9638C25.506 15.0787 24.0157 15.0787 23.0965 15.9638Z" fill="#1229C6"/>
</svg>
