<svg width="40" height="40" viewBox="0 0 40 40" fill="none" xmlns="http://www.w3.org/2000/svg">
<g clip-path="url(#clip0_846_5398)">
<path d="M32.5186 31.955L25.4046 24.8369C27.2955 22.7972 28.3105 20.0972 28.2316 17.3169C28.1527 14.5365 26.986 11.8983 24.9826 9.96921C22.9791 8.04011 20.2988 6.97419 17.5175 7.00047C14.7362 7.0269 12.0766 8.14333 10.11 10.11C8.14333 12.0767 7.02694 14.7362 7.00047 17.5175C6.97422 20.2986 8.04011 22.979 9.96921 24.9826C11.8983 26.986 14.5365 28.1527 17.3169 28.2316C20.0972 28.3105 22.7971 27.2955 24.8369 25.4046L31.9527 32.5186C32.1113 32.6545 32.3479 32.6454 32.4958 32.4978C32.6435 32.3499 32.6526 32.1135 32.5167 31.9547L32.5186 31.955ZM17.6368 27.437C15.0377 27.437 12.5452 26.4045 10.707 24.5666C8.86914 22.7288 7.83663 20.2361 7.83663 17.6368C7.83663 15.0375 8.86914 12.5452 10.707 10.707C12.5448 8.86914 15.0375 7.83663 17.6368 7.83663C20.2361 7.83663 22.7285 8.86914 24.5666 10.707C26.4045 12.5448 27.437 15.0375 27.437 17.6368C27.4343 20.2352 26.4009 22.7262 24.5638 24.5634C22.7265 26.4006 20.2354 27.434 17.6371 27.4367L17.6368 27.437Z" fill="#282828"/>
<path d="M25.8143 15.8372L17.8143 12.0692C17.7067 12.0186 17.582 12.0186 17.4743 12.0692L9.45833 15.8372C9.31816 15.9031 9.22852 16.0442 9.22852 16.1992C9.22852 16.3542 9.31816 16.4952 9.45833 16.5611L12.0364 17.7833C12.0355 17.8011 12.0355 17.8191 12.0364 17.8372V20.4372C12.0364 21.7952 14.5344 23.4372 17.6364 23.4372C20.7383 23.4372 23.2364 21.7972 23.2364 20.4372V17.8372C23.2373 17.8191 23.2373 17.8011 23.2364 17.7833L25.8203 16.5672C25.9607 16.5013 26.0501 16.3602 26.0501 16.2052C26.0501 16.0502 25.9607 15.9091 25.8203 15.8432L25.8143 15.8372ZM22.4363 20.437C22.4363 21.1889 20.4102 22.637 17.6363 22.637C14.8623 22.637 12.8363 21.1889 12.8363 20.437V18.157L17.4662 20.335C17.5739 20.3856 17.6985 20.3856 17.8062 20.335L22.4362 18.157L22.4363 20.437ZM17.6363 19.5309L10.5684 16.205L17.6363 12.8789L24.7042 16.205L17.6363 19.5309Z" fill="#282828"/>
</g>
<defs>
<clipPath id="clip0_846_5398">
<rect width="40" height="40" fill="white"/>
</clipPath>
</defs>
</svg>
