<svg width="31" height="29" viewBox="0 0 31 29" fill="none" xmlns="http://www.w3.org/2000/svg">
<path d="M30.4931 20.9923C30.4992 20.9463 30.5204 20.9054 30.5204 20.8577V1.09001C30.5204 0.488068 30.0328 0 29.4304 0H9.66324C9.06081 0 8.57323 0.488068 8.57323 1.09001V5.3026L0.629261 9.00695C0.0842574 9.26144 -0.151994 9.90959 0.102264 10.4556L8.45608 28.3703C8.57846 28.6326 8.79986 28.8355 9.07139 28.9341C9.19159 28.9783 9.31835 29 9.4439 29C9.60131 29 9.75898 28.9659 9.90471 28.8978L24.8092 21.9473L29.4307 21.9475H29.4319C29.5577 21.9475 29.6828 21.9171 29.8049 21.8721C29.8358 21.8609 29.8648 21.8497 29.8942 21.8359C29.9183 21.8244 29.9439 21.8196 29.9675 21.8059C30.0086 21.7828 30.0332 21.7446 30.0701 21.7171C30.1324 21.6707 30.1918 21.6259 30.2429 21.5678C30.2891 21.515 30.3227 21.4578 30.3575 21.3979C30.3925 21.3378 30.4261 21.2802 30.4494 21.2137C30.4743 21.1412 30.4836 21.0685 30.4931 20.9923ZM28.3404 2.18003V16.7182L23.2278 7.68363C23.0373 7.34665 22.6818 7.13595 22.2943 7.1306C21.8909 7.10943 21.5449 7.32597 21.3458 7.65808L17.3157 14.3464L15.7233 11.986C15.5168 11.6795 15.1572 11.5075 14.8005 11.5055C14.4312 11.5123 14.0906 11.705 13.8947 12.0186L10.7533 17.0519V2.17986L28.3404 2.18003ZM8.59693 20.9736C8.6052 21.0488 8.61737 21.1194 8.64073 21.1911C8.66262 21.258 8.6906 21.3181 8.72443 21.3787C8.75751 21.4388 8.79328 21.4938 8.8378 21.5471C8.88695 21.6057 8.94121 21.6541 9.00131 21.7013C9.03269 21.7259 9.05191 21.7602 9.08622 21.7816C9.11785 21.8016 9.15313 21.8099 9.18598 21.8259C9.22004 21.8427 9.25264 21.8583 9.28865 21.8714C9.41079 21.9164 9.53609 21.9471 9.66212 21.9471H9.66285H19.6503L9.97103 26.4609L2.53906 10.5219L8.57352 7.70804V20.8573C8.57352 20.8984 8.59231 20.9335 8.59693 20.9736ZM11.6285 19.7673L14.8548 14.5973L17.5829 18.6406C17.9204 19.1403 18.5963 19.2712 19.0966 18.935C19.5958 18.598 19.7267 17.9206 19.3902 17.4218L18.6598 16.3391L22.2493 10.3816L27.5609 19.7675L11.6285 19.7673Z" fill="#282828"/>
<path d="M14.603 4.60605C12.95 4.60605 11.6055 5.95056 11.6055 7.60357C11.6055 9.25658 12.95 10.6011 14.603 10.6011C16.256 10.6011 17.6005 9.25658 17.6005 7.60357C17.6005 5.95056 16.256 4.60605 14.603 4.60605ZM14.603 8.42107C14.1526 8.42107 13.7855 8.05441 13.7855 7.60357C13.7855 7.15272 14.1526 6.78606 14.603 6.78606C15.0533 6.78606 15.4205 7.15272 15.4205 7.60357C15.4205 8.05441 15.0533 8.42107 14.603 8.42107Z" fill="#282828"/>
</svg>
