<svg width="26" height="14" viewBox="0 0 26 14" fill="none" xmlns="http://www.w3.org/2000/svg">
<path d="M25.8203 6.54796C25.5866 6.30102 20.0189 0.5 13 0.5C5.98114 0.5 0.413379 6.3007 0.179694 6.54796C-0.0598982 6.80143 -0.0598982 7.19872 0.179694 7.45204C0.413354 7.69898 5.98114 13.5 13 13.5C20.0189 13.5 25.5866 7.6993 25.8203 7.45204C26.0599 7.19876 26.0599 6.80128 25.8203 6.54796ZM13 12.1869C7.64633 12.1869 3.03633 8.33895 1.59503 6.99973C3.03662 5.66075 7.64633 1.81253 13 1.81253C18.3537 1.81253 22.9637 5.66051 24.405 6.99973C22.9634 8.33871 18.3537 12.1869 13 12.1869Z" fill="#1229C6"/>
<path d="M8.21094 6.99998C8.21094 9.45221 10.3593 11.4473 13.0004 11.4473C15.6413 11.4473 17.7899 9.45221 17.7899 6.99998C17.7899 4.54775 15.6413 2.55261 13.0004 2.55261C10.3595 2.55261 8.21094 4.54775 8.21094 6.99998ZM16.4787 6.99998C16.4787 8.78086 14.9185 10.2297 13.0006 10.2297C11.0826 10.2297 9.52241 8.78091 9.52241 6.99998C9.52241 5.21906 11.0826 3.77027 13.0006 3.77027C14.9185 3.77027 16.4787 5.21906 16.4787 6.99998Z" fill="#1229C6"/>
<path d="M12.3154 4.54307C12.3154 4.88667 12.5937 5.16495 12.9373 5.16495C13.7948 5.16495 14.4928 5.86268 14.4928 6.72032C14.4928 7.06392 14.7711 7.3422 15.1147 7.3422C15.4581 7.34201 15.7365 7.06371 15.7365 6.72013C15.7365 5.17673 14.4808 3.92114 12.9373 3.92114C12.5937 3.92114 12.3154 4.19944 12.3154 4.54302V4.54307Z" fill="#1229C6"/>
</svg>
