<svg width="30" height="30" viewBox="0 0 30 30" fill="none" xmlns="http://www.w3.org/2000/svg">
<path d="M14.9551 9.84375C12.1387 9.84375 9.85059 12.1351 9.85059 14.9482C9.85059 17.7613 12.1419 20.0527 14.9551 20.0527C17.7714 20.0527 20.0595 17.7646 20.0595 14.9482C20.0595 12.1351 17.7714 9.84375 14.9551 9.84375ZM14.9551 18.7565C12.8549 18.7565 11.1469 17.0485 11.1469 14.9483C11.1469 12.8482 12.8549 11.1402 14.9551 11.1402C17.0552 11.1402 18.7632 12.8482 18.7632 14.9483C18.7632 17.0485 17.0552 18.7565 14.9551 18.7565Z" fill="#808080" stroke="#808080"/>
<path d="M25.3781 12.6867L24.7624 12.5506C24.5356 12.502 24.3507 12.3239 24.2762 12.0873C24.0948 11.5006 23.855 10.9271 23.5666 10.3793C23.4498 10.1621 23.4563 9.90293 23.5796 9.70848L23.9199 9.17373C24.4158 8.39918 24.3055 7.40084 23.654 6.7528L23.1421 6.24084C22.4905 5.59258 21.4957 5.48257 20.7211 5.97824L20.1864 6.31853C19.9919 6.44484 19.7326 6.4481 19.5156 6.33156C18.971 6.03987 18.3942 5.80006 17.8076 5.6219C17.5743 5.5505 17.3959 5.36255 17.3442 5.13902L17.2081 4.52331C17.0104 3.62548 16.2294 3 15.3089 3H14.5862C13.6821 3 12.8814 3.64176 12.687 4.52659L12.5509 5.13902C12.5023 5.36581 12.3241 5.55072 12.0876 5.6219C11.4977 5.80334 10.9241 6.04315 10.3763 6.33483C10.159 6.4516 9.89992 6.44508 9.70547 6.32181L9.17397 5.98151C8.39943 5.48561 7.40109 5.59586 6.75305 6.24737L6.24412 6.7563C5.59586 7.40784 5.48585 8.40268 5.98151 9.17723L6.32181 9.70873C6.44812 9.90318 6.45138 10.1625 6.33483 10.3795C6.04315 10.9273 5.80334 11.5009 5.6219 12.0908C5.5505 12.3274 5.36581 12.5025 5.13902 12.5542L4.52659 12.6902C3.62876 12.888 3 13.669 3 14.5895V15.3122C3 16.2326 3.62548 17.0137 4.52659 17.2114L5.13902 17.3475C5.36581 17.3961 5.55072 17.5743 5.6219 17.8078C5.80334 18.3977 6.04315 18.9713 6.33483 19.5191C6.4516 19.7363 6.44509 19.9954 6.31856 20.1899L5.97826 20.7214C5.48561 21.4959 5.5926 22.491 6.24086 23.1423L6.74979 23.6543C7.38828 24.296 8.40917 24.4063 9.17072 23.9201L9.70222 23.5798C9.89993 23.4535 10.156 23.4503 10.3763 23.5668C10.9241 23.8585 11.4977 24.0983 12.0876 24.2797C12.3241 24.3511 12.4993 24.5391 12.5509 24.7659L12.687 25.3783C12.8815 26.2631 13.6821 26.9049 14.5862 26.9049H15.3089C16.2293 26.9049 17.0104 26.2794 17.2082 25.3783L17.3442 24.7626C17.3929 24.5358 17.571 24.3509 17.8076 24.2797C18.3942 24.0983 18.9711 23.8585 19.5156 23.5701C19.7359 23.4533 19.992 23.4598 20.1897 23.5831L20.7244 23.9234C21.499 24.416 22.4941 24.309 23.1454 23.6575L23.6573 23.1456C24.2991 22.5071 24.4093 21.4862 23.9232 20.7246L23.5829 20.1931C23.4566 19.9987 23.4533 19.7393 23.5699 19.5223C23.8615 18.9745 24.1014 18.3977 24.2795 17.8143C24.3509 17.5778 24.5389 17.4026 24.7657 17.351L25.3814 17.2149C26.2662 17.0204 26.908 16.2198 26.908 15.3157V14.593C26.9045 13.6686 26.279 12.8876 25.3781 12.6868L25.3781 12.6867ZM25.6081 15.3086C25.6081 15.61 25.3941 15.8757 25.0992 15.9406L24.4835 16.0767C23.8029 16.2258 23.2486 16.7443 23.0381 17.4248C22.8824 17.9338 22.675 18.4295 22.4223 18.906C22.0853 19.538 22.1111 20.2963 22.4872 20.8862L22.8275 21.4177C22.9897 21.6706 22.9538 22.0109 22.7401 22.2246L22.2281 22.7366C22.0109 22.9538 21.6803 22.9894 21.4212 22.824L20.8865 22.4837C20.2966 22.1078 19.5383 22.0818 18.9063 22.4188C18.4332 22.6717 17.934 22.8792 17.4251 23.0345C16.7445 23.2453 16.2293 23.7961 16.0769 24.4767L15.9408 25.0924C15.8759 25.3906 15.6136 25.6013 15.3089 25.6013H14.5861C14.2847 25.6013 14.0191 25.3873 13.9542 25.0924L13.8181 24.48C13.669 23.7994 13.1505 23.2451 12.4699 23.0345C11.961 22.8789 11.462 22.6715 10.9856 22.4188C10.6907 22.2632 10.3667 22.1823 10.0457 22.1823C9.6826 22.1823 9.31976 22.2828 9.00524 22.4837L8.47374 22.824C8.21765 22.9861 7.8806 22.9471 7.66686 22.7366L7.15793 22.2246C6.94068 22.0074 6.90509 21.6768 7.07047 21.4177L7.41077 20.8862C7.78666 20.2964 7.8127 19.538 7.47566 18.9093C7.22282 18.4362 7.01534 17.9338 6.85668 17.4251C6.6492 16.7445 6.09513 16.2293 5.41454 16.0802L4.80211 15.9441C4.50392 15.8792 4.29318 15.6168 4.29318 15.3121V14.5894C4.29318 14.2814 4.50392 14.0223 4.80211 13.9574L5.41454 13.8213C6.09513 13.6722 6.64944 13.1537 6.85668 12.4764C7.01229 11.9675 7.21977 11.4685 7.47238 10.9922C7.80943 10.3602 7.7836 9.60191 7.40749 9.01526L7.06719 8.48376C6.90182 8.22442 6.93763 7.8939 7.15465 7.67688L7.66358 7.16795C7.88083 6.95071 8.21136 6.91511 8.47047 7.08049L9.00196 7.42079C9.59183 7.79668 10.3502 7.82272 10.9789 7.48568C11.452 7.23284 11.9544 7.02537 12.4631 6.86998C13.1437 6.65924 13.6622 6.10843 13.8113 5.42456L13.9474 4.81213C14.0123 4.51719 14.2779 4.3032 14.5794 4.3032H15.3021C15.61 4.3032 15.8692 4.51394 15.9341 4.81213L16.0701 5.42784C16.2225 6.10843 16.7377 6.66274 17.4183 6.86998C17.9273 7.02559 18.4262 7.23307 18.8995 7.48568C19.5315 7.82272 20.2898 7.7969 20.8797 7.42079L21.4145 7.08049C21.6705 6.91511 22.0043 6.95093 22.2213 7.16795L22.7333 7.67992C22.9505 7.89716 22.9861 8.22769 22.8208 8.4868L22.4805 9.02155C22.1046 9.61142 22.0785 10.3697 22.4156 10.9984C22.6684 11.4716 22.8759 11.9707 23.0313 12.4796C23.242 13.1602 23.7928 13.6754 24.4767 13.8278L25.0924 13.9639C25.3906 14.0288 25.6013 14.2912 25.6013 14.5959L25.6015 15.3086L25.6081 15.3086Z" fill="#808080" stroke="#808080"/>
</svg>
