<svg width="9" height="15" viewBox="0 0 9 15" fill="none" xmlns="http://www.w3.org/2000/svg">
<path d="M0.667845 7.57446C0.691324 7.73689 0.765354 7.8878 0.879433 8.00579L7.12942 14.5162C7.31652 14.7379 7.611 14.8376 7.89428 14.7753C8.17757 14.713 8.40302 14.4989 8.47987 14.2192C8.55672 13.9395 8.4723 13.6403 8.26062 13.442L2.52331 7.46868L8.26062 1.49537C8.4723 1.29708 8.55672 0.997835 8.47987 0.718148C8.40302 0.43846 8.17757 0.224359 7.89428 0.162058C7.611 0.0997574 7.31652 0.199512 7.12942 0.421151L0.879433 6.93157C0.714931 7.10261 0.637082 7.33915 0.667845 7.57446Z" fill="#494949"/>
</svg>
