<svg width="9" height="15" viewBox="0 0 9 15" fill="none" xmlns="http://www.w3.org/2000/svg">
<path d="M8.33216 7.42554C8.30868 7.26311 8.23465 7.1122 8.12057 6.99421L1.87058 0.483788C1.68348 0.262149 1.389 0.162395 1.10572 0.224695C0.822433 0.286996 0.596975 0.501097 0.52013 0.780785C0.443284 1.06047 0.527699 1.35971 0.739382 1.55801L6.47669 7.53132L0.739382 13.5046C0.527699 13.7029 0.443284 14.0022 0.52013 14.2819C0.596975 14.5615 0.822433 14.7756 1.10572 14.8379C1.389 14.9002 1.68348 14.8005 1.87058 14.5788L8.12057 8.06843C8.28507 7.89739 8.36292 7.66085 8.33216 7.42554Z" fill="#494949"/>
</svg>
