<svg width="32" height="32" viewBox="0 0 32 32" fill="none" xmlns="http://www.w3.org/2000/svg">
<path fill-rule="evenodd" clip-rule="evenodd" d="M15.96 0C7.14554 0 0 7.14554 0 15.96C0 24.7745 7.14554 31.92 15.96 31.92C24.7745 31.92 31.92 24.7745 31.92 15.96C31.92 7.14554 24.7745 0 15.96 0ZM8.00004 24H11V13H8.00004V24ZM9.96526 12H9.98818C11.2282 12 12 11.1105 12 9.99994C11.9771 8.86456 11.2282 8.00004 10.0117 8.00004C8.79537 8.00004 8.00004 8.86456 8.00004 9.99994C8.00004 11.1105 8.77166 12 9.96526 12ZM24 24H20.3968V18.25C20.3968 16.8053 19.8754 15.8194 18.5711 15.8194C17.5757 15.8194 16.9827 16.4844 16.7223 17.1264C16.6272 17.3555 16.6035 17.6769 16.6035 17.9978V24H13C13 24 13.0473 14.2606 13 13.2521H16.6035V14.7746C17.0822 14.0423 17.939 13 19.8512 13C22.2224 13 24 14.5361 24 17.8374V24Z" fill="white"/>
</svg>
