<svg width="35" height="35" viewBox="0 0 35 35" fill="none" xmlns="http://www.w3.org/2000/svg">
<g clip-path="url(#clip0_419_6830)">
<path fill-rule="evenodd" clip-rule="evenodd" d="M35 17.5C35 27.165 27.165 35 17.5 35C7.83502 35 0 27.165 0 17.5C0 7.83502 7.83502 0 17.5 0C27.165 0 35 7.83502 35 17.5ZM18.1271 12.9192C16.425 13.6272 13.0231 15.0925 7.92151 17.3152C7.09309 17.6446 6.65913 17.9669 6.61962 18.282C6.55285 18.8146 7.21979 19.0243 8.12799 19.3099C8.25152 19.3488 8.37952 19.389 8.51074 19.4317C9.40426 19.7221 10.6062 20.0619 11.231 20.0754C11.7978 20.0876 12.4304 19.854 13.1289 19.3744C17.8954 16.1568 20.356 14.5305 20.5105 14.4954C20.6194 14.4707 20.7705 14.4396 20.8728 14.5305C20.9751 14.6215 20.965 14.7937 20.9542 14.8399C20.8881 15.1216 18.2701 17.5555 16.9154 18.8151C16.493 19.2077 16.1934 19.4862 16.1322 19.5498C15.995 19.6923 15.8552 19.8271 15.7208 19.9566C14.8907 20.7569 14.2682 21.357 15.7553 22.3369C16.4699 22.8078 17.0417 23.1973 17.6122 23.5857C18.2352 24.01 18.8567 24.4332 19.6607 24.9603C19.8655 25.0946 20.0612 25.234 20.2517 25.3699C20.9768 25.8868 21.6282 26.3512 22.4329 26.2771C22.9006 26.2341 23.3836 25.7944 23.6289 24.483C24.2086 21.3837 25.3482 14.6685 25.6116 11.9014C25.6346 11.6589 25.6056 11.3486 25.5823 11.2124C25.559 11.0762 25.5103 10.8822 25.3332 10.7385C25.1236 10.5684 24.7999 10.5325 24.6551 10.5351C23.9969 10.5467 22.9871 10.8978 18.1271 12.9192Z" fill="white"/>
</g>
<defs>
<clipPath id="clip0_419_6830">
<rect width="35" height="35" fill="white"/>
</clipPath>
</defs>
</svg>
