<svg width="28" height="34" viewBox="0 0 28 34" fill="none" xmlns="http://www.w3.org/2000/svg">
<path d="M26.6494 11.1729L16.6593 1.18279C16.3471 0.873114 15.9251 0.699457 15.4852 0.700014H5.49507C4.17052 0.700014 2.89999 1.22628 1.96313 2.16286C1.02627 3.09972 0.5 4.37025 0.5 5.69508V29.0049C0.5 30.3298 1.02627 31.6003 1.96313 32.5372C2.89999 33.4737 4.17052 34 5.49507 34H22.1458C23.4703 34 24.7409 33.4737 25.6777 32.5372C26.6146 31.6003 27.1409 30.3298 27.1409 29.0049V12.3549C27.1411 11.9112 26.9644 11.4855 26.6497 11.1728L26.6494 11.1729ZM17.1502 6.38609L21.4543 10.6901H17.1502V6.38609ZM23.8102 29.0052C23.8102 29.447 23.6349 29.8704 23.3224 30.1826C23.0102 30.4948 22.5868 30.6704 22.1453 30.6704H5.49458C5.05305 30.6704 4.62965 30.4948 4.31745 30.1826C4.00498 29.8704 3.82966 29.447 3.82966 29.0052V5.69534C3.82966 5.25353 4.00498 4.83012 4.31745 4.51793C4.62965 4.20574 5.05308 4.03013 5.49458 4.03013H13.8199V12.3555C13.8199 12.797 13.9953 13.2207 14.3077 13.5329C14.6199 13.8451 15.0434 14.0204 15.4849 14.0204H23.8102V29.0052Z" fill="#282828"/>
<path d="M7.13672 19.6456C7.13672 19.2318 7.47217 18.8964 7.88598 18.8964H19.7314C20.1452 18.8964 20.4807 19.2318 20.4807 19.6456C20.4807 20.0594 20.1452 20.3949 19.7314 20.3949H7.88598C7.47217 20.3949 7.13672 20.0594 7.13672 19.6456Z" fill="#282828"/>
<path d="M7.13672 22.6426C7.13672 22.2288 7.47217 21.8934 7.88598 21.8934H19.7314C20.1452 21.8934 20.4807 22.2288 20.4807 22.6426C20.4807 23.0564 20.1452 23.3919 19.7314 23.3919H7.88598C7.47217 23.3919 7.13672 23.0564 7.13672 22.6426Z" fill="#282828"/>
<path d="M7.13672 25.7111C7.13672 25.2972 7.47217 24.9618 7.88598 24.9618H19.7314C20.1452 24.9618 20.4807 25.2972 20.4807 25.7111C20.4807 26.1249 20.1452 26.4603 19.7314 26.4603H7.88598C7.47217 26.4603 7.13672 26.1249 7.13672 25.7111Z" fill="#282828"/>
</svg>
