<svg width="18" height="21" viewBox="0 0 18 21" fill="none" xmlns="http://www.w3.org/2000/svg">
<path fill-rule="evenodd" clip-rule="evenodd" d="M8.48427 4.41382C9.70325 4.41382 10.6913 3.42581 10.6913 2.20699C10.6913 0.98801 9.70325 0 8.48427 0C7.26545 0 6.27744 0.98801 6.27744 2.20699C6.27744 3.42581 7.26545 4.41382 8.48427 4.41382ZM17.2439 6.25682L17.7217 6.64356C17.8809 6.78016 17.9037 6.96191 17.7677 7.12082L16.5391 8.64526C16.4254 8.78185 16.2206 8.80462 16.0841 8.69079L15.6063 8.30404C15.4697 8.19037 15.4469 7.98547 15.5608 7.84902L15.9475 7.37123L15.3559 6.89343C15.3104 7.00727 15.2422 7.09818 15.1512 7.18925L12.7622 9.62372C12.4208 9.98783 11.852 10.0106 11.4652 9.71479L9.23548 8.00837L9.00797 12.8091C9.00797 12.9683 8.98521 13.1049 8.93967 13.2413L11.4651 14.9478C11.8518 15.2208 12.0339 15.6758 11.9201 16.1308L10.8962 20.1808C10.7596 20.6586 10.3274 21 9.82683 21C9.73576 21 9.64485 21 9.55379 20.9772C8.96216 20.818 8.5982 20.2265 8.75741 19.6349L9.59918 16.3359L7.07376 14.6295L4.95771 17.7465C4.88941 17.8376 4.82126 17.9057 4.75297 17.974L1.81792 20.4994C1.6132 20.6814 1.36291 20.7725 1.11263 20.7725C0.794207 20.7725 0.498379 20.636 0.270868 20.3857C-0.13864 19.9306 -0.0703231 19.2253 0.384699 18.8385L3.2742 16.427L5.27643 13.4692L5.84527 13.5147H5.91357C6.25478 13.5147 6.55059 13.2418 6.59612 12.9005L6.75534 10.9666C6.77811 10.7618 6.70981 10.5797 6.57336 10.4205C6.43691 10.284 6.27754 10.193 6.09556 10.193L5.50395 10.1474H5.48118L5.59486 7.80386L4.50283 8.34993L4.63943 11.3304L5.02617 11.3759L5.09432 10.8298C5.11709 10.6705 5.25368 10.534 5.4129 10.534H5.45843L6.07267 10.5795C6.25465 10.5795 6.39124 10.7388 6.36848 10.9435L6.1865 12.8774C6.16374 13.0368 6.02714 13.1732 5.86792 13.1732H5.82239L5.20816 13.1277C5.02617 13.1051 4.88958 12.9457 4.91234 12.7637L4.95788 12.1267L4.57113 12.0812C4.41192 12.3998 4.11611 12.6273 3.72937 12.65H3.68383C3.22881 12.65 2.84208 12.3315 2.72824 11.8992L2.20491 11.8537L2.15937 12.4453C2.13676 12.6273 1.97739 12.7639 1.79541 12.7411L1.18118 12.6956C0.999196 12.673 0.862598 12.5136 0.885364 12.3316L1.06734 10.3977C1.08996 10.2157 1.24932 10.0791 1.4313 10.1019L2.04554 10.1474C2.22752 10.17 2.36412 10.3066 2.34135 10.5114L2.29582 11.103L2.65963 11.1485L2.50041 7.82678C2.47768 7.44008 2.68241 7.09872 3.02375 6.91674L6.32277 5.23309C7.25558 4.77808 8.32484 4.8919 9.14399 5.50614L11.9424 7.66758L13.7399 5.84749C13.7853 5.80196 13.8308 5.75643 13.8764 5.73366L13.4669 5.41508L13.1029 5.8701C12.9892 6.0067 12.7843 6.02947 12.6479 5.91564L12.1701 5.52889C12.0335 5.41522 12.0107 5.21032 12.1246 5.07387L13.3532 3.54944C13.4669 3.41284 13.6718 3.39007 13.8082 3.5039L14.286 3.89065C14.4226 4.00432 14.4226 4.23184 14.3315 4.34567L13.9448 4.82346L16.4021 6.78015L16.7889 6.30235C16.9026 6.16576 17.1075 6.14299 17.2439 6.25682Z" fill="#282828"/>
</svg>
