<svg width="35" height="35" viewBox="0 0 35 35" fill="none" xmlns="http://www.w3.org/2000/svg">
<path d="M34.6514 10.5002C34.6514 10.5002 34.3096 8.0871 33.2568 7.02753C31.9238 5.633 30.4336 5.62616 29.75 5.54413C24.8555 5.18866 17.5068 5.18866 17.5068 5.18866H17.4932C17.4932 5.18866 10.1445 5.18866 5.25 5.54413C4.56641 5.62616 3.07617 5.633 1.74316 7.02753C0.69043 8.0871 0.355469 10.5002 0.355469 10.5002C0.355469 10.5002 0 13.3371 0 16.1672V18.8195C0 21.6496 0.348633 24.4865 0.348633 24.4865C0.348633 24.4865 0.69043 26.8996 1.73633 27.9592C3.06934 29.3537 4.81934 29.3058 5.59863 29.4562C8.40137 29.7228 17.5 29.8049 17.5 29.8049C17.5 29.8049 24.8555 29.7912 29.75 29.4426C30.4336 29.3605 31.9238 29.3537 33.2568 27.9592C34.3096 26.8996 34.6514 24.4865 34.6514 24.4865C34.6514 24.4865 35 21.6564 35 18.8195V16.1672C35 13.3371 34.6514 10.5002 34.6514 10.5002ZM13.8838 22.0392V12.2023L23.3379 17.1379L13.8838 22.0392Z" fill="white"/>
</svg>
